<svg width="50" height="23" viewBox="0 0 50 23" fill="none" xmlns="http://www.w3.org/2000/svg">
<g opacity="0.55">
<g style="mix-blend-mode:difference">
<path d="M8.56377 9.49155V2.55607C8.56377 1.14419 7.24164 0 5.6102 0L0 0L0 23H5.6102C7.24164 23 8.56377 21.8558 8.56377 20.4439V13.5084C8.56377 11.5 5.01983 11.5 5.01983 11.5C5.01983 11.5 8.56377 11.5 8.56377 9.49155ZM5.01983 20.4439C5.01983 20.655 4.6893 20.8279 4.281 20.8279H3.54217L3.54217 12.5861H4.281C4.6893 12.5861 5.01983 12.7574 5.01983 12.97L5.01983 20.4439ZM5.01983 10.03C5.01983 10.2411 4.6893 10.4124 4.281 10.4124H3.54217L3.54217 2.17212H4.281C4.6893 2.17212 5.01983 2.34344 5.01983 2.55607L5.01983 10.03Z" fill="white"/>
</g>
<path d="M17.9478 0L17.9478 22.9999H24.4136L24.4136 20.8278H21.5569L21.5569 12.586H24.4136V10.4139H21.5569V2.17211H24.4136V0L17.9478 0Z" fill="#916C58"/>
<path d="M36.0151 0V22.9999H42.481V20.8278H39.6243V12.586H42.481V10.4139H39.6243V2.17211H42.481V0L36.0151 0Z" fill="#916C58"/>
<path d="M14.038 0.000244141L10.4307 0.000244141L10.4307 23.0002H16.8965L16.8965 20.828H14.038L14.038 0.000244141Z" fill="#916C58"/>
<path d="M47.1433 20.8278V0L43.5342 0V22.9999H50V20.8278H47.1433Z" fill="#916C58"/>
<path d="M30.1794 16.2572L28.5215 0L25.4668 0L28.3109 22.9999H32.0479L34.8938 0L31.8373 0L30.1794 16.2572Z" fill="#916C58"/>
</g>
</svg>
