<svg width="49" height="23" viewBox="0 0 49 23" fill="none" xmlns="http://www.w3.org/2000/svg">
<g opacity="0.55">
<path d="M7.6121 9.49155L7.6121 2.55607C7.6121 1.14419 6.4369 0 4.98675 0L0 0L0 23H4.98675C6.4369 23 7.6121 21.8558 7.6121 20.4439V13.5084C7.6121 11.5 4.462 11.5 4.462 11.5C4.462 11.5 7.6121 11.5 7.6121 9.49155ZM4.462 20.4439C4.462 20.655 4.1682 20.8279 3.80527 20.8279H3.14854L3.14854 12.5861H3.80527C4.1682 12.5861 4.462 12.7574 4.462 12.97V20.4439ZM4.462 10.03C4.462 10.2411 4.1682 10.4124 3.80527 10.4124H3.14854L3.14854 2.17212L3.80527 2.17212C4.1682 2.17212 4.462 2.34344 4.462 2.55607L4.462 10.03Z" fill="white"/>
<path d="M20.5098 0L20.5098 22.9999H26.2571V20.8278H23.7178L23.7178 12.586H26.2571V10.4139H23.7178V2.17211H26.2571V0L20.5098 0Z" fill="#916C58"/>
<path d="M36.5693 0V22.9999H42.3167V20.8278H39.7774V12.586H42.3167V10.4139H39.7774V2.17211H42.3167V0L36.5693 0Z" fill="#916C58"/>
<path d="M17.0346 0.000244141L13.8281 0.000244141L13.8281 23.0002H19.5755V20.828H17.0346L17.0346 0.000244141Z" fill="#916C58"/>
<path d="M46.4605 20.8278V0L43.2524 0V22.9999H48.9998V20.8278H46.4605Z" fill="#916C58"/>
<path d="M31.3818 16.2572L29.9081 0L27.1929 0L29.7209 22.9999H33.0426L35.5723 0L32.8554 0L31.3818 16.2572Z" fill="#916C58"/>
</g>
</svg>
