<svg width="134" height="63" viewBox="0 0 134 63" fill="none" xmlns="http://www.w3.org/2000/svg">
<path d="M20.8168 25.9986L20.8168 7.0014C20.8168 3.13408 17.603 0 13.6372 0L0 0L0 63H13.6372C17.603 63 20.8168 59.8659 20.8168 55.9986V37.0014C20.8168 31.5 12.2022 31.5 12.2022 31.5C12.2022 31.5 20.8168 31.5 20.8168 25.9986ZM12.2022 55.9986C12.2022 56.5768 11.3987 57.0503 10.4062 57.0503H8.61028L8.61028 34.4749H10.4062C11.3987 34.4749 12.2022 34.9441 12.2022 35.5265L12.2022 55.9986ZM12.2022 27.4735C12.2022 28.0517 11.3987 28.5209 10.4062 28.5209H8.61028L8.61028 5.94972H10.4062C11.3987 5.94972 12.2022 6.41899 12.2022 7.0014L12.2022 27.4735Z" fill="black"/>
<path d="M56.0881 0L56.0881 62.9997H71.8053V57.05H64.8612V34.4747H71.8053L71.8053 28.525H64.8612V5.9497H71.8053V0L56.0881 0Z" fill="#916C58"/>
<path d="M100.006 0L100.006 62.9997H115.723V57.05H108.779V34.4747H115.723L115.723 28.525H108.779V5.9497H115.723V0L100.006 0Z" fill="#916C58"/>
<path d="M46.5841 0.000244141L37.8154 0.000244141L37.8154 63H53.5325V57.0503H46.5841L46.5841 0.000244141Z" fill="#916C58"/>
<path d="M127.056 57.05L127.056 0L118.283 0L118.283 62.9997H134V57.05H127.056Z" fill="#916C58"/>
<path d="M85.8201 44.5305L81.7902 0L74.3648 0L81.2783 62.9997H90.362L97.2799 0L89.8501 0L85.8201 44.5305Z" fill="#916C58"/>
</svg>
