<svg width="66" height="46" viewBox="0 0 66 46" fill="none" xmlns="http://www.w3.org/2000/svg">
<path d="M51 46H0L15 0H66L51 46Z" fill="#916C58"/>
<path d="M23 24C22.4477 24 22 23.5523 22 23C22 22.4477 22.4477 22 23 22V24ZM43.7071 22.2929C44.0976 22.6834 44.0976 23.3166 43.7071 23.7071L37.3431 30.0711C36.9526 30.4616 36.3195 30.4616 35.9289 30.0711C35.5384 29.6805 35.5384 29.0474 35.9289 28.6569L41.5858 23L35.9289 17.3431C35.5384 16.9526 35.5384 16.3195 35.9289 15.9289C36.3195 15.5384 36.9526 15.5384 37.3431 15.9289L43.7071 22.2929ZM23 22H43V24H23V22Z" fill="white"/>
</svg>
