<svg width="49" height="23" viewBox="0 0 49 23" fill="none" xmlns="http://www.w3.org/2000/svg">
<g opacity="0.55">
<path d="M4.39002 8.24204H7.48931V2.5563C7.48931 1.14443 6.33307 0.000244141 4.90631 0.000244141H2.583C1.15624 0.000244141 0 1.14443 0 2.5563V20.4441C0 21.856 1.15624 23.0002 2.583 23.0002H4.90786C6.33461 23.0002 7.49085 21.856 7.49085 20.4441V10.4142H3.75006V12.5863H4.39156V20.4441C4.39156 20.6552 4.1025 20.8281 3.74543 20.8281C3.38835 20.8281 3.09929 20.6567 3.09929 20.4441V2.5563C3.09929 2.34521 3.38835 2.17236 3.74543 2.17236C4.1025 2.17236 4.39156 2.34368 4.39156 2.5563V8.24204H4.39002Z" fill="white"/>
<path d="M21.3203 0V22.9999H26.9042V20.8278H24.4371V12.586H26.9042V10.4139H24.4371V2.17211H26.9042V0H21.3203Z" fill="#916C58"/>
<path d="M36.9224 0V22.9999H42.5062V20.8278H40.0392V12.586H42.5062V10.4139H40.0392V2.17211H42.5062V0H36.9224Z" fill="#916C58"/>
<path d="M17.9434 0.000244141H14.8281V23.0002H20.412V20.8281H17.9434V0.000244141Z" fill="#916C58"/>
<path d="M46.5328 20.8278V0H43.416V22.9999H48.9999V20.8278H46.5328Z" fill="#916C58"/>
<path d="M31.8827 16.2572L30.451 0H27.813L30.2691 22.9999H33.4963L35.9541 0H33.3145L31.8827 16.2572Z" fill="#916C58"/>
</g>
</svg>
