<svg width="46" height="46" viewBox="0 0 46 46" fill="none" xmlns="http://www.w3.org/2000/svg">
<circle opacity="0.25" cx="23" cy="23" r="23" fill="black"/>
<path d="M24 27H25.5C25.7761 27 26 27.2239 26 27.5C26 27.7761 25.7761 28 25.5 28H21.5C21.2239 28 21 27.7761 21 27.5C21 27.2239 21.2239 27 21.5 27H23V22H21.5C21.2239 22 21 21.7761 21 21.5C21 21.2239 21.2239 21 21.5 21H23.5C23.7761 21 24 21.2239 24 21.5V27ZM23 33C17.4772 33 13 28.5228 13 23C13 17.4772 17.4772 13 23 13C28.5228 13 33 17.4772 33 23C33 28.5228 28.5228 33 23 33ZM23 32C27.9706 32 32 27.9706 32 23C32 18.0294 27.9706 14 23 14C18.0294 14 14 18.0294 14 23C14 27.9706 18.0294 32 23 32ZM22.5 18H23.5C23.7761 18 24 18.2239 24 18.5V19.5C24 19.7761 23.7761 20 23.5 20H22.5C22.2239 20 22 19.7761 22 19.5V18.5C22 18.2239 22.2239 18 22.5 18Z" fill="white"/>
</svg>
