<svg width="699" height="205" viewBox="0 0 699 205" fill="none" xmlns="http://www.w3.org/2000/svg">
<g style="mix-blend-mode:difference">
<path d="M5.24 71H4.74V71.5H5.24V71ZM5.24 2.84V2.34H4.74V2.84H5.24ZM63.704 2.84H64.204V2.34H63.704V2.84ZM63.704 71V71.5H64.204V71H63.704ZM44.984 71H44.484V71.5H44.984V71ZM44.984 19.16H45.484V18.66H44.984V19.16ZM23.96 19.16V18.66H23.46V19.16H23.96ZM23.96 71V71.5H24.46V71H23.96ZM5.74 71V2.84H4.74V71H5.74ZM5.24 3.34H63.704V2.34H5.24V3.34ZM63.204 2.84V71H64.204V2.84H63.204ZM63.704 70.5H44.984V71.5H63.704V70.5ZM45.484 71V19.16H44.484V71H45.484ZM44.984 18.66H23.96V19.66H44.984V18.66ZM23.46 19.16V71H24.46V19.16H23.46ZM23.96 70.5H5.24V71.5H23.96V70.5ZM92.8167 63.512L93.2599 63.2804L92.3167 63.512H92.8167ZM92.8167 91.448V91.948H93.3167V91.448H92.8167ZM74.5768 91.448H74.0768V91.948H74.5768V91.448ZM74.5768 20.504V20.004H74.0768V20.504H74.5768ZM90.4167 20.504H90.9167V20.004H90.4167V20.504ZM90.4167 28.088H89.9167V29.7722L90.8357 28.3608L90.4167 28.088ZM97.0407 21.752L96.8006 21.3134L96.7961 21.3159L97.0407 21.752ZM118.737 23L118.463 23.4184L118.468 23.4218L118.737 23ZM126.993 32.216L126.547 32.4425L126.55 32.4483L126.993 32.216ZM127.281 59.096L126.828 58.8842L127.281 59.096ZM119.601 68.504L119.312 68.0955L119.309 68.0982L119.601 68.504ZM108.753 53.336L108.367 53.0181L108.361 53.0251L108.753 53.336ZM108.657 37.784L108.291 38.1252L108.297 38.1315L108.657 37.784ZM92.8167 40.088L92.4078 39.8003L92.3167 39.9297V40.088H92.8167ZM92.8167 48.824H92.3167V48.9229L92.3544 49.0144L92.8167 48.824ZM96.7528 54.392L96.4205 54.7658L96.4285 54.7726L96.7528 54.392ZM108.561 71.46C101.153 71.46 96.0996 68.713 93.2599 63.2804L92.3736 63.7436C95.4219 69.575 100.865 72.46 108.561 72.46V71.46ZM92.3167 63.512V91.448H93.3167V63.512H92.3167ZM92.8167 90.948H74.5768V91.948H92.8167V90.948ZM75.0768 91.448V20.504H74.0768V91.448H75.0768ZM74.5768 21.004H90.4167V20.004H74.5768V21.004ZM89.9167 20.504V28.088H90.9167V20.504H89.9167ZM90.8357 28.3608C92.5878 25.6702 94.7381 23.617 97.2854 22.1881L96.7961 21.3159C94.0954 22.831 91.8297 25.0018 89.9977 27.8152L90.8357 28.3608ZM97.2809 22.1905C99.8801 20.7672 103.025 20.044 106.737 20.044V19.044C102.896 19.044 99.5774 19.7928 96.8006 21.3134L97.2809 22.1905ZM106.737 20.044C111.126 20.044 115.03 21.1711 118.463 23.4184L119.011 22.5816C115.404 20.2209 111.307 19.044 106.737 19.044V20.044ZM118.468 23.4218C121.909 25.6113 124.601 28.6142 126.547 32.4425L127.438 31.9895C125.416 28.0098 122.605 24.8686 119.005 22.5782L118.468 23.4218ZM126.55 32.4483C128.556 36.2716 129.565 40.6381 129.565 45.56H130.565C130.565 40.4979 129.526 35.9684 127.436 31.9837L126.55 32.4483ZM129.565 45.56C129.565 50.554 128.648 54.992 126.828 58.8842L127.734 59.3078C129.625 55.264 130.565 50.678 130.565 45.56H129.565ZM126.828 58.8842C125.005 62.7812 122.499 65.8464 119.312 68.0955L119.889 68.9125C123.231 66.5536 125.844 63.3468 127.734 59.3078L126.828 58.8842ZM119.309 68.0982C116.199 70.3375 112.622 71.46 108.561 71.46V72.46C112.819 72.46 116.603 71.2785 119.893 68.9098L119.309 68.0982ZM102.225 57.1C105.011 57.1 107.328 55.9343 109.144 53.6469L108.361 53.0251C106.722 55.0897 104.686 56.1 102.225 56.1V57.1ZM109.139 53.6539C111.011 51.3801 111.941 48.6408 111.941 45.464H110.941C110.941 48.4312 110.078 50.9399 108.367 53.0181L109.139 53.6539ZM111.941 45.464C111.941 42.1617 110.98 39.4677 109.016 37.4365L108.297 38.1315C110.046 39.9403 110.941 42.3663 110.941 45.464H111.941ZM109.022 37.4428C107.122 35.4064 104.581 34.404 101.457 34.404V35.404C104.348 35.404 106.608 36.3216 108.291 38.1252L109.022 37.4428ZM101.457 34.404C97.9225 34.404 94.9053 36.2513 92.4078 39.8003L93.2257 40.3757C95.5922 37.0127 98.335 35.404 101.457 35.404V34.404ZM92.3167 40.088V48.824H93.3167V40.088H92.3167ZM92.3544 49.0144C93.2788 51.2593 94.6348 53.1783 96.4206 54.7657L97.0849 54.0183C95.4147 52.5337 94.1467 50.7407 93.2791 48.6336L92.3544 49.0144ZM96.4285 54.7726C98.2297 56.3069 100.165 57.1 102.225 57.1V56.1C100.445 56.1 98.7318 55.4211 97.077 54.0114L96.4285 54.7726ZM146.429 68.312L146.169 68.739L146.174 68.7419L146.429 68.312ZM137.117 32.792L136.676 32.5571L137.117 32.792ZM146.429 23.192L146.174 22.7621L146.429 23.192ZM176.765 23.192L177.02 22.7621L176.765 23.192ZM186.077 32.792L186.518 32.5571L186.077 32.792ZM176.765 68.312L177.02 68.742L177.025 68.739L176.765 68.312ZM155.165 53.72L154.782 54.0413L154.788 54.048L154.793 54.0545L155.165 53.72ZM168.029 53.72L168.407 54.0475L168.412 54.0413L168.029 53.72ZM155.165 37.784L154.793 37.4495L154.787 37.4565L155.165 37.784ZM161.597 71.46C155.648 71.46 150.685 70.2576 146.684 67.8821L146.174 68.7419C150.365 71.2304 155.514 72.46 161.597 72.46V71.46ZM146.689 67.885C142.664 65.4324 139.625 62.2646 137.558 58.3811L136.676 58.8509C138.833 62.9034 142.002 66.1996 146.169 68.739L146.689 67.885ZM137.558 58.3811C135.486 54.4873 134.449 50.2802 134.449 45.752H133.449C133.449 50.4398 134.524 54.8087 136.676 58.8509L137.558 58.3811ZM134.449 45.752C134.449 41.1586 135.486 36.9197 137.558 33.0269L136.676 32.5571C134.524 36.6003 133.449 41.0014 133.449 45.752H134.449ZM137.558 33.0269C139.625 29.1446 142.662 26.0101 146.684 23.6219L146.174 22.7621C142.004 25.2379 138.833 28.5034 136.676 32.5571L137.558 33.0269ZM146.684 23.6219C150.685 21.2464 155.648 20.044 161.597 20.044V19.044C155.514 19.044 150.365 20.2736 146.174 22.7621L146.684 23.6219ZM161.597 20.044C167.546 20.044 172.509 21.2464 176.51 23.6219L177.02 22.7621C172.829 20.2736 167.68 19.044 161.597 19.044V20.044ZM176.51 23.6219C180.532 26.0101 183.569 29.1446 185.636 33.0269L186.518 32.5571C184.361 28.5034 181.19 25.2379 177.02 22.7621L176.51 23.6219ZM185.636 33.0269C187.708 36.9197 188.745 41.1586 188.745 45.752H189.745C189.745 41.0014 188.67 36.6003 186.518 32.5571L185.636 33.0269ZM188.745 45.752C188.745 50.2802 187.708 54.4873 185.636 58.3811L186.518 58.8509C188.67 54.8087 189.745 50.4398 189.745 45.752H188.745ZM185.636 58.3811C183.569 62.2646 180.53 65.4324 176.505 67.885L177.025 68.739C181.192 66.1996 184.361 62.9034 186.518 58.8509L185.636 58.3811ZM176.51 67.8821C172.509 70.2576 167.546 71.46 161.597 71.46V72.46C167.68 72.46 172.829 71.2304 177.02 68.7419L176.51 67.8821ZM152.169 45.752C152.169 49.1633 153.023 51.9441 154.782 54.0413L155.548 53.3987C153.979 51.5278 153.169 48.9967 153.169 45.752H152.169ZM154.793 54.0545C156.615 56.0788 158.894 57.1 161.597 57.1V56.1C159.18 56.1 157.171 55.2012 155.537 53.3855L154.793 54.0545ZM161.597 57.1C164.361 57.1 166.644 56.0811 168.407 54.0475L167.651 53.3925C166.086 55.1989 164.081 56.1 161.597 56.1V57.1ZM168.412 54.0413C170.171 51.9441 171.025 49.1633 171.025 45.752H170.025C170.025 48.9967 169.215 51.5278 167.646 53.3987L168.412 54.0413ZM171.025 45.752C171.025 42.2805 170.173 39.4941 168.407 37.4565L167.651 38.1115C169.213 39.9139 170.025 42.4395 170.025 45.752H171.025ZM168.407 37.4565C166.644 35.4229 164.361 34.404 161.597 34.404V35.404C164.081 35.404 166.086 36.3051 167.651 38.1115L168.407 37.4565ZM161.597 34.404C158.894 34.404 156.615 35.4252 154.793 37.4495L155.537 38.1185C157.171 36.3027 159.18 35.404 161.597 35.404V34.404ZM154.787 37.4565C153.021 39.4941 152.169 42.2805 152.169 45.752H153.169C153.169 42.4395 153.981 39.9139 155.543 38.1115L154.787 37.4565ZM219.606 91.448H219.106V91.948H219.606V91.448ZM219.606 71H220.106V70.5H219.606V71ZM204.534 67.448L204.268 67.8716L204.271 67.8736L204.534 67.448ZM204.534 24.056L204.794 24.4828L204.796 24.4816L204.534 24.056ZM219.606 20.504V21.004H220.106V20.504H219.606ZM219.606 0.919998V0.419998H219.106V0.919998H219.606ZM237.846 0.919998H238.346V0.419998H237.846V0.919998ZM237.846 20.504H237.346V21.004H237.846V20.504ZM252.918 24.056L252.655 24.4816L252.661 24.4847L252.918 24.056ZM261.558 33.272L261.111 33.4956L261.114 33.5015L261.558 33.272ZM261.558 58.136L261.113 57.9065L261.111 57.9124L261.558 58.136ZM237.846 71V70.5H237.346V71H237.846ZM237.846 91.448V91.948H238.346V91.448H237.846ZM220.566 56.6V57.1H221.066V56.6H220.566ZM220.566 34.904H221.066V34.404H220.566V34.904ZM212.886 37.784L212.495 37.4716L212.489 37.4798L212.886 37.784ZM212.886 53.72L212.484 54.0179L212.49 54.0252L212.495 54.0323L212.886 53.72ZM236.886 56.6H236.386V57.1H236.886V56.6ZM244.47 53.72L244.074 53.4139L244.073 53.4158L244.47 53.72ZM244.47 37.784L244.073 38.0883L244.079 38.0963L244.47 37.784ZM236.886 34.904V34.404H236.386V34.904H236.886ZM220.106 91.448V71H219.106V91.448H220.106ZM219.606 70.5H218.646V71.5H219.606V70.5ZM218.646 70.5C213.149 70.5 208.541 69.3315 204.796 67.0224L204.271 67.8736C208.207 70.3005 213.007 71.5 218.646 71.5V70.5ZM204.799 67.0244C201.097 64.7024 198.28 61.6644 196.338 57.9065L195.45 58.3655C197.476 62.2876 200.419 65.4576 204.268 67.8716L204.799 67.0244ZM196.338 57.9065C194.391 54.139 193.418 50.0899 193.418 45.752H192.418C192.418 50.2461 193.428 54.453 195.45 58.3655L196.338 57.9065ZM193.418 45.752C193.418 41.3488 194.392 37.2679 196.338 33.5015L195.45 33.0425C193.428 36.9561 192.418 41.1952 192.418 45.752H193.418ZM196.338 33.5015C198.279 29.7449 201.094 26.7403 204.794 24.4828L204.273 23.6292C200.421 25.9797 197.477 29.1191 195.45 33.0425L196.338 33.5015ZM204.796 24.4816C208.541 22.1725 213.149 21.004 218.646 21.004V20.004C213.007 20.004 208.207 21.2035 204.271 23.6304L204.796 24.4816ZM218.646 21.004H219.606V20.004H218.646V21.004ZM220.106 20.504V0.919998H219.106V20.504H220.106ZM219.606 1.42H237.846V0.419998H219.606V1.42ZM237.346 0.919998V20.504H238.346V0.919998H237.346ZM237.846 21.004H238.806V20.004H237.846V21.004ZM238.806 21.004C244.303 21.004 248.911 22.1725 252.655 24.4816L253.18 23.6304C249.245 21.2035 244.445 20.004 238.806 20.004V21.004ZM252.661 24.4847C256.423 26.742 259.235 29.7444 261.111 33.4956L262.005 33.0484C260.041 29.1196 257.093 25.978 253.175 23.6273L252.661 24.4847ZM261.114 33.5015C263.06 37.2679 264.034 41.3488 264.034 45.752H265.034C265.034 41.1952 264.024 36.9561 262.002 33.0425L261.114 33.5015ZM264.034 45.752C264.034 50.0899 263.06 54.139 261.114 57.9065L262.002 58.3655C264.023 54.453 265.034 50.2461 265.034 45.752H264.034ZM261.111 57.9124C259.234 61.6649 256.42 64.7006 252.655 67.0224L253.18 67.8736C257.095 65.4594 260.041 62.2871 262.005 58.3596L261.111 57.9124ZM252.655 67.0224C248.911 69.3315 244.303 70.5 238.806 70.5V71.5C244.445 71.5 249.245 70.3005 253.18 67.8736L252.655 67.0224ZM238.806 70.5H237.846V71.5H238.806V70.5ZM237.346 71V91.448H238.346V71H237.346ZM237.846 90.948H219.606V91.948H237.846V90.948ZM218.646 57.1H220.566V56.1H218.646V57.1ZM221.066 56.6V34.904H220.066V56.6H221.066ZM220.566 34.404H218.646V35.404H220.566V34.404ZM218.646 34.404C216.178 34.404 214.119 35.4422 212.495 37.4716L213.276 38.0963C214.725 36.2858 216.505 35.404 218.646 35.404V34.404ZM212.489 37.4798C210.928 39.5161 210.178 42.2932 210.178 45.752H211.178C211.178 42.4268 211.9 39.8919 213.283 38.0882L212.489 37.4798ZM210.178 45.752C210.178 49.1505 210.929 51.9223 212.484 54.0179L213.287 53.4221C211.898 51.5497 211.178 49.0095 211.178 45.752H210.178ZM212.495 54.0323C214.119 56.0618 216.178 57.1 218.646 57.1V56.1C216.505 56.1 214.725 55.2182 213.276 53.4077L212.495 54.0323ZM236.886 57.1H238.806V56.1H236.886V57.1ZM238.806 57.1C241.274 57.1 243.305 56.0604 244.867 54.0242L244.073 53.4158C242.69 55.2196 240.945 56.1 238.806 56.1V57.1ZM244.865 54.0261C246.488 51.9296 247.274 49.1547 247.274 45.752H246.274C246.274 49.0053 245.523 51.5423 244.074 53.4139L244.865 54.0261ZM247.274 45.752C247.274 42.2891 246.49 39.5087 244.86 37.4716L244.079 38.0963C245.522 39.8993 246.274 42.4309 246.274 45.752H247.274ZM244.867 37.4798C243.305 35.4436 241.274 34.404 238.806 34.404V35.404C240.945 35.404 242.69 36.2844 244.073 38.0882L244.867 37.4798ZM238.806 34.404H236.886V35.404H238.806V34.404ZM236.386 34.904V56.6H237.386V34.904H236.386ZM280.775 68.408L280.525 68.8409L280.528 68.8425L280.775 68.408ZM271.367 59L270.927 59.2379L270.93 59.2434L271.367 59ZM271.367 33.08L271.81 33.312L271.811 33.3091L271.367 33.08ZM280.679 23.288L280.934 23.718L280.939 23.715L280.679 23.288ZM311.015 23.192L311.27 22.7621L311.015 23.192ZM320.327 32.792L320.768 32.5571L320.327 32.792ZM323.015 51.32V51.82H323.431L323.507 51.411L323.015 51.32ZM287.591 51.32V50.82H287.054L287.092 51.3556L287.591 51.32ZM290.567 57.176L290.286 57.5899L290.297 57.5966L290.567 57.176ZM301.991 57.56L301.767 57.1127L301.761 57.1161L301.991 57.56ZM305.543 53.816L305.68 53.3352L305.231 53.2068L305.073 53.6466L305.543 53.816ZM320.999 58.232L321.445 58.4584L321.719 57.9178L321.136 57.7512L320.999 58.232ZM311.495 68.12L311.751 68.5493L311.495 68.12ZM287.207 40.376L286.711 40.3108L286.637 40.876H287.207V40.376ZM303.911 40.376V40.876H304.466L304.408 40.3237L303.911 40.376ZM301.223 34.616L300.877 34.9774L300.885 34.9846L301.223 34.616ZM289.895 34.616L290.241 34.9773L289.895 34.616ZM295.847 71.46C290.026 71.46 285.091 70.2897 281.022 67.9735L280.528 68.8425C284.779 71.2623 289.892 72.46 295.847 72.46V71.46ZM281.025 67.9751C277.003 65.6495 273.933 62.5771 271.804 58.7566L270.93 59.2434C273.153 63.2309 276.355 66.4305 280.525 68.8409L281.025 67.9751ZM271.807 58.7621C269.735 54.9319 268.699 50.8217 268.699 46.424H267.699C267.699 50.9863 268.775 55.2601 270.927 59.2379L271.807 58.7621ZM268.699 46.424C268.699 41.6351 269.738 37.2675 271.81 33.312L270.924 32.848C268.772 36.9565 267.699 41.4849 267.699 46.424H268.699ZM271.811 33.3091C273.879 29.2994 276.916 26.1038 280.934 23.7179L280.424 22.8581C276.25 25.3362 273.079 28.6686 270.923 32.8509L271.811 33.3091ZM280.939 23.715C284.939 21.2775 289.9 20.044 295.847 20.044V19.044C289.762 19.044 284.611 20.3065 280.419 22.861L280.939 23.715ZM295.847 20.044C301.796 20.044 306.759 21.2464 310.76 23.6219L311.27 22.7621C307.079 20.2736 301.93 19.044 295.847 19.044V20.044ZM310.76 23.6219C314.782 26.0101 317.819 29.1446 319.886 33.0269L320.768 32.5571C318.611 28.5034 315.44 25.2379 311.27 22.7621L310.76 23.6219ZM319.886 33.0269C321.958 36.9197 322.995 41.1586 322.995 45.752H323.995C323.995 41.0014 322.92 36.6003 320.768 32.5571L319.886 33.0269ZM322.995 45.752C322.995 47.7093 322.837 49.5345 322.523 51.229L323.507 51.411C323.833 49.6495 323.995 47.7627 323.995 45.752H322.995ZM323.015 50.82H287.591V51.82H323.015V50.82ZM287.092 51.3556C287.292 54.1553 288.337 56.267 290.286 57.5897L290.848 56.7623C289.213 55.653 288.274 53.8607 288.09 51.2844L287.092 51.3556ZM290.297 57.5966C292.169 58.8 294.214 59.404 296.423 59.404V58.404C294.408 58.404 292.549 57.856 290.837 56.7554L290.297 57.5966ZM296.423 59.404C298.486 59.404 300.421 58.9375 302.221 58.0039L301.761 57.1161C300.105 57.9745 298.328 58.404 296.423 58.404V59.404ZM302.215 58.0072C304.1 57.0647 305.386 55.7275 306.013 53.9854L305.073 53.6466C304.548 55.1045 303.466 56.2633 301.767 57.1128L302.215 58.0072ZM305.406 54.2968L320.862 58.7128L321.136 57.7512L305.68 53.3352L305.406 54.2968ZM320.553 58.0056C318.552 61.9448 315.454 65.1739 311.239 67.6907L311.751 68.5493C316.112 65.9461 319.35 62.5832 321.445 58.4584L320.553 58.0056ZM311.239 67.6907C307.044 70.1949 301.921 71.46 295.847 71.46V72.46C302.061 72.46 307.37 71.1651 311.751 68.5493L311.239 67.6907ZM287.207 40.876H303.911V39.876H287.207V40.876ZM304.408 40.3237C304.142 37.7926 303.202 35.7518 301.561 34.2474L300.885 34.9846C302.316 36.2962 303.168 38.0954 303.414 40.4283L304.408 40.3237ZM301.569 34.2547C299.991 32.7458 297.973 32.004 295.559 32.004V33.004C297.753 33.004 299.511 33.6702 300.877 34.9773L301.569 34.2547ZM295.559 32.004C293.145 32.004 291.127 32.7458 289.549 34.2547L290.241 34.9773C291.607 33.6702 293.365 33.004 295.559 33.004V32.004ZM289.549 34.2547C287.979 35.7566 287.043 37.7897 286.711 40.3108L287.703 40.4412C288.011 38.0982 288.867 36.2914 290.241 34.9773L289.549 34.2547ZM339.275 68.312L339.015 68.739L339.023 68.7436L339.275 68.312ZM329.867 58.616L329.426 58.8509L329.429 58.8564L329.867 58.616ZM329.867 32.888L329.427 32.6505L329.426 32.6531L329.867 32.888ZM339.275 23.192L339.023 22.7603L339.02 22.7621L339.275 23.192ZM369.803 23.384L369.541 23.8098L369.803 23.384ZM379.115 33.272L379.26 33.7506L379.831 33.5777L379.561 33.0456L379.115 33.272ZM361.355 38.648L360.944 38.9326L361.151 39.2321L361.5 39.1266L361.355 38.648ZM361.355 52.856L361.5 52.3774L361.151 52.2719L360.944 52.5714L361.355 52.856ZM379.115 58.232L379.561 58.4584L379.831 57.9263L379.26 57.7534L379.115 58.232ZM369.803 68.12L369.541 67.6942L369.803 68.12ZM354.443 71.46C348.559 71.46 343.595 70.2582 339.527 67.8803L339.023 68.7436C343.275 71.2298 348.423 72.46 354.443 72.46V71.46ZM339.535 67.885C335.509 65.4317 332.437 62.2622 330.305 58.3756L329.429 58.8564C331.649 62.9058 334.849 66.2003 339.015 68.739L339.535 67.885ZM330.308 58.3811C328.236 54.4873 327.199 50.2802 327.199 45.752H326.199C326.199 50.4398 327.274 54.8087 329.426 58.8509L330.308 58.3811ZM327.199 45.752C327.199 41.2238 328.236 37.0167 330.308 33.1229L329.426 32.6531C327.274 36.6953 326.199 41.0642 326.199 45.752H327.199ZM330.307 33.1255C332.438 29.1764 335.509 26.0096 339.53 23.6219L339.02 22.7621C334.849 25.2384 331.648 28.5356 329.427 32.6505L330.307 33.1255ZM339.527 23.6236C343.595 21.2458 348.559 20.044 354.443 20.044V19.044C348.423 19.044 343.275 20.2742 339.023 22.7603L339.527 23.6236ZM354.443 20.044C360.453 20.044 365.477 21.3089 369.541 23.8098L370.065 22.9582C365.809 20.3391 360.593 19.044 354.443 19.044V20.044ZM369.541 23.8098C373.629 26.3256 376.666 29.5551 378.669 33.4984L379.561 33.0456C377.468 28.9249 374.297 25.5624 370.065 22.9582L369.541 23.8098ZM378.97 32.7934L361.21 38.1694L361.5 39.1266L379.26 33.7506L378.97 32.7934ZM361.766 38.3634C359.948 35.7375 357.461 34.404 354.347 34.404V35.404C357.121 35.404 359.306 36.5665 360.944 38.9326L361.766 38.3634ZM354.347 34.404C351.704 34.404 349.458 35.4283 347.639 37.4495L348.383 38.1185C350.02 36.2997 351.998 35.404 354.347 35.404V34.404ZM347.639 37.4495C345.806 39.487 344.919 42.276 344.919 45.752H345.919C345.919 42.444 346.76 39.921 348.383 38.1185L347.639 37.4495ZM344.919 45.752C344.919 49.228 345.806 52.017 347.639 54.0545L348.383 53.3855C346.76 51.583 345.919 49.06 345.919 45.752H344.919ZM347.639 54.0545C349.458 56.0757 351.704 57.1 354.347 57.1V56.1C351.998 56.1 350.02 55.2043 348.383 53.3855L347.639 54.0545ZM354.347 57.1C357.461 57.1 359.948 55.7665 361.766 53.1406L360.944 52.5714C359.306 54.9375 357.121 56.1 354.347 56.1V57.1ZM361.21 53.3346L378.97 58.7106L379.26 57.7534L361.5 52.3774L361.21 53.3346ZM378.669 58.0056C376.666 61.9489 373.629 65.1784 369.541 67.6942L370.065 68.5458C374.297 65.9416 377.468 62.5791 379.561 58.4584L378.669 58.0056ZM369.541 67.6942C365.477 70.1951 360.453 71.46 354.443 71.46V72.46C360.593 72.46 365.809 71.1649 370.065 68.5458L369.541 67.6942ZM384.889 16.28H384.389V16.78H384.889V16.28ZM384.889 0.919998V0.419998H384.389V0.919998H384.889ZM403.129 0.919998H403.629V0.419998H403.129V0.919998ZM403.129 16.28V16.78H403.629V16.28H403.129ZM384.889 71H384.389V71.5H384.889V71ZM384.889 20.504V20.004H384.389V20.504H384.889ZM403.129 20.504H403.629V20.004H403.129V20.504ZM403.129 71V71.5H403.629V71H403.129ZM385.389 16.28V0.919998H384.389V16.28H385.389ZM384.889 1.42H403.129V0.419998H384.889V1.42ZM402.629 0.919998V16.28H403.629V0.919998H402.629ZM403.129 15.78H384.889V16.78H403.129V15.78ZM385.389 71V20.504H384.389V71H385.389ZM384.889 21.004H403.129V20.004H384.889V21.004ZM402.629 20.504V71H403.629V20.504H402.629ZM403.129 70.5H384.889V71.5H403.129V70.5ZM422.054 68.312L421.794 68.739L421.799 68.7419L422.054 68.312ZM412.742 32.792L412.301 32.5571L412.742 32.792ZM422.054 23.192L421.799 22.7621L422.054 23.192ZM452.39 23.192L452.645 22.7621L452.39 23.192ZM461.702 32.792L462.143 32.5571L461.702 32.792ZM452.39 68.312L452.645 68.742L452.65 68.739L452.39 68.312ZM430.79 53.72L430.407 54.0413L430.413 54.048L430.418 54.0545L430.79 53.72ZM443.654 53.72L444.032 54.0475L444.037 54.0413L443.654 53.72ZM430.79 37.784L430.418 37.4495L430.412 37.4565L430.79 37.784ZM437.222 71.46C431.273 71.46 426.31 70.2576 422.309 67.8821L421.799 68.7419C425.99 71.2304 431.139 72.46 437.222 72.46V71.46ZM422.314 67.885C418.289 65.4324 415.25 62.2646 413.183 58.3811L412.301 58.8509C414.458 62.9034 417.627 66.1996 421.794 68.739L422.314 67.885ZM413.183 58.3811C411.111 54.4873 410.074 50.2802 410.074 45.752H409.074C409.074 50.4398 410.149 54.8087 412.301 58.8509L413.183 58.3811ZM410.074 45.752C410.074 41.1586 411.111 36.9197 413.183 33.0269L412.301 32.5571C410.149 36.6003 409.074 41.0014 409.074 45.752H410.074ZM413.183 33.0269C415.25 29.1446 418.287 26.0101 422.309 23.6219L421.799 22.7621C417.629 25.2379 414.458 28.5034 412.301 32.5571L413.183 33.0269ZM422.309 23.6219C426.31 21.2464 431.273 20.044 437.222 20.044V19.044C431.139 19.044 425.99 20.2736 421.799 22.7621L422.309 23.6219ZM437.222 20.044C443.171 20.044 448.134 21.2464 452.135 23.6219L452.645 22.7621C448.454 20.2736 443.305 19.044 437.222 19.044V20.044ZM452.135 23.6219C456.157 26.0101 459.194 29.1446 461.261 33.0269L462.143 32.5571C459.986 28.5034 456.815 25.2379 452.645 22.7621L452.135 23.6219ZM461.261 33.0269C463.333 36.9197 464.37 41.1586 464.37 45.752H465.37C465.37 41.0014 464.295 36.6003 462.143 32.5571L461.261 33.0269ZM464.37 45.752C464.37 50.2802 463.333 54.4873 461.261 58.3811L462.143 58.8509C464.295 54.8087 465.37 50.4398 465.37 45.752H464.37ZM461.261 58.3811C459.194 62.2646 456.155 65.4324 452.13 67.885L452.65 68.739C456.817 66.1996 459.986 62.9034 462.143 58.8509L461.261 58.3811ZM452.135 67.8821C448.134 70.2576 443.171 71.46 437.222 71.46V72.46C443.305 72.46 448.454 71.2304 452.645 68.7419L452.135 67.8821ZM427.794 45.752C427.794 49.1633 428.648 51.9441 430.407 54.0413L431.173 53.3987C429.604 51.5278 428.794 48.9967 428.794 45.752H427.794ZM430.418 54.0545C432.24 56.0788 434.519 57.1 437.222 57.1V56.1C434.805 56.1 432.796 55.2012 431.162 53.3855L430.418 54.0545ZM437.222 57.1C439.986 57.1 442.269 56.0811 444.032 54.0475L443.276 53.3925C441.711 55.1989 439.706 56.1 437.222 56.1V57.1ZM444.037 54.0413C445.796 51.9441 446.65 49.1633 446.65 45.752H445.65C445.65 48.9967 444.84 51.5278 443.271 53.3987L444.037 54.0413ZM446.65 45.752C446.65 42.2805 445.798 39.4941 444.032 37.4565L443.276 38.1115C444.838 39.9139 445.65 42.4395 445.65 45.752H446.65ZM444.032 37.4565C442.269 35.4229 439.986 34.404 437.222 34.404V35.404C439.706 35.404 441.711 36.3051 443.276 38.1115L444.032 37.4565ZM437.222 34.404C434.519 34.404 432.24 35.4252 430.418 37.4495L431.162 38.1185C432.796 36.3027 434.805 35.404 437.222 35.404V34.404ZM430.412 37.4565C428.646 39.4941 427.794 42.2805 427.794 45.752H428.794C428.794 42.4395 429.606 39.9139 431.168 38.1115L430.412 37.4565ZM471.519 71H471.019V71.5H471.519V71ZM471.519 20.504V20.004H471.019V20.504H471.519ZM489.759 20.504H490.259V20.004H489.759V20.504ZM489.759 37.688H489.259V38.188H489.759V37.688ZM503.199 37.688V38.188H503.699V37.688H503.199ZM503.199 20.504V20.004H502.699V20.504H503.199ZM521.439 20.504H521.939V20.004H521.439V20.504ZM521.439 71V71.5H521.939V71H521.439ZM503.199 71H502.699V71.5H503.199V71ZM503.199 52.568H503.699V52.068H503.199V52.568ZM489.759 52.568V52.068H489.259V52.568H489.759ZM489.759 71V71.5H490.259V71H489.759ZM472.019 71V20.504H471.019V71H472.019ZM471.519 21.004H489.759V20.004H471.519V21.004ZM489.259 20.504V37.688H490.259V20.504H489.259ZM489.759 38.188H503.199V37.188H489.759V38.188ZM503.699 37.688V20.504H502.699V37.688H503.699ZM503.199 21.004H521.439V20.004H503.199V21.004ZM520.939 20.504V71H521.939V20.504H520.939ZM521.439 70.5H503.199V71.5H521.439V70.5ZM503.699 71V52.568H502.699V71H503.699ZM503.199 52.068H489.759V53.068H503.199V52.068ZM489.259 52.568V71H490.259V52.568H489.259ZM489.759 70.5H471.519V71.5H489.759V70.5ZM530.858 46.808L531.263 47.1015L531.266 47.0967L530.858 46.808ZM538.538 40.664L538.336 40.2067L538.332 40.2082L538.538 40.664ZM560.042 40.376L559.827 40.8274L560.542 41.1679V40.376H560.042ZM557.93 33.56L557.604 33.9397L557.613 33.947L557.93 33.56ZM543.338 33.272L543.511 33.7412L543.518 33.7387L543.338 33.272ZM535.658 37.304L535.205 37.5152L535.451 38.043L535.935 37.72L535.658 37.304ZM530.378 25.976L530.107 25.5557L529.741 25.7919L529.925 26.1872L530.378 25.976ZM571.658 25.016L571.337 25.3992L571.343 25.4042L571.658 25.016ZM579.05 54.488L578.646 54.7821L578.652 54.7914L578.66 54.8003L579.05 54.488ZM581.738 55.64H582.238V55.1875L581.788 55.1425L581.738 55.64ZM581.738 71L581.844 71.4886L582.238 71.403V71H581.738ZM577.514 71.672L577.467 71.1743L577.453 71.1755L577.44 71.1775L577.514 71.672ZM566.57 70.232L566.275 70.6357L566.284 70.6421L566.293 70.648L566.57 70.232ZM563.306 64.952L562.817 65.055L562.818 65.0605L563.306 64.952ZM562.922 63.128L563.411 63.025L563.19 61.9742L562.528 62.8198L562.922 63.128ZM536.714 69.848L536.482 70.2909L536.714 69.848ZM530.378 64.088L529.952 64.3501L529.955 64.355L530.378 64.088ZM557.642 56.984L557.919 57.4L557.923 57.3975L557.642 56.984ZM560.042 49.688H560.542V49.3415L560.218 49.2198L560.042 49.688ZM556.49 48.728L556.392 49.2183L556.396 49.2192L556.49 48.728ZM547.466 49.976L547.177 49.5679L547.169 49.5739L547.466 49.976ZM546.89 57.56L546.572 57.9461L546.583 57.9547L546.89 57.56ZM528.574 55.736C528.574 52.4413 529.473 49.5698 531.263 47.1015L530.453 46.5145C528.531 49.1662 527.574 52.2467 527.574 55.736H528.574ZM531.266 47.0967C533.065 44.5535 535.551 42.5594 538.744 41.1198L538.332 40.2082C534.997 41.7126 532.363 43.8145 530.45 46.5193L531.266 47.0967ZM538.74 41.1213C541.995 39.6816 545.701 38.956 549.866 38.956V37.956C545.583 37.956 541.737 38.7024 538.336 40.2067L538.74 41.1213ZM549.866 38.956C553.914 38.956 557.227 39.5891 559.827 40.8274L560.257 39.9246C557.482 38.6029 554.01 37.956 549.866 37.956V38.956ZM560.542 40.376V38.84H559.542V40.376H560.542ZM560.542 38.84C560.542 36.3708 559.804 34.447 558.247 33.173L557.613 33.947C558.872 34.977 559.542 36.5732 559.542 38.84H560.542ZM558.255 33.1804C556.775 31.9111 554.418 31.332 551.306 31.332V32.332C554.338 32.332 556.397 32.9049 557.605 33.9396L558.255 33.1804ZM551.306 31.332C548.432 31.332 545.715 31.8221 543.159 32.8053L543.518 33.7387C545.953 32.8019 548.548 32.332 551.306 32.332V31.332ZM543.165 32.8028C540.689 33.7152 538.094 35.0793 535.381 36.888L535.935 37.72C538.598 35.9447 541.123 34.6208 543.511 33.7412L543.165 32.8028ZM536.111 37.0928L530.831 25.7648L529.925 26.1872L535.205 37.5152L536.111 37.0928ZM530.649 26.3963C537.218 22.1643 544.706 20.044 553.13 20.044V19.044C544.529 19.044 536.85 21.2117 530.107 25.5557L530.649 26.3963ZM553.13 20.044C561.06 20.044 567.105 21.8523 571.337 25.3992L571.979 24.6328C567.507 20.8837 561.2 19.044 553.13 19.044V20.044ZM571.343 25.4042C575.613 28.8701 577.782 34.0536 577.782 41.048H578.782C578.782 33.8344 576.535 28.3299 571.973 24.6278L571.343 25.4042ZM577.782 41.048V50.84H578.782V41.048H577.782ZM577.782 50.84C577.782 52.5866 578.035 53.9421 578.646 54.7821L579.454 54.1939C579.041 53.6259 578.782 52.5494 578.782 50.84H577.782ZM578.66 54.8003C579.293 55.592 580.349 56.0036 581.688 56.1375L581.788 55.1425C580.567 55.0204 579.831 54.664 579.44 54.1757L578.66 54.8003ZM581.238 55.64V71H582.238V55.64H581.238ZM581.632 70.5114C580.177 70.8277 578.789 71.0483 577.467 71.1743L577.561 72.1697C578.927 72.0397 580.355 71.8123 581.844 71.4886L581.632 70.5114ZM577.44 71.1775C576.178 71.3668 575.052 71.46 574.058 71.46V72.46C575.112 72.46 576.29 72.3612 577.588 72.1665L577.44 71.1775ZM574.058 71.46C570.841 71.46 568.459 70.8902 566.847 69.816L566.293 70.648C568.137 71.8778 570.747 72.46 574.058 72.46V71.46ZM566.865 69.8283C565.313 68.6944 564.284 67.0473 563.794 64.8435L562.818 65.0605C563.352 67.4647 564.499 69.3377 566.275 70.6357L566.865 69.8283ZM563.795 64.849L563.411 63.025L562.433 63.231L562.817 65.055L563.795 64.849ZM562.528 62.8198C558.005 68.5995 552.417 71.46 545.738 71.46V72.46C552.755 72.46 558.623 69.4325 563.316 63.4362L562.528 62.8198ZM545.738 71.46C542.483 71.46 539.556 70.7721 536.946 69.4051L536.482 70.2909C539.248 71.7399 542.337 72.46 545.738 72.46V71.46ZM536.946 69.4051C534.331 68.0356 532.287 66.1745 530.801 63.821L529.955 64.355C531.541 66.8655 533.721 68.8444 536.482 70.2909L536.946 69.4051ZM530.804 63.826C529.319 61.4126 528.574 58.7201 528.574 55.736H527.574C527.574 58.8959 528.365 61.7714 529.952 64.3501L530.804 63.826ZM557.923 57.3975C559.586 56.2665 560.542 54.9502 560.542 53.432H559.542C559.542 54.4738 558.898 55.5255 557.361 56.5705L557.923 57.3975ZM560.542 53.432V49.688H559.542V53.432H560.542ZM560.218 49.2198C559.161 48.8237 557.949 48.4969 556.584 48.2368L556.396 49.2192C557.719 49.4711 558.875 49.7843 559.866 50.1562L560.218 49.2198ZM556.588 48.2377C555.284 47.9769 554.098 47.844 553.034 47.844V48.844C554.018 48.844 555.136 48.9671 556.392 49.2183L556.588 48.2377ZM553.034 47.844C550.771 47.844 548.81 48.4112 547.177 49.568L547.755 50.384C549.194 49.3648 550.945 48.844 553.034 48.844V47.844ZM547.169 49.5739C545.584 50.7453 544.758 52.2639 544.758 54.104H545.758C545.758 52.6161 546.404 51.3827 547.763 50.3781L547.169 49.5739ZM544.758 54.104C544.758 55.6616 545.369 56.9551 546.572 57.946L547.208 57.174C546.235 56.3729 545.758 55.3624 545.758 54.104H544.758ZM546.583 57.9547C547.838 58.9309 549.392 59.404 551.21 59.404V58.404C549.572 58.404 548.246 57.9811 547.197 57.1653L546.583 57.9547ZM551.21 59.404C553.674 59.404 555.915 58.7363 557.919 57.4L557.365 56.568C555.529 57.7917 553.482 58.404 551.21 58.404V59.404ZM585.639 71.96H585.139V72.4656L585.644 72.46L585.639 71.96ZM585.639 55.832L585.622 55.3323L585.139 55.3484V55.832H585.639ZM590.535 54.392L590.812 54.808L590.819 54.8036L590.825 54.7989L590.535 54.392ZM593.703 49.112L593.224 48.9683L593.703 49.112ZM595.143 37.88L594.643 37.8579L594.643 37.8605L595.143 37.88ZM595.911 20.504V20.004H595.432L595.411 20.4819L595.911 20.504ZM638.055 20.504H638.555V20.004H638.055V20.504ZM638.055 71V71.5H638.555V71H638.055ZM619.815 71H619.315V71.5H619.815V71ZM619.815 36.344H620.315V35.844H619.815V36.344ZM612.039 36.344V35.844H611.566L611.54 36.3163L612.039 36.344ZM611.847 39.8L611.348 39.7723L611.347 39.7731L611.847 39.8ZM608.295 59.288L608.756 59.4803L608.757 59.4781L608.295 59.288ZM599.847 69.08L600.07 69.5273L600.076 69.5241L599.847 69.08ZM586.139 71.96V55.832H585.139V71.96H586.139ZM585.655 56.3317C587.651 56.2652 589.377 55.7647 590.812 54.808L590.257 53.976C589.004 54.8113 587.467 55.2708 585.622 55.3323L585.655 56.3317ZM590.825 54.7989C592.3 53.7454 593.4 51.8611 594.182 49.2557L593.224 48.9683C592.469 51.4829 591.457 53.1186 590.244 53.9851L590.825 54.7989ZM594.182 49.2557C594.968 46.6347 595.45 42.8405 595.642 37.8995L594.643 37.8605C594.452 42.7755 593.974 46.4693 593.224 48.9683L594.182 49.2557ZM595.642 37.9021L596.41 20.5261L595.411 20.4819L594.643 37.8579L595.642 37.9021ZM595.911 21.004H638.055V20.004H595.911V21.004ZM637.555 20.504V71H638.555V20.504H637.555ZM638.055 70.5H619.815V71.5H638.055V70.5ZM620.315 71V36.344H619.315V71H620.315ZM619.815 35.844H612.039V36.844H619.815V35.844ZM611.54 36.3163L611.348 39.7723L612.346 39.8277L612.538 36.3717L611.54 36.3163ZM611.347 39.7731C610.901 48.0685 609.722 54.5007 607.832 59.0979L608.757 59.4781C610.708 54.7313 611.897 48.1715 612.346 39.8269L611.347 39.7731ZM607.833 59.0957C605.949 63.6172 603.205 66.78 599.617 68.6359L600.076 69.5241C603.912 67.54 606.8 64.1748 608.756 59.4803L607.833 59.0957ZM599.623 68.6328C596 70.4444 591.345 71.3966 585.633 71.46L585.644 72.46C591.452 72.3954 596.27 71.4276 600.07 69.5272L599.623 68.6328ZM647.675 71H647.175V71.5H647.675V71ZM647.675 20.504V20.004H647.175V20.504H647.675ZM665.915 20.504H666.415V20.004H665.915V20.504ZM665.915 46.712H665.415V48.4967L666.342 46.9718L665.915 46.712ZM681.851 20.504V20.004H681.57L681.424 20.2442L681.851 20.504ZM698.459 20.504H698.959V20.004H698.459V20.504ZM698.459 71V71.5H698.959V71H698.459ZM680.219 71H679.719V71.5H680.219V71ZM680.219 45.656H680.719V43.9126L679.795 45.391L680.219 45.656ZM664.379 71V71.5H664.656L664.803 71.265L664.379 71ZM648.175 71V20.504H647.175V71H648.175ZM647.675 21.004H665.915V20.004H647.675V21.004ZM665.415 20.504V46.712H666.415V20.504H665.415ZM666.342 46.9718L682.278 20.7638L681.424 20.2442L665.488 46.4522L666.342 46.9718ZM681.851 21.004H698.459V20.004H681.851V21.004ZM697.959 20.504V71H698.959V20.504H697.959ZM698.459 70.5H680.219V71.5H698.459V70.5ZM680.719 71V45.656H679.719V71H680.719ZM679.795 45.391L663.955 70.735L664.803 71.265L680.643 45.921L679.795 45.391ZM664.379 70.5H647.675V71.5H664.379V70.5Z"  fill="#000"/>
</g>
<path d="M13.4 181.312L13.1398 181.739L13.1477 181.744L13.4 181.312ZM3.992 171.616L3.55059 171.851L3.55359 171.856L3.992 171.616ZM3.992 145.888L3.55198 145.651L3.55063 145.653L3.992 145.888ZM13.4 136.192L13.1476 135.76L13.1447 135.762L13.4 136.192ZM43.928 136.384L43.666 136.81L43.928 136.384ZM53.24 146.272L53.3849 146.751L53.9561 146.578L53.6858 146.046L53.24 146.272ZM35.48 151.648L35.0689 151.933L35.2762 152.232L35.6249 152.127L35.48 151.648ZM35.48 165.856L35.6249 165.377L35.2762 165.272L35.0689 165.571L35.48 165.856ZM53.24 171.232L53.6858 171.458L53.9561 170.926L53.3849 170.753L53.24 171.232ZM43.928 181.12L43.666 180.694L43.928 181.12ZM28.568 184.46C22.684 184.46 17.7197 183.258 13.6523 180.88L13.1477 181.744C17.4003 184.23 22.548 185.46 28.568 185.46V184.46ZM13.6602 180.885C9.63425 178.432 6.5618 175.262 4.43041 171.376L3.55359 171.856C5.7742 175.906 8.97375 179.2 13.1398 181.739L13.6602 180.885ZM4.43337 171.381C2.36086 167.487 1.324 163.28 1.324 158.752H0.324C0.324 163.44 1.39914 167.809 3.55063 171.851L4.43337 171.381ZM1.324 158.752C1.324 154.224 2.36086 150.017 4.43337 146.123L3.55063 145.653C1.39914 149.695 0.324 154.064 0.324 158.752H1.324ZM4.43201 146.125C6.56325 142.176 9.63391 139.01 13.6553 136.622L13.1447 135.762C8.97409 138.238 5.77276 141.536 3.55199 145.651L4.43201 146.125ZM13.6523 136.624C17.7197 134.246 22.684 133.044 28.568 133.044V132.044C22.548 132.044 17.4003 133.274 13.1477 135.76L13.6523 136.624ZM28.568 133.044C34.578 133.044 39.602 134.309 43.666 136.81L44.1901 135.958C39.934 133.339 34.718 132.044 28.568 132.044V133.044ZM43.666 136.81C47.754 139.326 50.7913 142.555 52.7942 146.498L53.6858 146.046C51.5927 141.925 48.422 138.562 44.1901 135.958L43.666 136.81ZM53.0951 145.793L35.3351 151.169L35.6249 152.127L53.3849 146.751L53.0951 145.793ZM35.8911 151.363C34.0732 148.738 31.5861 147.404 28.472 147.404V148.404C31.2459 148.404 33.4308 149.566 35.0689 151.933L35.8911 151.363ZM28.472 147.404C25.8287 147.404 23.5834 148.428 21.7644 150.45L22.5076 151.118C24.1446 149.3 26.1233 148.404 28.472 148.404V147.404ZM21.7644 150.45C19.9306 152.487 19.044 155.276 19.044 158.752H20.044C20.044 155.444 20.8854 152.921 22.5076 151.118L21.7644 150.45ZM19.044 158.752C19.044 162.228 19.9306 165.017 21.7644 167.054L22.5076 166.386C20.8854 164.583 20.044 162.06 20.044 158.752H19.044ZM21.7644 167.054C23.5834 169.076 25.8287 170.1 28.472 170.1V169.1C26.1233 169.1 24.1446 168.204 22.5076 166.386L21.7644 167.054ZM28.472 170.1C31.5861 170.1 34.0732 168.766 35.8911 166.141L35.0689 165.571C33.4308 167.938 31.2459 169.1 28.472 169.1V170.1ZM35.3351 166.335L53.0951 171.711L53.3849 170.753L35.6249 165.377L35.3351 166.335ZM52.7942 171.006C50.7913 174.949 47.754 178.178 43.666 180.694L44.1901 181.546C48.422 178.942 51.5927 175.579 53.6858 171.458L52.7942 171.006ZM43.666 180.694C39.602 183.195 34.578 184.46 28.568 184.46V185.46C34.718 185.46 39.934 184.165 44.1901 181.546L43.666 180.694ZM59.2062 184H58.7062V184.5H59.2062V184ZM59.2062 133.504V133.004H58.7062V133.504H59.2062ZM99.3343 135.232L99.1155 135.682L99.1255 135.686L99.3343 135.232ZM104.422 139.648L103.984 139.89L103.989 139.899L103.995 139.907L104.422 139.648ZM104.134 153.088L103.71 152.823L103.704 152.833L104.134 153.088ZM98.1823 157.984L97.9802 157.527L96.7105 158.088L98.0463 158.465L98.1823 157.984ZM105.478 162.016L105.131 162.375L105.478 162.016ZM102.886 181.024L102.647 180.585L102.886 181.024ZM76.4863 152.992H75.9863V153.492H76.4863V152.992ZM76.4863 145.6V145.1H75.9863V145.6H76.4863ZM76.4863 171.904H75.9863V172.404H76.4863V171.904ZM89.6383 170.848L89.3004 170.479L89.6383 170.848ZM89.6383 165.088L89.3004 165.457L89.3091 165.465L89.3182 165.472L89.6383 165.088ZM76.4863 164.032V163.532H75.9863V164.032H76.4863ZM59.7062 184V133.504H58.7062V184H59.7062ZM59.2062 134.004H89.7343V133.004H59.2062V134.004ZM89.7343 134.004C93.727 134.004 96.8423 134.576 99.1155 135.682L99.553 134.782C97.0902 133.584 93.8055 133.004 89.7343 133.004V134.004ZM99.1255 135.686C101.419 136.74 103.023 138.147 103.984 139.89L104.86 139.406C103.774 137.437 101.985 135.9 99.543 134.778L99.1255 135.686ZM103.995 139.907C105.034 141.618 105.554 143.512 105.554 145.6H106.554C106.554 143.336 105.987 141.262 104.85 139.389L103.995 139.907ZM105.554 145.6C105.554 148.471 104.931 150.87 103.71 152.823L104.558 153.353C105.898 151.21 106.554 148.617 106.554 145.6H105.554ZM103.704 152.833C102.554 154.77 100.662 156.342 97.9802 157.527L98.3843 158.441C101.206 157.194 103.283 155.502 104.564 153.343L103.704 152.833ZM98.0463 158.465C100.922 159.278 103.278 160.585 105.131 162.375L105.826 161.657C103.838 159.735 101.33 158.354 98.3182 157.503L98.0463 158.465ZM105.131 162.375C106.925 164.11 107.858 166.651 107.858 170.08H108.858C108.858 166.469 107.871 163.634 105.826 161.657L105.131 162.375ZM107.858 170.08C107.858 175.269 106.088 178.714 102.647 180.585L103.125 181.463C106.981 179.366 108.858 175.515 108.858 170.08H107.858ZM102.647 180.585C99.1046 182.512 94.0169 183.5 87.3343 183.5V184.5C94.0916 184.5 99.3719 183.504 103.125 181.463L102.647 180.585ZM87.3343 183.5H59.2062V184.5H87.3343V183.5ZM76.4863 153.492H85.2223V152.492H76.4863V153.492ZM85.2223 153.492C86.5506 153.492 87.6379 153.151 88.3883 152.381C89.1363 151.614 89.4662 150.506 89.4662 149.152H88.4662C88.4662 150.358 88.1722 151.17 87.6722 151.683C87.1746 152.193 86.3899 152.492 85.2223 152.492V153.492ZM89.4662 149.152C89.4662 147.884 89.1308 146.843 88.3744 146.125C87.6229 145.412 86.5409 145.1 85.2223 145.1V146.1C86.3996 146.1 87.1896 146.38 87.6861 146.851C88.1777 147.317 88.4662 148.052 88.4662 149.152H89.4662ZM85.2223 145.1H76.4863V146.1H85.2223V145.1ZM75.9863 145.6V152.992H76.9863V145.6H75.9863ZM76.4863 172.404H86.7583V171.404H76.4863V172.404ZM86.7583 172.404C88.021 172.404 89.1059 172.014 89.9761 171.217L89.3004 170.479C88.6346 171.09 87.7995 171.404 86.7583 171.404V172.404ZM89.9761 171.217C90.8649 170.402 91.2903 169.299 91.2903 167.968H90.2903C90.2903 169.069 89.9476 169.886 89.3004 170.479L89.9761 171.217ZM91.2903 167.968C91.2903 166.585 90.8709 165.464 89.9583 164.704L89.3182 165.472C89.9416 165.992 90.2903 166.791 90.2903 167.968H91.2903ZM89.9761 164.719C89.1059 163.922 88.021 163.532 86.7583 163.532V164.532C87.7995 164.532 88.6346 164.846 89.3004 165.457L89.9761 164.719ZM86.7583 163.532H76.4863V164.532H86.7583V163.532ZM75.9863 164.032V171.904H76.9863V164.032H75.9863ZM125.617 181.312L125.356 181.739L125.361 181.742L125.617 181.312ZM116.304 145.792L115.863 145.557L116.304 145.792ZM125.617 136.192L125.361 135.762L125.617 136.192ZM155.952 136.192L156.208 135.762L155.952 136.192ZM165.264 145.792L165.706 145.557L165.264 145.792ZM155.952 181.312L156.208 181.742L156.213 181.739L155.952 181.312ZM134.353 166.72L133.969 167.041L133.975 167.048L133.981 167.054L134.353 166.72ZM147.217 166.72L147.594 167.048L147.6 167.041L147.217 166.72ZM134.353 150.784L133.981 150.449L133.975 150.457L134.353 150.784ZM140.785 184.46C134.835 184.46 129.873 183.258 125.872 180.882L125.361 181.742C129.552 184.23 134.702 185.46 140.785 185.46V184.46ZM125.877 180.885C121.852 178.432 118.813 175.265 116.746 171.381L115.863 171.851C118.02 175.903 121.189 179.2 125.356 181.739L125.877 180.885ZM116.746 171.381C114.673 167.487 113.636 163.28 113.636 158.752H112.636C112.636 163.44 113.712 167.809 115.863 171.851L116.746 171.381ZM113.636 158.752C113.636 154.159 114.674 149.92 116.746 146.027L115.863 145.557C113.711 149.6 112.636 154.001 112.636 158.752H113.636ZM116.746 146.027C118.812 142.145 121.85 139.01 125.872 136.622L125.361 135.762C121.191 138.238 118.021 141.503 115.863 145.557L116.746 146.027ZM125.872 136.622C129.873 134.246 134.835 133.044 140.785 133.044V132.044C134.702 132.044 129.552 133.274 125.361 135.762L125.872 136.622ZM140.785 133.044C146.734 133.044 151.696 134.246 155.697 136.622L156.208 135.762C152.017 133.274 146.867 132.044 140.785 132.044V133.044ZM155.697 136.622C159.719 139.01 162.757 142.145 164.823 146.027L165.706 145.557C163.548 141.503 160.378 138.238 156.208 135.762L155.697 136.622ZM164.823 146.027C166.895 149.92 167.932 154.159 167.932 158.752H168.932C168.932 154.001 167.858 149.6 165.706 145.557L164.823 146.027ZM167.932 158.752C167.932 163.28 166.896 167.487 164.823 171.381L165.706 171.851C167.857 167.809 168.932 163.44 168.932 158.752H167.932ZM164.823 171.381C162.756 175.265 159.717 178.432 155.692 180.885L156.213 181.739C160.38 179.2 163.549 175.903 165.706 171.851L164.823 171.381ZM155.697 180.882C151.696 183.258 146.734 184.46 140.785 184.46V185.46C146.867 185.46 152.017 184.23 156.208 181.742L155.697 180.882ZM131.357 158.752C131.357 162.163 132.21 164.944 133.969 167.041L134.736 166.399C133.167 164.528 132.357 161.997 132.357 158.752H131.357ZM133.981 167.054C135.803 169.079 138.081 170.1 140.785 170.1V169.1C138.368 169.1 136.358 168.201 134.724 166.386L133.981 167.054ZM140.785 170.1C143.548 170.1 145.832 169.081 147.594 167.047L146.839 166.393C145.273 168.199 143.269 169.1 140.785 169.1V170.1ZM147.6 167.041C149.359 164.944 150.212 162.163 150.212 158.752H149.212C149.212 161.997 148.402 164.528 146.833 166.399L147.6 167.041ZM150.212 158.752C150.212 155.28 149.36 152.494 147.594 150.457L146.839 151.111C148.401 152.914 149.212 155.44 149.212 158.752H150.212ZM147.594 150.457C145.832 148.423 143.548 147.404 140.785 147.404V148.404C143.269 148.404 145.273 149.305 146.839 151.111L147.594 150.457ZM140.785 147.404C138.081 147.404 135.803 148.425 133.981 150.45L134.724 151.118C136.358 149.303 138.368 148.404 140.785 148.404V147.404ZM133.975 150.457C132.209 152.494 131.357 155.28 131.357 158.752H132.357C132.357 155.44 133.168 152.914 134.73 151.111L133.975 150.457ZM184.585 181.312L184.325 181.739L184.33 181.742L184.585 181.312ZM175.273 145.792L174.832 145.557L175.273 145.792ZM184.585 136.192L184.33 135.762L184.585 136.192ZM223.465 144.544L223.701 144.985L224.156 144.741L223.898 144.294L223.465 144.544ZM209.833 151.84L209.407 152.102L209.654 152.503L210.069 152.281L209.833 151.84ZM206.185 148.192L205.931 148.622L205.938 148.627L205.946 148.631L206.185 148.192ZM194.857 148.576L195.119 149.002L195.124 148.999L194.857 148.576ZM191.017 152.896L190.567 152.679L190.221 153.396H191.017V152.896ZM203.881 152.896H204.381V152.396H203.881V152.896ZM203.881 164.416V164.916H204.381V164.416H203.881ZM190.921 164.416V163.916H190.157L190.463 164.616L190.921 164.416ZM205.993 169.216L206.28 169.626L206.284 169.623L205.993 169.216ZM209.545 165.376L209.756 164.922L209.359 164.739L209.124 165.106L209.545 165.376ZM224.041 172.096L224.477 172.342L224.743 171.87L224.252 171.642L224.041 172.096ZM214.441 181.504L214.199 181.067L214.196 181.068L214.441 181.504ZM199.753 184.46C193.804 184.46 188.841 183.258 184.841 180.882L184.33 181.742C188.521 184.23 193.671 185.46 199.753 185.46V184.46ZM184.845 180.885C180.821 178.432 177.782 175.265 175.715 171.381L174.832 171.851C176.989 175.903 180.158 179.2 184.325 181.739L184.845 180.885ZM175.715 171.381C173.642 167.487 172.605 163.28 172.605 158.752H171.605C171.605 163.44 172.68 167.809 174.832 171.851L175.715 171.381ZM172.605 158.752C172.605 154.159 173.643 149.92 175.715 146.027L174.832 145.557C172.68 149.6 171.605 154.001 171.605 158.752H172.605ZM175.715 146.027C177.781 142.145 180.818 139.01 184.841 136.622L184.33 135.762C180.16 138.238 176.989 141.503 174.832 145.557L175.715 146.027ZM184.841 136.622C188.841 134.246 193.804 133.044 199.753 133.044V132.044C193.671 132.044 188.521 133.274 184.33 135.762L184.841 136.622ZM199.753 133.044C205.128 133.044 209.815 134.087 213.828 136.156L214.286 135.268C210.108 133.113 205.259 132.044 199.753 132.044V133.044ZM213.828 136.156C217.844 138.227 220.907 141.106 223.032 144.794L223.898 144.294C221.672 140.43 218.463 137.421 214.286 135.268L213.828 136.156ZM223.229 144.103L209.597 151.399L210.069 152.281L223.701 144.985L223.229 144.103ZM210.259 151.578C209.199 149.856 207.924 148.571 206.425 147.753L205.946 148.631C207.262 149.349 208.419 150.496 209.407 152.102L210.259 151.578ZM206.44 147.762C204.931 146.87 203.011 146.444 200.713 146.444V147.444C202.896 147.444 204.623 147.85 205.931 148.622L206.44 147.762ZM200.713 146.444C198.449 146.444 196.404 147.011 194.591 148.153L195.124 148.999C196.767 147.965 198.625 147.444 200.713 147.444V146.444ZM194.595 148.15C192.845 149.227 191.502 150.742 190.567 152.679L191.468 153.113C192.324 151.338 193.541 149.973 195.119 149.002L194.595 148.15ZM191.017 153.396H203.881V152.396H191.017V153.396ZM203.381 152.896V164.416H204.381V152.896H203.381ZM203.881 163.916H190.921V164.916H203.881V163.916ZM190.463 164.616C191.393 166.741 192.717 168.362 194.448 169.448C196.176 170.532 198.273 171.06 200.713 171.06V170.06C198.418 170.06 196.515 169.564 194.979 168.6C193.445 167.638 192.242 166.187 191.379 164.216L190.463 164.616ZM200.713 171.06C203.013 171.06 204.887 170.601 206.28 169.626L205.707 168.806C204.54 169.623 202.893 170.06 200.713 170.06V171.06ZM206.284 169.623C207.687 168.621 208.913 167.291 209.966 165.646L209.124 165.106C208.129 166.661 206.988 167.891 205.703 168.809L206.284 169.623ZM209.335 165.83L223.831 172.55L224.252 171.642L209.756 164.922L209.335 165.83ZM223.606 171.85C221.413 175.734 218.282 178.805 214.199 181.067L214.684 181.941C218.921 179.595 222.189 176.394 224.477 172.342L223.606 171.85ZM214.196 181.068C210.189 183.322 205.382 184.46 199.753 184.46V185.46C205.517 185.46 210.501 184.294 214.686 181.94L214.196 181.068ZM231.983 184H231.483V184.5H231.983V184ZM231.983 133.504V133.004H231.483V133.504H231.983ZM250.223 133.504H250.723V133.004H250.223V133.504ZM250.223 184V184.5H250.723V184H250.223ZM222.575 128.224H222.075V128.724H222.575V128.224ZM222.575 114.784V114.284H222.075V114.784H222.575ZM237.551 114.784H238.051V114.284H237.551V114.784ZM237.551 128.224V128.724H238.051V128.224H237.551ZM244.655 128.224H244.155V128.724H244.655V128.224ZM244.655 114.784V114.284H244.155V114.784H244.655ZM259.631 114.784H260.131V114.284H259.631V114.784ZM259.631 128.224V128.724H260.131V128.224H259.631ZM232.483 184V133.504H231.483V184H232.483ZM231.983 134.004H250.223V133.004H231.983V134.004ZM249.723 133.504V184H250.723V133.504H249.723ZM250.223 183.5H231.983V184.5H250.223V183.5ZM223.075 128.224V114.784H222.075V128.224H223.075ZM222.575 115.284H237.551V114.284H222.575V115.284ZM237.051 114.784V128.224H238.051V114.784H237.051ZM237.551 127.724H222.575V128.724H237.551V127.724ZM245.155 128.224V114.784H244.155V128.224H245.155ZM244.655 115.284H259.631V114.284H244.655V115.284ZM259.131 114.784V128.224H260.131V114.784H259.131ZM259.631 127.724H244.655V128.724H259.631V127.724ZM290.806 181.312L290.546 181.739L290.554 181.744L290.806 181.312ZM281.398 171.616L280.957 171.851L280.96 171.856L281.398 171.616ZM281.398 145.888L280.958 145.651L280.957 145.653L281.398 145.888ZM290.806 136.192L290.554 135.76L290.551 135.762L290.806 136.192ZM321.334 136.384L321.072 136.81L321.334 136.384ZM330.646 146.272L330.791 146.751L331.362 146.578L331.092 146.046L330.646 146.272ZM312.886 151.648L312.475 151.933L312.682 152.232L313.031 152.127L312.886 151.648ZM312.886 165.856L313.031 165.377L312.682 165.272L312.475 165.571L312.886 165.856ZM330.646 171.232L331.092 171.458L331.362 170.926L330.791 170.753L330.646 171.232ZM321.334 181.12L321.072 180.694L321.334 181.12ZM305.974 184.46C300.09 184.46 295.126 183.258 291.059 180.88L290.554 181.744C294.807 184.23 299.954 185.46 305.974 185.46V184.46ZM291.066 180.885C287.04 178.432 283.968 175.262 281.837 171.376L280.96 171.856C283.18 175.906 286.38 179.2 290.546 181.739L291.066 180.885ZM281.84 171.381C279.767 167.487 278.73 163.28 278.73 158.752H277.73C277.73 163.44 278.805 167.809 280.957 171.851L281.84 171.381ZM278.73 158.752C278.73 154.224 279.767 150.017 281.84 146.123L280.957 145.653C278.805 149.695 277.73 154.064 277.73 158.752H278.73ZM281.838 146.125C283.969 142.176 287.04 139.01 291.062 136.622L290.551 135.762C286.38 138.238 283.179 141.536 280.958 145.651L281.838 146.125ZM291.059 136.624C295.126 134.246 300.09 133.044 305.974 133.044V132.044C299.954 132.044 294.807 133.274 290.554 135.76L291.059 136.624ZM305.974 133.044C311.984 133.044 317.008 134.309 321.072 136.81L321.596 135.958C317.34 133.339 312.124 132.044 305.974 132.044V133.044ZM321.072 136.81C325.16 139.326 328.198 142.555 330.2 146.498L331.092 146.046C328.999 141.925 325.828 138.562 321.596 135.958L321.072 136.81ZM330.501 145.793L312.741 151.169L313.031 152.127L330.791 146.751L330.501 145.793ZM313.297 151.363C311.479 148.738 308.992 147.404 305.878 147.404V148.404C308.652 148.404 310.837 149.566 312.475 151.933L313.297 151.363ZM305.878 147.404C303.235 147.404 300.99 148.428 299.171 150.45L299.914 151.118C301.551 149.3 303.53 148.404 305.878 148.404V147.404ZM299.171 150.45C297.337 152.487 296.45 155.276 296.45 158.752H297.45C297.45 155.444 298.292 152.921 299.914 151.118L299.171 150.45ZM296.45 158.752C296.45 162.228 297.337 165.017 299.171 167.054L299.914 166.386C298.292 164.583 297.45 162.06 297.45 158.752H296.45ZM299.171 167.054C300.99 169.076 303.235 170.1 305.878 170.1V169.1C303.53 169.1 301.551 168.204 299.914 166.386L299.171 167.054ZM305.878 170.1C308.992 170.1 311.479 168.766 313.297 166.141L312.475 165.571C310.837 167.938 308.652 169.1 305.878 169.1V170.1ZM312.741 166.335L330.501 171.711L330.791 170.753L313.031 165.377L312.741 166.335ZM330.2 171.006C328.198 174.949 325.16 178.178 321.072 180.694L321.596 181.546C325.828 178.942 328.999 175.579 331.092 171.458L330.2 171.006ZM321.072 180.694C317.008 183.195 311.984 184.46 305.974 184.46V185.46C312.124 185.46 317.34 184.165 321.596 181.546L321.072 180.694ZM336.612 184H336.112V184.5H336.612V184ZM336.612 133.504V133.004H336.112V133.504H336.612ZM386.052 133.504H386.552V133.004H386.052V133.504ZM386.052 184V184.5H386.552V184H386.052ZM367.812 184H367.312V184.5H367.812V184ZM367.812 149.344H368.312V148.844H367.812V149.344ZM354.853 149.344V148.844H354.353V149.344H354.853ZM354.853 184V184.5H355.353V184H354.853ZM337.112 184V133.504H336.112V184H337.112ZM336.612 134.004H386.052V133.004H336.612V134.004ZM385.552 133.504V184H386.552V133.504H385.552ZM386.052 183.5H367.812V184.5H386.052V183.5ZM368.312 184V149.344H367.312V184H368.312ZM367.812 148.844H354.853V149.844H367.812V148.844ZM354.353 149.344V184H355.353V149.344H354.353ZM354.853 183.5H336.612V184.5H354.853V183.5ZM413.723 176.512L414.166 176.28L413.223 176.512H413.723ZM413.723 204.448V204.948H414.223V204.448H413.723ZM395.483 204.448H394.983V204.948H395.483V204.448ZM395.483 133.504V133.004H394.983V133.504H395.483ZM411.323 133.504H411.823V133.004H411.323V133.504ZM411.323 141.088H410.823V142.772L411.742 141.361L411.323 141.088ZM417.947 134.752L417.707 134.313L417.702 134.316L417.947 134.752ZM439.643 136L439.369 136.418L439.375 136.422L439.643 136ZM447.899 145.216L447.453 145.443L447.456 145.448L447.899 145.216ZM448.187 172.096L447.734 171.884L448.187 172.096ZM440.507 181.504L440.219 181.095L440.215 181.098L440.507 181.504ZM429.659 166.336L429.273 166.018L429.267 166.025L429.659 166.336ZM429.563 150.784L429.197 151.125L429.204 151.132L429.563 150.784ZM413.723 153.088L413.314 152.8L413.223 152.93V153.088H413.723ZM413.723 161.824H413.223V161.923L413.261 162.014L413.723 161.824ZM417.659 167.392L417.327 167.766L417.335 167.773L417.659 167.392ZM429.467 184.46C422.059 184.46 417.006 181.713 414.166 176.28L413.28 176.744C416.328 182.575 421.771 185.46 429.467 185.46V184.46ZM413.223 176.512V204.448H414.223V176.512H413.223ZM413.723 203.948H395.483V204.948H413.723V203.948ZM395.983 204.448V133.504H394.983V204.448H395.983ZM395.483 134.004H411.323V133.004H395.483V134.004ZM410.823 133.504V141.088H411.823V133.504H410.823ZM411.742 141.361C413.494 138.67 415.644 136.617 418.192 135.188L417.702 134.316C415.002 135.831 412.736 138.002 410.904 140.815L411.742 141.361ZM418.187 135.191C420.786 133.767 423.932 133.044 427.643 133.044V132.044C423.802 132.044 420.484 132.793 417.707 134.313L418.187 135.191ZM427.643 133.044C432.032 133.044 435.936 134.171 439.369 136.418L439.917 135.582C436.31 133.221 432.214 132.044 427.643 132.044V133.044ZM439.375 136.422C442.815 138.611 445.508 141.614 447.453 145.443L448.345 144.989C446.322 141.01 443.511 137.869 439.911 135.578L439.375 136.422ZM447.456 145.448C449.462 149.272 450.471 153.638 450.471 158.56H451.471C451.471 153.498 450.432 148.968 448.342 144.984L447.456 145.448ZM450.471 158.56C450.471 163.554 449.555 167.992 447.734 171.884L448.64 172.308C450.531 168.264 451.471 163.678 451.471 158.56H450.471ZM447.734 171.884C445.911 175.781 443.405 178.846 440.219 181.096L440.795 181.912C444.137 179.554 446.751 176.347 448.64 172.308L447.734 171.884ZM440.215 181.098C437.105 183.337 433.528 184.46 429.467 184.46V185.46C433.726 185.46 437.509 184.279 440.799 181.91L440.215 181.098ZM423.131 170.1C425.918 170.1 428.234 168.934 430.051 166.647L429.267 166.025C427.628 168.09 425.592 169.1 423.131 169.1V170.1ZM430.045 166.654C431.917 164.38 432.847 161.641 432.847 158.464H431.847C431.847 161.431 430.985 163.94 429.273 166.018L430.045 166.654ZM432.847 158.464C432.847 155.162 431.886 152.468 429.922 150.436L429.204 151.132C430.952 152.94 431.847 155.366 431.847 158.464H432.847ZM429.929 150.443C428.028 148.406 425.487 147.404 422.363 147.404V148.404C425.255 148.404 427.514 149.322 429.197 151.125L429.929 150.443ZM422.363 147.404C418.829 147.404 415.812 149.251 413.314 152.8L414.132 153.376C416.498 150.013 419.241 148.404 422.363 148.404V147.404ZM413.223 153.088V161.824H414.223V153.088H413.223ZM413.261 162.014C414.185 164.259 415.541 166.178 417.327 167.766L417.991 167.018C416.321 165.534 415.053 163.741 414.185 161.634L413.261 162.014ZM417.335 167.773C419.136 169.307 421.071 170.1 423.131 170.1V169.1C421.351 169.1 419.638 168.421 417.983 167.011L417.335 167.773ZM457.639 159.808L458.044 160.102L458.047 160.097L457.639 159.808ZM465.319 153.664L465.117 153.207L465.114 153.208L465.319 153.664ZM486.823 153.376L486.608 153.827L487.323 154.168V153.376H486.823ZM484.711 146.56L484.386 146.94L484.395 146.947L484.711 146.56ZM470.119 146.272L470.292 146.741L470.299 146.739L470.119 146.272ZM462.439 150.304L461.986 150.515L462.232 151.043L462.717 150.72L462.439 150.304ZM457.159 138.976L456.888 138.556L456.522 138.792L456.706 139.187L457.159 138.976ZM498.439 138.016L498.118 138.399L498.124 138.404L498.439 138.016ZM505.831 167.488L505.427 167.782L505.434 167.791L505.441 167.8L505.831 167.488ZM508.519 168.64H509.019V168.188L508.569 168.142L508.519 168.64ZM508.519 184L508.625 184.489L509.019 184.403V184H508.519ZM504.295 184.672L504.248 184.174L504.234 184.176L504.221 184.178L504.295 184.672ZM493.351 183.232L493.056 183.636L493.065 183.642L493.074 183.648L493.351 183.232ZM490.087 177.952L489.598 178.055L489.599 178.06L490.087 177.952ZM489.703 176.128L490.193 176.025L489.971 174.974L489.31 175.82L489.703 176.128ZM463.495 182.848L463.263 183.291L463.495 182.848ZM457.159 177.088L456.733 177.35L456.737 177.355L457.159 177.088ZM484.423 169.984L484.701 170.4L484.704 170.397L484.423 169.984ZM486.823 162.688H487.323V162.341L486.999 162.22L486.823 162.688ZM483.271 161.728L483.173 162.218L483.178 162.219L483.271 161.728ZM474.247 162.976L473.958 162.568L473.95 162.574L474.247 162.976ZM473.671 170.56L473.353 170.946L473.364 170.955L473.671 170.56ZM455.355 168.736C455.355 165.441 456.255 162.57 458.044 160.101L457.234 159.515C455.312 162.166 454.355 165.247 454.355 168.736H455.355ZM458.047 160.097C459.846 157.554 462.333 155.559 465.525 154.12L465.114 153.208C461.778 154.713 459.144 156.814 457.231 159.519L458.047 160.097ZM465.522 154.121C468.776 152.682 472.482 151.956 476.647 151.956V150.956C472.365 150.956 468.518 151.702 465.117 153.207L465.522 154.121ZM476.647 151.956C480.695 151.956 484.008 152.589 486.608 153.827L487.038 152.925C484.263 151.603 480.791 150.956 476.647 150.956V151.956ZM487.323 153.376V151.84H486.323V153.376H487.323ZM487.323 151.84C487.323 149.371 486.585 147.447 485.028 146.173L484.395 146.947C485.654 147.977 486.323 149.573 486.323 151.84H487.323ZM485.037 146.18C483.556 144.911 481.199 144.332 478.087 144.332V145.332C481.12 145.332 483.179 145.905 484.386 146.94L485.037 146.18ZM478.087 144.332C475.213 144.332 472.496 144.822 469.94 145.805L470.299 146.739C472.734 145.802 475.329 145.332 478.087 145.332V144.332ZM469.946 145.803C467.47 146.715 464.875 148.079 462.162 149.888L462.717 150.72C465.38 148.945 467.905 147.621 470.292 146.741L469.946 145.803ZM462.892 150.093L457.612 138.765L456.706 139.187L461.986 150.515L462.892 150.093ZM457.43 139.396C463.999 135.164 471.488 133.044 479.911 133.044V132.044C471.311 132.044 463.631 134.212 456.888 138.556L457.43 139.396ZM479.911 133.044C487.841 133.044 493.887 134.852 498.118 138.399L498.76 137.633C494.288 133.884 487.981 132.044 479.911 132.044V133.044ZM498.124 138.404C502.395 141.87 504.563 147.054 504.563 154.048H505.563C505.563 146.834 503.316 141.33 498.754 137.628L498.124 138.404ZM504.563 154.048V163.84H505.563V154.048H504.563ZM504.563 163.84C504.563 165.587 504.816 166.942 505.427 167.782L506.236 167.194C505.823 166.626 505.563 165.549 505.563 163.84H504.563ZM505.441 167.8C506.074 168.592 507.13 169.004 508.47 169.138L508.569 168.142C507.349 168.02 506.612 167.664 506.222 167.176L505.441 167.8ZM508.019 168.64V184H509.019V168.64H508.019ZM508.413 183.511C506.958 183.828 505.57 184.048 504.248 184.174L504.343 185.17C505.709 185.04 507.136 184.812 508.625 184.489L508.413 183.511ZM504.221 184.178C502.96 184.367 501.833 184.46 500.839 184.46V185.46C501.894 185.46 503.071 185.361 504.369 185.166L504.221 184.178ZM500.839 184.46C497.622 184.46 495.24 183.89 493.629 182.816L493.074 183.648C494.919 184.878 497.529 185.46 500.839 185.46V184.46ZM493.646 182.828C492.095 181.694 491.065 180.047 490.575 177.844L489.599 178.06C490.133 180.465 491.28 182.338 493.056 183.636L493.646 182.828ZM490.577 177.849L490.193 176.025L489.214 176.231L489.598 178.055L490.577 177.849ZM489.31 175.82C484.786 181.6 479.198 184.46 472.519 184.46V185.46C479.537 185.46 485.404 182.432 490.097 176.436L489.31 175.82ZM472.519 184.46C469.264 184.46 466.337 183.772 463.727 182.405L463.263 183.291C466.03 184.74 469.118 185.46 472.519 185.46V184.46ZM463.727 182.405C461.113 181.036 459.068 179.174 457.582 176.821L456.737 177.355C458.322 179.866 460.502 181.844 463.263 183.291L463.727 182.405ZM457.585 176.826C456.1 174.413 455.355 171.72 455.355 168.736H454.355C454.355 171.896 455.147 174.771 456.733 177.35L457.585 176.826ZM484.704 170.397C486.368 169.266 487.323 167.95 487.323 166.432H486.323C486.323 167.474 485.679 168.526 484.142 169.571L484.704 170.397ZM487.323 166.432V162.688H486.323V166.432H487.323ZM486.999 162.22C485.943 161.824 484.73 161.497 483.365 161.237L483.178 162.219C484.5 162.471 485.656 162.784 486.648 163.156L486.999 162.22ZM483.369 161.238C482.065 160.977 480.88 160.844 479.815 160.844V161.844C480.799 161.844 481.917 161.967 483.173 162.218L483.369 161.238ZM479.815 160.844C477.552 160.844 475.591 161.411 473.958 162.568L474.536 163.384C475.975 162.365 477.726 161.844 479.815 161.844V160.844ZM473.95 162.574C472.365 163.745 471.539 165.264 471.539 167.104H472.539C472.539 165.616 473.185 164.383 474.544 163.378L473.95 162.574ZM471.539 167.104C471.539 168.662 472.15 169.955 473.353 170.946L473.989 170.174C473.016 169.373 472.539 168.362 472.539 167.104H471.539ZM473.364 170.955C474.619 171.931 476.173 172.404 477.991 172.404V171.404C476.353 171.404 475.027 170.981 473.978 170.165L473.364 170.955ZM477.991 172.404C480.455 172.404 482.696 171.736 484.701 170.4L484.146 169.568C482.31 170.792 480.263 171.404 477.991 171.404V172.404ZM515.3 184H514.8V184.5H515.3V184ZM515.3 133.504V133.004H514.8V133.504H515.3ZM555.428 135.232L555.209 135.682L555.219 135.686L555.428 135.232ZM560.516 139.648L560.078 139.89L560.083 139.899L560.089 139.907L560.516 139.648ZM560.228 153.088L559.804 152.823L559.798 152.833L560.228 153.088ZM554.276 157.984L554.074 157.527L552.804 158.088L554.14 158.465L554.276 157.984ZM561.572 162.016L561.224 162.375L561.572 162.016ZM558.98 181.024L558.741 180.585L558.98 181.024ZM532.58 152.992H532.08V153.492H532.58V152.992ZM532.58 145.6V145.1H532.08V145.6H532.58ZM532.58 171.904H532.08V172.404H532.58V171.904ZM545.732 170.848L545.394 170.479L545.732 170.848ZM545.732 165.088L545.394 165.457L545.403 165.465L545.412 165.472L545.732 165.088ZM532.58 164.032V163.532H532.08V164.032H532.58ZM515.8 184V133.504H514.8V184H515.8ZM515.3 134.004H545.828V133.004H515.3V134.004ZM545.828 134.004C549.821 134.004 552.936 134.576 555.209 135.682L555.647 134.782C553.184 133.584 549.899 133.004 545.828 133.004V134.004ZM555.219 135.686C557.513 136.74 559.117 138.147 560.078 139.89L560.954 139.406C559.867 137.437 558.079 135.9 555.637 134.778L555.219 135.686ZM560.089 139.907C561.127 141.618 561.648 143.512 561.648 145.6H562.648C562.648 143.336 562.081 141.262 560.943 139.389L560.089 139.907ZM561.648 145.6C561.648 148.471 561.024 150.87 559.804 152.823L560.652 153.353C561.992 151.21 562.648 148.617 562.648 145.6H561.648ZM559.798 152.833C558.648 154.77 556.756 156.342 554.074 157.527L554.478 158.441C557.3 157.194 559.376 155.502 560.658 153.343L559.798 152.833ZM554.14 158.465C557.016 159.278 559.372 160.585 561.224 162.375L561.919 161.657C559.932 159.735 557.424 158.354 554.412 157.503L554.14 158.465ZM561.224 162.375C563.019 164.11 563.952 166.651 563.952 170.08H564.952C564.952 166.469 563.965 163.634 561.919 161.657L561.224 162.375ZM563.952 170.08C563.952 175.269 562.182 178.714 558.741 180.585L559.219 181.463C563.074 179.366 564.952 175.515 564.952 170.08H563.952ZM558.741 180.585C555.198 182.512 550.111 183.5 543.428 183.5V184.5C550.185 184.5 555.466 183.504 559.219 181.463L558.741 180.585ZM543.428 183.5H515.3V184.5H543.428V183.5ZM532.58 153.492H541.316V152.492H532.58V153.492ZM541.316 153.492C542.644 153.492 543.732 153.151 544.482 152.381C545.23 151.614 545.56 150.506 545.56 149.152H544.56C544.56 150.358 544.266 151.17 543.766 151.683C543.268 152.193 542.484 152.492 541.316 152.492V153.492ZM545.56 149.152C545.56 147.884 545.225 146.843 544.468 146.125C543.717 145.412 542.635 145.1 541.316 145.1V146.1C542.493 146.1 543.283 146.38 543.78 146.851C544.271 147.317 544.56 148.052 544.56 149.152H545.56ZM541.316 145.1H532.58V146.1H541.316V145.1ZM532.08 145.6V152.992H533.08V145.6H532.08ZM532.58 172.404H542.852V171.404H532.58V172.404ZM542.852 172.404C544.115 172.404 545.2 172.014 546.07 171.217L545.394 170.479C544.728 171.09 543.893 171.404 542.852 171.404V172.404ZM546.07 171.217C546.959 170.402 547.384 169.299 547.384 167.968H546.384C546.384 169.069 546.041 169.886 545.394 170.479L546.07 171.217ZM547.384 167.968C547.384 166.585 546.965 165.464 546.052 164.704L545.412 165.472C546.035 165.992 546.384 166.791 546.384 167.968H547.384ZM546.07 164.719C545.2 163.922 544.115 163.532 542.852 163.532V164.532C543.893 164.532 544.728 164.846 545.394 165.457L546.07 164.719ZM542.852 163.532H532.58V164.532H542.852V163.532ZM532.08 164.032V171.904H533.08V164.032H532.08ZM572.206 184H571.706V184.5H572.206V184ZM572.206 133.504V133.004H571.706V133.504H572.206ZM590.446 133.504H590.946V133.004H590.446V133.504ZM590.446 159.712H589.946V161.497L590.873 159.972L590.446 159.712ZM606.382 133.504V133.004H606.101L605.955 133.244L606.382 133.504ZM622.99 133.504H623.49V133.004H622.99V133.504ZM622.99 184V184.5H623.49V184H622.99ZM604.75 184H604.25V184.5H604.75V184ZM604.75 158.656H605.25V156.913L604.326 158.391L604.75 158.656ZM588.91 184V184.5H589.187L589.334 184.265L588.91 184ZM572.706 184V133.504H571.706V184H572.706ZM572.206 134.004H590.446V133.004H572.206V134.004ZM589.946 133.504V159.712H590.946V133.504H589.946ZM590.873 159.972L606.809 133.764L605.955 133.244L590.019 159.452L590.873 159.972ZM606.382 134.004H622.99V133.004H606.382V134.004ZM622.49 133.504V184H623.49V133.504H622.49ZM622.99 183.5H604.75V184.5H622.99V183.5ZM605.25 184V158.656H604.25V184H605.25ZM604.326 158.391L588.486 183.735L589.334 184.265L605.174 158.921L604.326 158.391ZM588.91 183.5H572.206V184.5H588.91V183.5Z" fill="#916C58"/>
</svg>
