<svg width="49" height="23" viewBox="0 0 49 23" fill="none" xmlns="http://www.w3.org/2000/svg">
<g opacity="0.55">
<path d="M7.54623 2.55571C7.54623 1.14403 6.3812 0 4.9436 0L2.60263 0C1.16503 0 0 1.14403 0 2.55571L0 6.77851C0 7.67476 0.239859 8.55725 0.697773 9.33421L4.14458 15.1981C4.32682 15.5086 4.42338 15.8619 4.42338 16.2198V20.4426C4.42338 20.6537 4.13212 20.8265 3.77233 20.8265C3.41255 20.8265 3.12129 20.6552 3.12129 20.4441L3.12129 15.6738H0L0 20.4441C0 21.8558 1.16503 22.9998 2.60263 22.9998H4.94515C6.38275 22.9998 7.54778 21.8558 7.54778 20.4441V16.2213C7.54778 15.3251 7.30793 14.4426 6.85001 13.6656L3.40164 7.80018C3.21941 7.4897 3.12285 7.1364 3.12285 6.77851L3.12285 2.55571C3.12285 2.34464 3.4141 2.17181 3.77389 2.17181C4.13368 2.17181 4.42494 2.34311 4.42494 2.55418V7.31381H7.54778V2.55571H7.54623Z" fill="white"/>
<path d="M20.7505 0L20.7505 22.9997H26.4493V20.8276H23.9315V12.5859H26.4493L26.4493 10.4138H23.9315V2.1721H26.4493V0L20.7505 0Z" fill="#916C58"/>
<path d="M36.6738 0L36.6738 22.9997H42.3726L42.3726 20.8276H39.8548V12.5859H42.3726V10.4138H39.8548V2.1721H42.3726V0L36.6738 0Z" fill="#916C58"/>
<path d="M17.3044 0.000732422L14.125 0.000732422L14.125 23.0005H19.8238L19.8238 20.8284H17.3044L17.3044 0.000732422Z" fill="#916C58"/>
<path d="M46.4817 20.8276V0L43.3008 0L43.3008 22.9997H48.9995L48.9995 20.8276H46.4817Z" fill="#916C58"/>
<path d="M31.5309 16.2571L30.0698 0L27.3774 0L29.8841 22.9997H33.1777L35.686 0L32.9921 0L31.5309 16.2571Z" fill="#916C58"/>
</g>
</svg>
