<svg width="178" height="84" viewBox="0 0 178 84" fill="none" xmlns="http://www.w3.org/2000/svg">
<path d="M27.2294 9.33519C27.2294 4.17877 23.0256 0 17.8382 0H9.3912C4.20384 0 0 4.17877 0 9.33519V24.7598C0 28.0335 0.865496 31.257 2.51781 34.095L14.9551 55.514C15.6127 56.648 15.9611 57.9385 15.9611 59.2458V74.6704C15.9611 75.4413 14.9101 76.0726 13.6119 76.0726C12.3137 76.0726 11.2627 75.4469 11.2627 74.676V57.2514H0V74.676C0 79.8324 4.20384 84.0112 9.3912 84.0112H17.8438C23.0312 84.0112 27.235 79.8324 27.235 74.676V59.2514C27.235 55.9776 26.3695 52.7542 24.7172 49.9162L12.2743 28.4916C11.6168 27.3575 11.2683 26.067 11.2683 24.7598V9.33519C11.2683 8.56425 12.3193 7.93296 13.6175 7.93296C14.9158 7.93296 15.9667 8.55866 15.9667 9.32961V26.7151H27.235V9.33519H27.2294Z" fill="white"/>
<path d="M77.9284 0V84H98.1158V76.067H89.1967V45.9665H98.1158V38.0335H89.1967V7.93296H98.1158V0H77.9284Z" fill="#916C58"/>
<path d="M134.337 0V84H154.525V76.067H145.606V45.9665H154.525V38.0335H145.606V7.93296H154.525V0H134.337Z" fill="#916C58"/>
<path d="M65.7215 0H54.4588V84H74.6463V76.067H65.7215V0Z" fill="#916C58"/>
<path d="M169.081 76.067V0H157.813V84H178V76.067H169.081Z" fill="#916C58"/>
<path d="M116.117 59.3743L110.941 0H101.404L110.283 84H121.951L130.836 0H121.293L116.117 59.3743Z" fill="#916C58"/>
</svg>
