<svg width="134" height="63" viewBox="0 0 134 63" fill="none" xmlns="http://www.w3.org/2000/svg">
<path d="M20.6367 7.00041C20.6367 3.13364 17.4507 0 13.5193 0L7.11743 0C3.18602 0 0 3.13364 0 7.00041L0 18.5672C0 21.0222 0.655945 23.4394 1.9082 25.5676L11.3342 41.6296C11.8326 42.4801 12.0966 43.4478 12.0966 44.4281V55.9949C12.0966 56.573 11.3001 57.0464 10.3162 57.0464C9.33231 57.0464 8.5358 56.5772 8.5358 55.9991V42.9325H0L0 55.9991C0 59.8659 3.18602 62.9995 7.11743 62.9995H13.5235C17.4549 62.9995 20.641 59.8659 20.641 55.9991V44.4323C20.641 41.9773 19.985 39.5601 18.7328 37.4319L9.30249 21.3657C8.80414 20.5153 8.54006 19.5475 8.54006 18.5672L8.54006 7.00041C8.54006 6.42228 9.33657 5.94888 10.3205 5.94888C11.3044 5.94888 12.1009 6.41809 12.1009 6.99622L12.1009 20.0335H20.641V7.00041H20.6367Z" fill="black"/>
<path d="M56.7461 0L56.7461 62.9993H72.3305V57.0496H65.4451L65.4451 34.4745H72.3305V28.5248H65.4451V5.94965H72.3305V0L56.7461 0Z" fill="#916C58"/>
<path d="M100.293 0L100.293 62.9993H115.878V57.0496H108.992L108.992 34.4745H115.878V28.5248H108.992V5.94965H115.878V0L100.293 0Z" fill="#916C58"/>
<path d="M47.3227 0.000732422L38.6281 0.000732422L38.6281 63H54.2125V57.0504H47.3227L47.3227 0.000732422Z" fill="#916C58"/>
<path d="M127.115 57.0496L127.115 0L118.416 0L118.416 62.9993H134V57.0496H127.115Z" fill="#916C58"/>
<path d="M86.2272 44.5302L82.2313 0L74.8687 0L81.7237 62.9993H90.7308L97.5902 0L90.2231 0L86.2272 44.5302Z" fill="#916C58"/>
</svg>
