<svg width="27" height="61" viewBox="0 0 27 61" fill="none" xmlns="http://www.w3.org/2000/svg">
<path d="M19.7071 0.292889C19.3166 -0.0976334 18.6834 -0.0976334 18.2929 0.292889L11.9289 6.65685C11.5384 7.04737 11.5384 7.68054 11.9289 8.07106C12.3195 8.46159 12.9526 8.46159 13.3431 8.07106L19 2.41421L24.6569 8.07106C25.0474 8.46159 25.6805 8.46159 26.0711 8.07106C26.4616 7.68054 26.4616 7.04737 26.0711 6.65685L19.7071 0.292889ZM20 61L20 0.999996H18L18 61H20Z" fill="#916C58"/>
<g style="mix-blend-mode:difference">
<path d="M12.632 60.58H10.04V60.196C10.032 59.9 9.868 59.652 9.548 59.452C9.228 59.244 8.692 59.084 7.94 58.972C7.18 58.852 6.152 58.772 4.856 58.732L2.48 58.672L2.48 53.392H10.04V52.336H12.632V53.296H11V59.62H12.632V60.58ZM10.04 58.756V54.472H3.44L3.44 57.676L4.988 57.712C5.996 57.736 6.84 57.788 7.52 57.868C8.2 57.948 8.744 58.06 9.152 58.204C9.56 58.348 9.856 58.532 10.04 58.756ZM11.12 48.33C11.12 48.954 10.972 49.506 10.676 49.986C10.372 50.458 9.976 50.826 9.488 51.09C8.992 51.354 8.456 51.486 7.88 51.486C7.296 51.486 6.76 51.354 6.272 51.09C5.776 50.818 5.38 50.446 5.084 49.974C4.78 49.494 4.628 48.946 4.628 48.33C4.628 47.706 4.78 47.158 5.084 46.686C5.38 46.206 5.776 45.834 6.272 45.57C6.76 45.298 7.296 45.162 7.88 45.162C8.456 45.162 8.992 45.298 9.488 45.57C9.976 45.834 10.372 46.202 10.676 46.674C10.972 47.146 11.12 47.698 11.12 48.33ZM7.892 50.406C8.324 50.406 8.716 50.314 9.068 50.13C9.42 49.938 9.7 49.686 9.908 49.374C10.108 49.062 10.208 48.714 10.208 48.33C10.208 47.946 10.104 47.598 9.896 47.286C9.688 46.966 9.408 46.714 9.056 46.53C8.696 46.338 8.3 46.242 7.868 46.242C7.436 46.242 7.044 46.338 6.692 46.53C6.34 46.714 6.06 46.966 5.852 47.286C5.644 47.598 5.54 47.946 5.54 48.33C5.54 48.714 5.648 49.062 5.864 49.374C6.072 49.686 6.352 49.938 6.704 50.13C7.056 50.314 7.452 50.406 7.892 50.406ZM11 43.8944H4.736V40.0304H5.672V42.8384H11V43.8944ZM11.12 36.2128C11.12 36.8368 10.972 37.3888 10.676 37.8688C10.372 38.3408 9.976 38.7088 9.488 38.9728C8.992 39.2368 8.456 39.3688 7.88 39.3688C7.296 39.3688 6.76 39.2368 6.272 38.9728C5.776 38.7008 5.38 38.3288 5.084 37.8568C4.78 37.3768 4.628 36.8288 4.628 36.2128C4.628 35.5888 4.78 35.0408 5.084 34.5688C5.38 34.0888 5.776 33.7168 6.272 33.4528C6.76 33.1808 7.296 33.0448 7.88 33.0448C8.456 33.0448 8.992 33.1808 9.488 33.4528C9.976 33.7168 10.372 34.0848 10.676 34.5568C10.972 35.0288 11.12 35.5808 11.12 36.2128ZM7.892 38.2888C8.324 38.2888 8.716 38.1968 9.068 38.0128C9.42 37.8208 9.7 37.5688 9.908 37.2568C10.108 36.9448 10.208 36.5968 10.208 36.2128C10.208 35.8288 10.104 35.4808 9.896 35.1688C9.688 34.8488 9.408 34.5968 9.056 34.4128C8.696 34.2208 8.3 34.1248 7.868 34.1248C7.436 34.1248 7.044 34.2208 6.692 34.4128C6.34 34.5968 6.06 34.8488 5.852 35.1688C5.644 35.4808 5.54 35.8288 5.54 36.2128C5.54 36.5968 5.648 36.9448 5.864 37.2568C6.072 37.5688 6.352 37.8208 6.704 38.0128C7.056 38.1968 7.452 38.2888 7.892 38.2888ZM11.12 28.3932C11.12 28.9052 10.992 29.3612 10.736 29.7612C10.48 30.1612 10.156 30.4772 9.764 30.7092H13.556V31.7652H4.736V30.8292H5.912C5.528 30.5812 5.22 30.2572 4.988 29.8572C4.748 29.4572 4.628 29.0212 4.628 28.5492C4.628 28.1172 4.716 27.7212 4.892 27.3612C5.068 27.0012 5.308 26.6892 5.612 26.4252C5.916 26.1612 6.264 25.9572 6.656 25.8132C7.04 25.6612 7.444 25.5852 7.868 25.5852C8.46 25.5852 9.004 25.7052 9.5 25.9452C9.996 26.1772 10.392 26.5052 10.688 26.9292C10.976 27.3532 11.12 27.8412 11.12 28.3932ZM10.208 28.7172C10.208 28.3012 10.096 27.9412 9.872 27.6372C9.648 27.3332 9.356 27.0972 8.996 26.9292C8.636 26.7532 8.26 26.6652 7.868 26.6652C7.444 26.6652 7.056 26.7612 6.704 26.9532C6.352 27.1372 6.072 27.3932 5.864 27.7212C5.648 28.0412 5.54 28.4052 5.54 28.8132C5.54 29.0612 5.604 29.3252 5.732 29.6052C5.86 29.8772 6.032 30.1172 6.248 30.3252C6.456 30.5252 6.688 30.6532 6.944 30.7092H8.732C9.148 30.5332 9.5 30.2652 9.788 29.9052C10.068 29.5372 10.208 29.1412 10.208 28.7172ZM11 24.3006H4.748V23.2446H9.584L4.736 19.7406V18.7806H11V19.8366H6.26L11 23.2926V24.3006Z" fill="white"/>
</g>
</svg>
