<svg width="310" height="84" viewBox="0 0 310 84" fill="none" xmlns="http://www.w3.org/2000/svg">
<g clip-path="url(#clip0)">
<path d="M117.013 83.9811L102.375 69.3125H54.4655V73.4521H29.2309L17.6912 61.8881V44.5198H12.6173L0 31.741V0.0189209H230.704L245.342 14.6876H281.308C282.43 12.3928 284.855 10.053 288.717 9.96299C290.647 9.96299 293.386 10.9079 294.823 12.7077L307.89 25.8015C309.326 27.4214 310 29.3112 310 31.696V31.8759C309.686 34.3957 308.428 36.5555 306.408 37.9954V69.3125H253.649L245.656 84.0261H117.013V83.9811Z" fill="white"/>
<path d="M304.791 67.6927H252.706L244.713 82.4063H117.687L103.049 67.6927H52.8491V71.8323H29.8595L19.3076 61.2133V42.9H13.2908L1.61646 31.1112V1.63892H230.075L244.713 16.3075H282.43C282.43 16.3075 283.643 11.673 288.762 11.583C290.423 11.583 292.623 12.4829 293.611 13.7878L306.722 26.9715C307.979 28.3664 308.339 29.9413 308.339 31.7411C308.024 34.1709 306.722 36.0607 304.747 37.1856L304.791 67.6927Z" fill="black"/>
<path d="M8.98035 13.1127V19.4571H30.7576V56.1286H37.2234V19.4571H194.109V13.1127H8.98035Z" fill="white"/>
<path d="M42.4768 27.7814V52.0341H67.1277V45.5097H48.8977V42.675H60.168V36.8705L48.8528 36.9155V34.1708H66.7236V27.7814H42.4768ZM102.735 27.7814V52.0341H109.111V42.675H122.087V52.0341H128.508V27.7814H122.087V36.8705H109.111V27.7814H102.735ZM133.223 27.7814V52.0341H139.599V34.8457L153.114 52.0341H161.87V27.7814H155.494V44.9248L141.979 27.7814H133.223Z" fill="white"/>
<path fill-rule="evenodd" clip-rule="evenodd" d="M173.769 27.7814H186.88C190.876 27.7814 194.109 31.0211 194.109 35.0257V44.7448C194.109 48.7494 190.876 51.9891 186.88 51.9891H173.769C169.773 51.9891 166.54 48.7494 166.54 44.7448V35.0257C166.54 31.0211 169.817 27.7814 173.769 27.7814ZM174.801 34.1708H185.937C186.925 34.1708 187.733 34.9807 187.733 35.9706V43.6649C187.733 44.6548 186.925 45.4647 185.937 45.4647H174.801C173.814 45.4647 173.005 44.6548 173.005 43.6649V35.9256C172.961 34.9807 173.769 34.1708 174.801 34.1708Z" fill="white"/>
<path d="M91.6889 42.8549V43.7098C91.6889 44.6997 90.8807 45.5096 89.8928 45.5096H78.7572C77.7694 45.5096 76.9612 44.6997 76.9612 43.7098V36.0155C76.9612 35.0256 77.7694 34.2157 78.7572 34.2157H89.8928C90.8807 34.2157 91.6889 35.0256 91.6889 36.0155V36.8704H98.1098V35.0256C98.1098 31.021 94.8769 27.7813 90.8807 27.7813H77.8143C73.8181 27.7813 70.5403 31.021 70.5403 35.0256V44.7447C70.5403 48.7493 73.7732 51.989 77.7694 51.989H90.8807C94.8769 51.989 98.1098 48.7493 98.1098 44.7447V42.8099L91.6889 42.8549ZM227.471 19.2771V25.7115H207.22C206.143 25.7115 205.245 26.7014 205.245 27.9613V43.2598C205.245 44.5197 206.098 45.5096 207.176 45.5096H222.262V40.6501H215.976V34.2157H228.683V52.034H206.682C202.326 52.034 198.824 47.9844 198.824 43.0349V28.3213C198.824 23.3267 202.326 19.3221 206.682 19.3221L227.471 19.2771ZM279.691 52.034H274.079L266.85 37.2304V52.034H260.474V27.7813H269.499L276.908 42.8549L284.271 27.7813H293.297V52.034H286.921V37.2304L279.691 52.034Z" fill="white"/>
<path d="M236.182 66.7927H122.087V60.2683H232.051L240.088 45.4647L230.524 27.7814H237.798L243.77 38.8053L249.697 27.7814H257.016L236.182 66.7927ZM283.688 18.2873C283.688 15.4975 285.933 13.2028 288.762 13.2028C291.545 13.2028 293.835 15.4525 293.835 18.2873C293.835 21.077 291.59 23.3718 288.762 23.3718C285.933 23.3718 283.688 21.077 283.688 18.2873ZM284.406 18.2873C284.406 20.7171 286.337 22.6519 288.762 22.6519C291.186 22.6519 293.117 20.7171 293.117 18.2873C293.117 15.8575 291.186 13.9227 288.762 13.9227C286.337 13.9227 284.406 15.8575 284.406 18.2873Z" fill="white"/>
<path fill-rule="evenodd" clip-rule="evenodd" d="M289.211 19.1871C289.704 19.1871 289.884 19.5021 289.884 19.952V20.9419H290.872V19.952C290.872 19.2321 290.692 18.8271 290.019 18.7821V18.7371C290.872 18.6021 290.917 18.0622 290.917 17.2973C290.917 16.1274 290.468 15.7674 289.345 15.7224H286.696V20.8969H287.684V19.1871H289.211ZM287.684 18.3322V16.5773H289.076C289.794 16.5773 289.929 16.7123 289.929 17.4323C289.929 18.1972 289.749 18.3322 289.031 18.3322H287.684Z" fill="white"/>
<path d="M289.211 19.1871C289.705 19.1871 289.884 19.5021 289.884 19.952V20.9419H290.872V19.952C290.872 19.2321 290.692 18.8271 290.019 18.7821V18.7371C290.872 18.6021 290.917 18.0622 290.917 17.2973C290.917 16.1274 290.468 15.7674 289.345 15.7224H286.696V20.8969H287.684V19.1871H289.211ZM287.684 18.3322V16.5773H289.076C289.794 16.5773 289.929 16.7123 289.929 17.4323C289.929 18.1972 289.749 18.3322 289.031 18.3322H287.684ZM186.88 27.7813H173.769C169.773 27.7813 166.54 31.021 166.54 35.0256V44.7897C166.54 48.7943 169.773 52.034 173.769 52.034H186.88C190.876 52.034 194.109 48.7943 194.109 44.7897V35.0256C194.109 31.066 190.876 27.7813 186.88 27.7813ZM187.733 43.7098C187.733 44.6997 186.925 45.5096 185.937 45.5096H174.801C173.814 45.5096 173.005 44.6997 173.005 43.7098V35.9705C173.005 34.9806 173.814 34.1707 174.801 34.1707H185.937C186.925 34.1707 187.733 34.9806 187.733 35.9705V43.7098Z" fill="white"/>
</g>
<defs>
<clipPath id="clip0">
<rect width="310" height="84" fill="white"/>
</clipPath>
</defs>
</svg>
