<svg width="178" height="84" viewBox="0 0 178 84" fill="none" xmlns="http://www.w3.org/2000/svg">
<path d="M27.2294 34.6648V9.33519C27.2294 4.17877 23.0256 0 17.8382 0H0V84H17.8382C23.0256 84 27.2294 79.8212 27.2294 74.6648V49.3352C27.2294 42 15.9611 42 15.9611 42C15.9611 42 27.2294 42 27.2294 34.6648ZM15.9611 74.6648C15.9611 75.4357 14.9101 76.067 13.6119 76.067H11.2627V45.9665H13.6119C14.9101 45.9665 15.9611 46.5922 15.9611 47.3687V74.6648ZM15.9611 36.6313C15.9611 37.4022 14.9101 38.0279 13.6119 38.0279H11.2627V7.93296H13.6119C14.9101 7.93296 15.9611 8.55866 15.9611 9.33519V36.6313Z" fill="white"/>
<path d="M77.9284 0V84H98.1158V76.067H89.1967V45.9665H98.1158V38.0335H89.1967V7.93296H98.1158V0H77.9284Z" fill="#916C58"/>
<path d="M134.337 0V84H154.525V76.067H145.606V45.9665H154.525V38.0335H145.606V7.93296H154.525V0H134.337Z" fill="#916C58"/>
<path d="M65.7215 0H54.4588V84H74.6463V76.067H65.7215V0Z" fill="#916C58"/>
<path d="M169.081 76.067V0H157.813V84H178V76.067H169.081Z" fill="#916C58"/>
<path d="M116.117 59.3743L110.941 0H101.404L110.283 84H121.951L130.836 0H121.293L116.117 59.3743Z" fill="#916C58"/>
</svg>
