<svg width="21" height="40" viewBox="0 0 21 40" fill="none" xmlns="http://www.w3.org/2000/svg">
<!-- <g opacity="0.55"> -->
<!-- <g style="mix-blend-mode:difference"> -->
<path d="M8.6662 33.149H2.3338C1.04469 33.149 0 34.2067 0 35.5118L0 40H21V35.5118C21 34.2067 19.9553 33.149 18.6662 33.149H12.3338C10.5 33.149 10.5 35.9841 10.5 35.9841C10.5 35.9841 10.5 33.149 8.6662 33.149ZM18.6662 35.9841C18.8589 35.9841 19.0168 36.2486 19.0168 36.5752V37.1663H11.4916V36.5752C11.4916 36.2486 11.648 35.9841 11.8422 35.9841H18.6662ZM9.15782 35.9841C9.35056 35.9841 9.50698 36.2486 9.50698 36.5752V37.1663H1.98324V36.5752C1.98324 36.2486 2.13966 35.9841 2.3338 35.9841H9.15782Z" fill="#737374"/>
<!-- </g> -->
<path d="M0 25.6416H20.9999V20.4689H19.0167V22.7543H11.4916V20.4689H9.50834V22.7543H1.98323L1.98323 20.4689H0L0 25.6416Z" fill="#916C58"/>
<path d="M0 11.1877H20.9999V6.01506H19.0167V8.30043H11.4916V6.01506H9.50834V8.30043H1.98323L1.98323 6.01506H0L0 11.1877Z" fill="#916C58"/>
<path d="M0.000183105 28.7694L0.000183105 31.6553H21.0001V26.4826H19.0169V28.7694H0.000183105Z" fill="#916C58"/>
<path d="M19.0167 2.28529L0 2.28529L0 5.17261L20.9999 5.17261V-7.9155e-05H19.0167V2.28529Z" fill="#916C58"/>
<path d="M14.8435 15.8564L0 17.1827L0 19.6265L20.9999 17.3512V14.3616L0 12.0849L0 14.5301L14.8435 15.8564Z" fill="#916C58"/>
<!-- </g> -->
</svg>
