<svg width="66" height="46" viewBox="0 0 66 46" fill="none" xmlns="http://www.w3.org/2000/svg">
<path d="M15 0H66L51 46H0L15 0Z" fill="#916C58"/>
<path d="M43 22C43.5523 22 44 22.4477 44 23C44 23.5523 43.5523 24 43 24V22ZM22.2929 23.7071C21.9024 23.3166 21.9024 22.6834 22.2929 22.2929L28.6569 15.9289C29.0474 15.5384 29.6805 15.5384 30.0711 15.9289C30.4616 16.3195 30.4616 16.9526 30.0711 17.3431L24.4142 23L30.0711 28.6569C30.4616 29.0474 30.4616 29.6805 30.0711 30.0711C29.6805 30.4616 29.0474 30.4616 28.6569 30.0711L22.2929 23.7071ZM43 24H23V22H43V24Z" fill="white"/>
</svg>
