<svg width="71" height="23" viewBox="0 0 71 23" fill="none" xmlns="http://www.w3.org/2000/svg">
<path d="M4.46329 6.65029L3.55496 7.31628L4.73722 7.69462L5.87793 7.07113L4.46329 6.65029Z" fill="#F84595"/>
<path d="M7.07742 7.88027L6.1691 8.54626L7.35136 8.9246L8.49207 8.30111L7.07742 7.88027Z" fill="#F84595"/>
<path d="M9.69119 9.11147L8.78287 9.77746L9.96513 10.1558L11.1058 9.53231L9.69119 9.11147Z" fill="#F84595"/>
<path d="M12.3051 10.3429L11.3968 11.0089L12.579 11.3872L13.7197 10.7638L12.3051 10.3429Z" fill="#F84595"/>
<path d="M5.89166 10.4491L4.98334 11.1151L6.1656 11.4935L7.3063 10.87L5.89166 10.4491Z" fill="#F84595"/>
<path d="M8.50619 11.6789L7.59787 12.3448L8.78013 12.7232L9.92084 12.0997L8.50619 11.6789Z" fill="#F84595"/>
<path d="M11.12 12.9101L10.2116 13.576L11.3939 13.9544L12.5346 13.3309L11.12 12.9101Z" fill="#F84595"/>
<path d="M13.7337 14.1413L12.8254 14.8072L14.0077 15.1856L15.1484 14.5621L13.7337 14.1413Z" fill="#F84595"/>
<path d="M2.09354 11.7838L1.18521 12.4498L2.36747 12.8282L3.50818 12.2047L2.09354 11.7838Z" fill="#F84595"/>
<path d="M4.70749 13.0145L3.79916 13.6805L4.98143 14.0589L6.12213 13.4354L4.70749 13.0145Z" fill="#F84595"/>
<path d="M7.32126 14.246L6.41293 14.912L7.5952 15.2903L8.7359 14.6668L7.32126 14.246Z" fill="#F84595"/>
<path d="M9.93503 15.4772L9.0267 16.1432L10.209 16.5215L11.3497 15.898L9.93503 15.4772Z" fill="#F84595"/>
<path d="M3.52197 15.5827L2.61365 16.2487L3.79591 16.627L4.93661 16.0035L3.52197 15.5827Z" fill="#F84595"/>
<path d="M6.1362 16.8131L5.22787 17.4791L6.41014 17.8575L7.55084 17.234L6.1362 16.8131Z" fill="#F84595"/>
<path d="M8.74997 18.0446L7.84164 18.7106L9.02391 19.0889L10.1646 18.4654L8.74997 18.0446Z" fill="#F84595"/>
<path d="M11.3639 19.2758L10.4555 19.9418L11.6378 20.3201L12.7785 19.6966L11.3639 19.2758Z" fill="#F84595"/>
<path fill-rule="evenodd" clip-rule="evenodd" d="M9.4815 1.52548L10.0542 5.12258V0L11.3957 2.90194L10.3855 6.63811L8.80405 4.19668L9.4815 1.52548Z" fill="#589E21"/>
<path fill-rule="evenodd" clip-rule="evenodd" d="M18.306 3.69946L12.3569 7.17021L17.7205 5.01966L15.7654 7.48359L10.8955 8.07708L13.0521 4.44196L18.306 3.69946Z" fill="#589E21"/>
<path d="M24.694 17.2409H24.1666L20.4364 10.0826V20.0858H19.9677V9.18042H20.495L24.694 17.2409ZM29.7993 10.0826L26.069 17.2409H25.5352L21.3492 9.18042H21.8765L25.8086 16.7404L29.7342 9.18042H30.268V20.0858H29.7993V10.0826Z" fill="white"/>
<path d="M36.9061 17.8336L37.0884 17.3594H39.4255L39.6273 17.8336H36.9061ZM32.7332 20.0858H32.2254L36.4895 9.18042H36.9973L41.2549 20.0858H40.7536L36.7434 9.8192L32.7332 20.0858Z" fill="white"/>
<path d="M49.1009 9.18042H49.5697V20.0858H49.1009V9.18042Z" fill="white"/>
<path d="M52.8522 9.18042H53.399L59.5445 19.3153V9.18042H60.0133V20.0858C60.0133 20.0858 59.8288 20.0858 59.4599 20.0858L52.8522 9.18042ZM51.8655 9.95091V20.0858H51.3968V9.18042C51.3968 9.18042 51.5834 9.18042 51.9567 9.18042L58.5644 20.0858H58.0241L51.8655 9.95091Z" fill="white"/>
<path d="M66.6514 17.8336L66.8336 17.3594H69.1708L69.3726 17.8336H66.6514ZM62.4784 20.0858H61.9706L66.2347 9.18042H66.7425L71.0001 20.0858H70.4988L66.4886 9.8192L62.4784 20.0858Z" fill="white"/>
<path d="M43.1001 9.18042H43.5688V17.715V19.1375V19.6116H47.3186V20.0858H43.1001V9.18042Z" fill="white"/>
<path d="M36.5593 18.9223L36.7416 18.4481H39.8194L40.0212 18.9223H36.5593Z" fill="white"/>
<path d="M66.3179 18.9209L66.5002 18.4467H69.578L69.7798 18.9209H66.3179Z" fill="white"/>
<path d="M20 6.01657H20.5233C20.6484 6.01657 20.7586 6.03683 20.8541 6.07735C20.9506 6.11694 21.0252 6.17311 21.0779 6.24586C21.1316 6.3186 21.1585 6.40331 21.1585 6.5C21.1585 6.59669 21.1316 6.6814 21.0779 6.75414C21.0252 6.82689 20.9506 6.88352 20.8541 6.92403C20.7586 6.96363 20.6484 6.98343 20.5233 6.98343H20V6.01657ZM20.5101 6.79972C20.6253 6.79972 20.7169 6.77302 20.785 6.71961C20.8541 6.66529 20.8886 6.59208 20.8886 6.5C20.8886 6.40792 20.8541 6.33517 20.785 6.28177C20.7169 6.22744 20.6253 6.20028 20.5101 6.20028H20.2666V6.79972H20.5101Z" fill="white"/>
<path d="M25.5757 6.80387V6.98343H24.6838V6.01657H25.5543V6.19613H24.9487V6.40608H25.4835V6.58011H24.9487V6.80387H25.5757Z" fill="white"/>
<path d="M29.4905 7C29.3994 7 29.3111 6.98987 29.2255 6.96961C29.1411 6.94843 29.073 6.92127 29.0215 6.88812L29.112 6.71961C29.1614 6.75 29.2201 6.7744 29.2881 6.79282C29.3561 6.81123 29.4241 6.82044 29.4921 6.82044C29.5678 6.82044 29.6238 6.81123 29.66 6.79282C29.6962 6.77348 29.7143 6.74816 29.7143 6.71685C29.7143 6.69383 29.7033 6.67495 29.6814 6.66022C29.6605 6.64457 29.6331 6.63214 29.5991 6.62293C29.5662 6.61372 29.5212 6.60359 29.4642 6.59254C29.3764 6.57505 29.3045 6.55755 29.2486 6.54006C29.1926 6.52256 29.1444 6.49448 29.1038 6.4558C29.0643 6.41713 29.0445 6.36556 29.0445 6.3011C29.0445 6.24494 29.0626 6.19429 29.0988 6.14917C29.135 6.10313 29.1893 6.06676 29.2617 6.04006C29.3352 6.01335 29.4247 6 29.53 6C29.6035 6 29.6753 6.00737 29.7456 6.0221C29.8158 6.03683 29.8772 6.05801 29.9299 6.08564L29.8476 6.25552C29.7412 6.20488 29.6348 6.17956 29.5283 6.17956C29.4537 6.17956 29.3983 6.18969 29.3621 6.20994C29.327 6.2302 29.3095 6.25691 29.3095 6.29006C29.3095 6.3232 29.3298 6.34807 29.3704 6.36464C29.412 6.38029 29.4751 6.39595 29.5596 6.4116C29.6474 6.4291 29.7192 6.44659 29.7752 6.46409C29.8311 6.48158 29.8789 6.50921 29.9184 6.54696C29.9589 6.58471 29.9792 6.63582 29.9792 6.70028C29.9792 6.75552 29.9606 6.80617 29.9233 6.85221C29.8871 6.89733 29.8322 6.93324 29.7587 6.95994C29.6852 6.98665 29.5958 7 29.4905 7Z" fill="white"/>
<path d="M33.4856 6.01657H33.7522V6.98343H33.4856V6.01657Z" fill="white"/>
<path d="M38.1281 6.48481H38.3717V6.87707C38.3091 6.91667 38.2367 6.94705 38.1545 6.96823C38.0722 6.98941 37.9893 7 37.906 7C37.7864 7 37.6789 6.97882 37.5834 6.93646C37.488 6.89319 37.4128 6.83379 37.358 6.75829C37.3042 6.68186 37.2773 6.59576 37.2773 6.5C37.2773 6.40424 37.3042 6.3186 37.358 6.24309C37.4128 6.16667 37.4885 6.10727 37.5851 6.06492C37.6816 6.02164 37.7902 6 37.9109 6C38.0118 6 38.1034 6.01427 38.1857 6.04282C38.268 6.07136 38.3371 6.1128 38.3931 6.16713L38.2219 6.29972C38.1396 6.22698 38.0404 6.19061 37.9241 6.19061C37.8506 6.19061 37.7853 6.2035 37.7282 6.22928C37.6712 6.25506 37.6268 6.29144 37.5949 6.3384C37.5631 6.38536 37.5472 6.43923 37.5472 6.5C37.5472 6.55985 37.5631 6.61326 37.5949 6.66022C37.6268 6.70718 37.6706 6.74401 37.7266 6.77072C37.7836 6.7965 37.8484 6.80939 37.9208 6.80939C37.9976 6.80939 38.0667 6.79558 38.1281 6.76796V6.48481Z" fill="white"/>
<path d="M43 6.01657V6.98343H42.7811L42.2068 6.39641V6.98343H41.9435V6.01657H42.164L42.7367 6.60359V6.01657H43Z" fill="white"/>
<path d="M48.4664 23C48.3759 23 48.288 22.9899 48.2029 22.9696C48.1189 22.9484 48.0513 22.9213 48 22.8881L48.09 22.7196C48.1391 22.75 48.1975 22.7744 48.2651 22.7928C48.3328 22.8112 48.4004 22.8204 48.4681 22.8204C48.5433 22.8204 48.599 22.8112 48.635 22.7928C48.671 22.7735 48.689 22.7482 48.689 22.7169C48.689 22.6938 48.6781 22.675 48.6563 22.6602C48.6355 22.6446 48.6083 22.6321 48.5744 22.6229C48.5417 22.6137 48.497 22.6036 48.4402 22.5925C48.353 22.575 48.2815 22.5576 48.2258 22.5401C48.1702 22.5226 48.1222 22.4945 48.0818 22.4558C48.0426 22.4171 48.0229 22.3656 48.0229 22.3011C48.0229 22.2449 48.0409 22.1943 48.0769 22.1492C48.1129 22.1031 48.1669 22.0668 48.2389 22.0401C48.312 22.0134 48.401 22 48.5057 22C48.5788 22 48.6503 22.0074 48.7201 22.0221C48.7899 22.0368 48.851 22.058 48.9034 22.0856L48.8216 22.2555C48.7157 22.2049 48.6099 22.1796 48.5041 22.1796C48.4299 22.1796 48.3748 22.1897 48.3388 22.2099C48.3039 22.2302 48.2864 22.2569 48.2864 22.2901C48.2864 22.3232 48.3066 22.3481 48.347 22.3646C48.3884 22.3803 48.4511 22.3959 48.5352 22.4116C48.6224 22.4291 48.6939 22.4466 48.7496 22.4641C48.8052 22.4816 48.8527 22.5092 48.8919 22.547C48.9323 22.5847 48.9525 22.6358 48.9525 22.7003C48.9525 22.7555 48.9339 22.8062 48.8968 22.8522C48.8608 22.8973 48.8063 22.9332 48.7332 22.9599C48.6601 22.9866 48.5712 23 48.4664 23Z" fill="white"/>
<path d="M52.6608 22.1989H52.2943V22.0166H53.2926V22.1989H52.926V22.9834H52.6608V22.1989Z" fill="white"/>
<path d="M57.2309 23C57.0672 23 56.9396 22.9618 56.8479 22.8854C56.7574 22.8089 56.7121 22.6998 56.7121 22.558V22.0166H56.9772V22.5497C56.9772 22.7228 57.0623 22.8094 57.2325 22.8094C57.3154 22.8094 57.3787 22.7887 57.4224 22.7472C57.466 22.7049 57.4878 22.639 57.4878 22.5497V22.0166H57.7497V22.558C57.7497 22.6998 57.7039 22.8089 57.6122 22.8854C57.5216 22.9618 57.3945 23 57.2309 23Z" fill="white"/>
<path d="M61.3175 22.0166H61.838C61.9624 22.0166 62.072 22.0368 62.1669 22.0773C62.2629 22.1169 62.3371 22.1731 62.3895 22.2459C62.443 22.3186 62.4697 22.4033 62.4697 22.5C62.4697 22.5967 62.443 22.6814 62.3895 22.7541C62.3371 22.8269 62.2629 22.8835 62.1669 22.924C62.072 22.9636 61.9624 22.9834 61.838 22.9834H61.3175V22.0166ZM61.8249 22.7997C61.9394 22.7997 62.0305 22.773 62.0982 22.7196C62.1669 22.6653 62.2013 22.5921 62.2013 22.5C62.2013 22.4079 62.1669 22.3352 62.0982 22.2818C62.0305 22.2274 61.9394 22.2003 61.8249 22.2003H61.5827V22.7997H61.8249Z" fill="white"/>
<path d="M65.9755 22.0166H66.2406V22.9834H65.9755V22.0166Z" fill="white"/>
<path d="M70.3732 23C70.2543 23 70.1468 22.9784 70.0508 22.9351C69.9559 22.8918 69.8811 22.8324 69.8266 22.7569C69.7731 22.6805 69.7464 22.5948 69.7464 22.5C69.7464 22.4052 69.7731 22.32 69.8266 22.2445C69.8811 22.168 69.9559 22.1082 70.0508 22.0649C70.1468 22.0216 70.2543 22 70.3732 22C70.4921 22 70.599 22.0216 70.694 22.0649C70.7889 22.1082 70.8636 22.168 70.9182 22.2445C70.9727 22.32 71 22.4052 71 22.5C71 22.5948 70.9727 22.6805 70.9182 22.7569C70.8636 22.8324 70.7889 22.8918 70.694 22.9351C70.599 22.9784 70.4921 23 70.3732 23ZM70.3732 22.8094C70.4408 22.8094 70.5019 22.7965 70.5565 22.7707C70.611 22.744 70.6536 22.7072 70.6841 22.6602C70.7158 22.6133 70.7316 22.5599 70.7316 22.5C70.7316 22.4401 70.7158 22.3867 70.6841 22.3398C70.6536 22.2928 70.611 22.2564 70.5565 22.2307C70.5019 22.204 70.4408 22.1906 70.3732 22.1906C70.3055 22.1906 70.2444 22.204 70.1899 22.2307C70.1353 22.2564 70.0922 22.2928 70.0606 22.3398C70.0301 22.3867 70.0148 22.4401 70.0148 22.5C70.0148 22.5599 70.0301 22.6133 70.0606 22.6602C70.0922 22.7072 70.1353 22.744 70.1899 22.7707C70.2444 22.7965 70.3055 22.8094 70.3732 22.8094Z" fill="white"/>
</svg>
