<svg width="50" height="23" viewBox="0 0 50 23" fill="none" xmlns="http://www.w3.org/2000/svg">
<g opacity="0.55">
<path d="M4.47962 8.24178H7.64217V2.55605C7.64217 1.14418 6.46233 0 5.00645 0H2.63572C1.17984 0 0 1.14418 0 2.55605V20.4438C0 21.8557 1.17984 22.9999 2.63572 22.9999H5.00803C6.46391 22.9999 7.64375 21.8557 7.64375 20.4438V10.4139H3.82661V12.586H4.4812V20.4438C4.4812 20.6549 4.18624 20.8278 3.82188 20.8278C3.45751 20.8278 3.16255 20.6565 3.16255 20.4438V2.55605C3.16255 2.34496 3.45751 2.17211 3.82188 2.17211C4.18624 2.17211 4.4812 2.34343 4.4812 2.55605V8.24178H4.47962Z" fill="white"/>
<path d="M21.7551 0V22.9999H27.453V20.8278H24.9356V12.586H27.453V10.4139H24.9356V2.17211H27.453V0H21.7551Z" fill="#916C58"/>
<path d="M37.6764 0V22.9999H43.3742V20.8278H40.8568V12.586H43.3742V10.4139H40.8568V2.17211H43.3742V0H37.6764Z" fill="#916C58"/>
<path d="M18.3097 0.000244141H15.1309V23.0002H20.8287V20.828H18.3097V0.000244141Z" fill="#916C58"/>
<path d="M47.4827 20.8278V0H44.3022V22.9999H50.0001V20.8278H47.4827Z" fill="#916C58"/>
<path d="M32.5338 16.2572L31.0729 0H28.381L30.8873 22.9999H34.1803L36.6882 0H33.9948L32.5338 16.2572Z" fill="#916C58"/>
</g>
</svg>
