<svg width="21" height="40" viewBox="0 0 21 40" fill="none" xmlns="http://www.w3.org/2000/svg">
<g opacity="0.55">
<g style="mix-blend-mode:difference">
<path d="M7.5253 35.9055L7.5253 33.0149H2.33398C1.04487 33.0149 0.000183105 34.0933 0.000183105 35.424L0.000183105 37.5909C0.000183105 38.9216 1.04487 40 2.33398 40H18.6663C19.9554 40 21.0001 38.9216 21.0001 37.5909V35.4226C21.0001 34.0919 19.9554 33.0135 18.6663 33.0135H9.50854V36.5024H11.4918V35.9041H18.6663C18.8591 35.9041 19.0169 36.1737 19.0169 36.5067C19.0169 36.8398 18.8605 37.1094 18.6663 37.1094H2.33398C2.14124 37.1094 1.98342 36.8398 1.98342 36.5067C1.98342 36.1737 2.13984 35.9041 2.33398 35.9041H7.5253V35.9055Z" fill="#737374"/>
</g>
<path d="M0 25.8164H20.9999V20.6085H19.0167V22.9094H11.4916V20.6085H9.50836V22.9094H1.98324L1.98324 20.6085H0L0 25.8164Z" fill="#916C58"/>
<path d="M0 11.2639L20.9999 11.2639V6.05599H19.0167V8.35693H11.4916V6.05599L9.50836 6.05599V8.35693H1.98324L1.98324 6.05599H0L0 11.2639Z" fill="#916C58"/>
<path d="M0.000183105 28.9654L0.000183105 31.871H21.0001V26.663H19.0169V28.9654H0.000183105Z" fill="#916C58"/>
<path d="M19.0167 2.30077L0 2.30077L0 5.20776L20.9999 5.20776V-0.000165939H19.0167V2.30077Z" fill="#916C58"/>
<path d="M14.8435 15.9645L0 17.2998L0 19.7603L20.9999 17.4695V14.4595L0 12.1673L0 14.6292L14.8435 15.9645Z" fill="#916C58"/>
</g>
</svg>
