<svg width="134" height="63" viewBox="0 0 134 63" fill="none" xmlns="http://www.w3.org/2000/svg">
<path d="M12.0054 22.5755H20.481V7.00156C20.481 3.13425 17.319 0.000183105 13.4173 0.000183105H7.06373C3.16198 0.000183105 0 3.13425 0 7.00156V55.9986C0 59.8659 3.16198 63 7.06373 63H13.4215C17.3233 63 20.4852 59.8659 20.4852 55.9986V28.5252H10.2553V34.475H12.0096V55.9986C12.0096 56.5768 11.2191 57.0503 10.2426 57.0503C9.26613 57.0503 8.47563 56.581 8.47563 55.9986V7.00156C8.47563 6.42335 9.26613 5.94989 10.2426 5.94989C11.2191 5.94989 12.0096 6.41916 12.0096 7.00156V22.5755H12.0054Z" fill="white"/>
<path d="M58.3037 0V62.9998H73.5739V57.0501H66.8273V34.4748H73.5739V28.5251H66.8273V5.94971H73.5739V0H58.3037Z" fill="#916C58"/>
<path d="M100.973 0V62.9998H116.243V57.0501H109.496V34.4748H116.243V28.5251H109.496V5.94971H116.243V0H100.973Z" fill="#916C58"/>
<path d="M49.0702 0.000183105H40.5508V63H55.8211V57.0503H49.0702V0.000183105Z" fill="#916C58"/>
<path d="M127.253 57.0501V0H118.73V62.9998H134V57.0501H127.253Z" fill="#916C58"/>
<path d="M87.1904 44.5306L83.2751 0H76.0609L82.7777 62.9998H91.6031L98.3242 0H91.1058L87.1904 44.5306Z" fill="#916C58"/>
</svg>
