<svg width="64" height="64" viewBox="0 0 64 64" fill="none" xmlns="http://www.w3.org/2000/svg">
<path d="M51.656 38.0774L35.6106 27.0561L35.1652 26.6267C34.6666 26.1601 34.6666 26.1601 34.6666 25.3307C34.6666 24.1253 35.488 23.4241 36.8213 22.3813C38.2374 21.2747 40 19.8961 40 17.3307C40 13.6561 37.008 10.6641 33.3334 10.6641C29.6587 10.6641 26.6667 13.6561 26.6667 17.3307C26.6667 18.0667 27.2641 18.6641 28.0001 18.6641C28.7361 18.6641 29.3335 18.0667 29.3335 17.3307C29.3335 15.1253 31.1281 13.3307 33.3335 13.3307C35.5389 13.3307 37.3335 15.1253 37.3335 17.3307C37.3335 18.5361 36.5121 19.2373 35.1789 20.2801C33.7626 21.3867 32 22.7654 32 25.3307C32 27.1147 32.4294 27.7147 33.3386 28.5681L50.1146 40.2507C50.84 40.7813 50.6666 41.5253 50.5973 41.7413C50.5253 41.9573 50.2266 42.6639 49.3279 42.6639H14.672C13.7706 42.6639 13.472 41.9573 13.4026 41.7413C13.3332 41.5279 13.16 40.7813 13.8852 40.2533L27.4479 30.4107C28.0425 29.9787 28.1759 29.1441 27.7439 28.5493C27.3119 27.9546 26.4773 27.8187 25.8825 28.2533L12.3174 38.0987C10.8908 39.1361 10.32 40.8907 10.8667 42.5707C11.4134 44.2481 12.9067 45.3333 14.6721 45.3333H49.3281C51.0935 45.3333 52.5868 44.2479 53.1361 42.5679C53.68 40.8881 53.1094 39.1334 51.656 38.0774Z" fill="black"/>
<path d="M32 0C14.3546 0 0 14.3546 0 32C0 49.6454 14.3546 64 32 64C49.6454 64 64 49.6454 64 32C64 14.3546 49.6454 0 32 0ZM32 61.3334C15.8266 61.3334 2.66663 48.1734 2.66663 32C2.66663 15.8266 15.8266 2.66663 32 2.66663C48.1734 2.66663 61.3334 15.8266 61.3334 32C61.3334 48.1734 48.1734 61.3334 32 61.3334Z" fill="black"/>
</svg>
