<svg width="64" height="64" viewBox="0 0 64 64" fill="none" xmlns="http://www.w3.org/2000/svg">
<g clip-path="url(#clip0)">
<path d="M33.3333 42.6666C33.3253 42.6666 33.3173 42.6666 33.3093 42.6666C32.7733 42.6559 32.296 42.3279 32.096 41.8292L27.0987 29.3332H20C19.264 29.3332 18.6667 28.7359 18.6667 27.9999C18.6667 27.2639 19.264 26.6666 20 26.6666H28C28.5467 26.6666 29.0347 26.9999 29.2373 27.5039L33.3973 37.9039L42.7813 16.7919C42.9867 16.3332 43.432 16.0266 43.9333 15.9999C44.4747 15.9732 44.9093 16.2346 45.1573 16.6692L55.44 34.6666H62.6667C63.4027 34.6666 64 35.2639 64 35.9999C64 36.7359 63.4027 37.3332 62.6667 37.3332H54.6667C54.1893 37.3332 53.7467 37.0772 53.5093 36.6612L44.1493 20.2799L34.552 41.8746C34.336 42.3572 33.8587 42.6666 33.3333 42.6666Z" fill="black"/>
<path d="M29.3333 58.6667C29.12 58.6667 28.9093 58.6161 28.7147 58.5148C27.5413 57.8988 0 43.1921 0 18.7467C0 9.88008 7.21333 2.66675 16.08 2.66675C21.5307 2.66675 26.4187 5.18675 29.3333 9.37341C32.248 5.18675 37.136 2.66675 42.5867 2.66675C51.4533 2.66675 58.6667 9.88008 58.6667 18.7467C58.6667 20.6054 58.5147 22.3787 58.2187 24.0241C58.088 24.7467 57.3973 25.2267 56.6693 25.0987C55.944 24.9681 55.464 24.2721 55.5947 23.5494C55.8667 22.0401 56 20.4694 56 18.7467C56 11.3494 49.984 5.33341 42.5867 5.33341C37.3253 5.33341 32.7067 8.11208 30.5307 12.5841C30.0827 13.5014 28.5813 13.5014 28.1333 12.5841C25.96 8.11208 21.3387 5.33341 16.08 5.33341C8.68267 5.33341 2.66667 11.3494 2.66667 18.7467C2.66667 39.6507 25.2747 53.4934 29.3333 55.8081C31.2747 54.7041 37.4373 50.9841 43.3013 45.1841C43.824 44.6667 44.672 44.6694 45.1867 45.1947C45.704 45.7174 45.6987 46.5628 45.176 47.0801C37.84 54.3388 30.2693 58.3468 29.952 58.5148C29.76 58.6161 29.5467 58.6667 29.3333 58.6667Z" fill="black"/>
</g>
<defs>
<clipPath id="clip0">
<rect width="64" height="64" fill="white"/>
</clipPath>
</defs>
</svg>
