<svg width="817" height="301" viewBox="0 0 817 301" fill="none" xmlns="http://www.w3.org/2000/svg">
<g style="mix-blend-mode:difference">
    <path d="M87.9473 28.24V28.74H88.4473V28.24H87.9473ZM58.5713 28.24V27.74H58.0713V28.24H58.5713ZM58.5713 106V106.5H59.0713V106H58.5713ZM30.4912 106H29.9912V106.5H30.4912V106ZM30.4912 28.24H30.9912V27.74H30.4912V28.24ZM0.971249 28.24H0.471249V28.74H0.971249V28.24ZM0.971249 3.75999V3.25999H0.471249V3.75999H0.971249ZM87.9473 3.75999H88.4473V3.25999H87.9473V3.75999ZM87.9473 27.74H58.5713V28.74H87.9473V27.74ZM58.0713 28.24V106H59.0713V28.24H58.0713ZM58.5713 105.5H30.4912V106.5H58.5713V105.5ZM30.9912 106V28.24H29.9912V106H30.9912ZM30.4912 27.74H0.971249V28.74H30.4912V27.74ZM1.47125 28.24V3.75999H0.471249V28.24H1.47125ZM0.971249 4.25999H87.9473V3.25999H0.971249V4.25999ZM87.4473 3.75999V28.24H88.4473V3.75999H87.4473ZM94.9031 106H94.4031V106.5H94.9031V106ZM94.9031 30.256V29.756H94.4031V30.256H94.9031ZM155.095 32.848L154.876 33.2977L154.886 33.3023L155.095 32.848ZM162.727 39.472L162.289 39.7135L162.294 39.7226L162.3 39.7315L162.727 39.472ZM162.295 59.632L161.871 59.3669L161.865 59.3767L162.295 59.632ZM153.367 66.976L153.165 66.5187L151.895 67.0797L153.231 67.4572L153.367 66.976ZM164.311 73.024L163.964 73.3835L164.311 73.024ZM160.423 101.536L160.184 101.097L160.423 101.536ZM120.823 59.488H120.323V59.988H120.823V59.488ZM120.823 48.4V47.9H120.323V48.4H120.823ZM120.823 87.856H120.323V88.356H120.823V87.856ZM140.551 86.272L140.213 85.9034H140.213L140.551 86.272ZM140.551 77.632L140.213 78.0006L140.222 78.0086L140.231 78.0161L140.551 77.632ZM120.823 76.048V75.548H120.323V76.048H120.823ZM95.4031 106V30.256H94.4031V106H95.4031ZM94.9031 30.756H140.695V29.756H94.9031V30.756ZM140.695 30.756C146.704 30.756 151.419 31.6157 154.876 33.2976L155.314 32.3984C151.667 30.6243 146.782 29.756 140.695 29.756V30.756ZM154.886 33.3023C158.364 34.9001 160.816 37.0429 162.289 39.7135L163.165 39.2305C161.566 36.3331 158.93 34.0599 155.304 32.3937L154.886 33.3023ZM162.3 39.7315C163.882 42.3382 164.675 45.2239 164.675 48.4H165.675C165.675 45.0481 164.836 41.9818 163.155 39.2125L162.3 39.7315ZM164.675 48.4C164.675 52.7429 163.732 56.3903 161.871 59.367L162.719 59.897C164.699 56.7297 165.675 52.8891 165.675 48.4H164.675ZM161.865 59.3767C160.107 62.3383 157.223 64.7256 153.165 66.5187L153.569 67.4333C157.767 65.5784 160.835 63.0697 162.725 59.8873L161.865 59.3767ZM153.231 67.4572C157.579 68.686 161.151 70.6648 163.964 73.3835L164.659 72.6645C161.711 69.8152 157.987 67.762 153.503 66.4948L153.231 67.4572ZM163.964 73.3835C166.718 76.046 168.131 79.9306 168.131 85.12H169.131C169.131 79.7494 167.664 75.57 164.659 72.6645L163.964 73.3835ZM168.131 85.12C168.131 92.9646 165.449 98.2336 160.184 101.097L160.662 101.975C166.341 98.8865 169.131 93.2114 169.131 85.12H168.131ZM160.184 101.097C154.818 104.016 147.138 105.5 137.095 105.5V106.5C147.212 106.5 155.085 105.008 160.662 101.975L160.184 101.097ZM137.095 105.5H94.9031V106.5H137.095V105.5ZM120.823 59.988H133.927V58.988H120.823V59.988ZM133.927 59.988C135.879 59.988 137.435 59.4866 138.497 58.397C139.557 57.3098 140.043 55.7219 140.043 53.728H139.043C139.043 55.5741 138.593 56.8662 137.781 57.699C136.971 58.5294 135.719 58.988 133.927 58.988V59.988ZM140.043 53.728C140.043 51.868 139.552 50.3829 138.483 49.3693C137.42 48.3603 135.87 47.9 133.927 47.9V48.9C135.728 48.9 136.987 49.3277 137.795 50.0947C138.599 50.8571 139.043 52.036 139.043 53.728H140.043ZM133.927 47.9H120.823V48.9H133.927V47.9ZM120.323 48.4V59.488H121.323V48.4H120.323ZM120.823 88.356H136.231V87.356H120.823V88.356ZM136.231 88.356C138.07 88.356 139.635 87.7903 140.889 86.6406L140.213 85.9034C139.164 86.8657 137.848 87.356 136.231 87.356V88.356ZM140.889 86.6406C142.162 85.4738 142.779 83.8905 142.779 81.952H141.779C141.779 83.6615 141.244 84.9582 140.213 85.9034L140.889 86.6406ZM142.779 81.952C142.779 79.9285 142.168 78.3283 140.871 77.2479L140.231 78.0161C141.239 78.8557 141.779 80.1355 141.779 81.952H142.779ZM140.889 77.2634C139.635 76.1137 138.07 75.548 136.231 75.548V76.548C137.848 76.548 139.164 77.0383 140.213 78.0006L140.889 77.2634ZM136.231 75.548H120.823V76.548H136.231V75.548ZM120.323 76.048V87.856H121.323V76.048H120.323ZM179.975 23.92H179.475V24.42H179.975V23.92ZM179.975 0.879997V0.379997H179.475V0.879997H179.975ZM207.335 0.879997H207.835V0.379997H207.335V0.879997ZM207.335 23.92V24.42H207.835V23.92H207.335ZM179.975 106H179.475V106.5H179.975V106ZM179.975 30.256V29.756H179.475V30.256H179.975ZM207.335 30.256H207.835V29.756H207.335V30.256ZM207.335 106V106.5H207.835V106H207.335ZM180.475 23.92V0.879997H179.475V23.92H180.475ZM179.975 1.38H207.335V0.379997H179.975V1.38ZM206.835 0.879997V23.92H207.835V0.879997H206.835ZM207.335 23.42H179.975V24.42H207.335V23.42ZM180.475 106V30.256H179.475V106H180.475ZM179.975 30.756H207.335V29.756H179.975V30.756ZM206.835 30.256V106H207.835V30.256H206.835ZM207.335 105.5H179.975V106.5H207.335V105.5ZM221.466 106H220.966V106.5H221.466V106ZM221.466 30.256V29.756H220.966V30.256H221.466ZM248.826 30.256H249.326V29.756H248.826V30.256ZM248.826 69.568H248.326V71.3527L249.253 69.8278L248.826 69.568ZM272.73 30.256V29.756H272.448L272.302 29.9962L272.73 30.256ZM297.642 30.256H298.142V29.756H297.642V30.256ZM297.642 106V106.5H298.142V106H297.642ZM270.282 106H269.782V106.5H270.282V106ZM270.282 67.984H270.782V66.2406L269.858 67.719L270.282 67.984ZM246.522 106V106.5H246.799L246.946 106.265L246.522 106ZM239.898 18.448L239.566 18.8226L239.574 18.8291L239.898 18.448ZM232.41 0.879997V0.379997H231.91V0.879997H232.41ZM247.962 0.879997H248.462V0.379997H247.962V0.879997ZM250.842 8.8L250.472 9.13633L250.48 9.14514L250.488 9.15355L250.842 8.8ZM267.834 8.944L267.472 8.59917L267.471 8.59962L267.834 8.944ZM271.29 0.879997V0.379997H270.844L270.793 0.823223L271.29 0.879997ZM286.842 0.879997H287.342V0.379997H286.842V0.879997ZM279.21 18.448L279.537 18.8261L279.537 18.8256L279.21 18.448ZM221.966 106V30.256H220.966V106H221.966ZM221.466 30.756H248.826V29.756H221.466V30.756ZM248.326 30.256V69.568H249.326V30.256H248.326ZM249.253 69.8278L273.157 30.5158L272.302 29.9962L248.398 69.3082L249.253 69.8278ZM272.73 30.756H297.642V29.756H272.73V30.756ZM297.142 30.256V106H298.142V30.256H297.142ZM297.642 105.5H270.282V106.5H297.642V105.5ZM270.782 106V67.984H269.782V106H270.782ZM269.858 67.719L246.098 105.735L246.946 106.265L270.706 68.249L269.858 67.719ZM246.522 105.5H221.466V106.5H246.522V105.5ZM259.626 24.428C251.654 24.428 245.201 22.295 240.221 18.0668L239.574 18.8291C244.77 23.241 251.469 25.428 259.626 25.428V24.428ZM240.229 18.0735C235.355 13.762 232.91 8.04798 232.91 0.879997H231.91C231.91 8.30401 234.456 14.3019 239.566 18.8225L240.229 18.0735ZM232.41 1.38H247.962V0.379997H232.41V1.38ZM247.462 0.879997C247.462 4.15761 248.459 6.92192 250.472 9.13633L251.212 8.46366C249.385 6.45407 248.462 3.93838 248.462 0.879997H247.462ZM250.488 9.15355C252.627 11.2922 255.7 12.324 259.626 12.324V11.324C255.871 11.324 253.089 10.3398 251.195 8.44645L250.488 9.15355ZM259.626 12.324C263.357 12.324 266.246 11.3407 268.196 9.28837L267.471 8.59962C265.773 10.3873 263.19 11.324 259.626 11.324V12.324ZM268.196 9.28882C270.206 7.17827 271.393 4.38108 271.786 0.936771L270.793 0.823223C270.418 4.09891 269.302 6.67772 267.472 8.59917L268.196 9.28882ZM271.29 1.38H286.842V0.379997H271.29V1.38ZM286.342 0.879997C286.342 8.04469 283.851 13.7579 278.882 18.0704L279.537 18.8256C284.745 14.3061 287.342 8.3073 287.342 0.879997H286.342ZM278.882 18.0699C274 22.2949 267.597 24.428 259.626 24.428V25.428C267.782 25.428 274.435 23.2411 279.537 18.8261L278.882 18.0699ZM371.444 94.768L371.887 94.5364L370.944 94.768H371.444ZM371.444 136.672V137.172H371.944V136.672H371.444ZM344.084 136.672H343.584V137.172H344.084V136.672ZM344.084 30.256V29.756H343.584V30.256H344.084ZM367.844 30.256H368.344V29.756H367.844V30.256ZM367.844 41.632H367.344V43.3162L368.263 41.9048L367.844 41.632ZM377.78 32.128L377.54 31.6894L377.535 31.6919L377.78 32.128ZM410.324 34L410.05 34.4184L410.055 34.4218L410.324 34ZM422.708 47.824L422.262 48.0505L422.265 48.0563L422.708 47.824ZM423.14 88.144L422.687 87.9322L423.14 88.144ZM411.62 102.256L411.332 101.848L411.328 101.85L411.62 102.256ZM395.348 79.504L394.962 79.1861L394.956 79.1931L395.348 79.504ZM395.204 56.176L394.838 56.5172L394.844 56.5235L395.204 56.176ZM371.444 59.632L371.035 59.3442L370.944 59.4737V59.632H371.444ZM371.444 72.736H370.944V72.8349L370.982 72.9264L371.444 72.736ZM377.348 81.088L377.016 81.4618L377.024 81.4686L377.348 81.088ZM395.06 106.94C383.876 106.94 376.199 102.785 371.887 94.5364L371.001 94.9996C375.521 103.647 383.588 107.94 395.06 107.94V106.94ZM370.944 94.768V136.672H371.944V94.768H370.944ZM371.444 136.172H344.084V137.172H371.444V136.172ZM344.584 136.672V30.256H343.584V136.672H344.584ZM344.084 30.756H367.844V29.756H344.084V30.756ZM367.344 30.256V41.632H368.344V30.256H367.344ZM368.263 41.9048C370.911 37.8382 374.165 34.729 378.025 32.5641L377.535 31.6919C373.522 33.943 370.153 37.1698 367.425 41.3592L368.263 41.9048ZM378.02 32.5665C381.963 30.4072 386.725 29.316 392.324 29.316V28.316C386.595 28.316 381.661 29.4328 377.54 31.6894L378.02 32.5665ZM392.324 29.316C398.953 29.316 404.857 31.0191 410.05 34.4184L410.598 33.5816C405.231 30.0689 399.135 28.316 392.324 28.316V29.316ZM410.055 34.4218C415.256 37.7313 419.325 42.2702 422.262 48.0505L423.154 47.5975C420.139 41.6658 415.952 36.9886 410.592 33.5782L410.055 34.4218ZM422.265 48.0563C425.295 53.8316 426.816 60.4221 426.816 67.84H427.816C427.816 60.2819 426.265 53.5284 423.151 47.5917L422.265 48.0563ZM426.816 67.84C426.816 75.362 425.436 82.056 422.687 87.9322L423.593 88.3558C426.412 82.328 427.816 75.486 427.816 67.84H426.816ZM422.687 87.9322C419.936 93.8132 416.15 98.4464 411.332 101.848L411.908 102.664C416.882 99.1536 420.776 94.3788 423.593 88.3558L422.687 87.9322ZM411.328 101.85C406.618 105.241 401.201 106.94 395.06 106.94V107.94C401.399 107.94 407.022 106.183 411.912 102.662L411.328 101.85ZM385.556 84.9C389.654 84.9 393.059 83.1903 395.739 79.8149L394.956 79.1931C392.453 82.3457 389.329 83.9 385.556 83.9V84.9ZM395.734 79.8219C398.502 76.4601 399.88 72.4088 399.88 67.696H398.88C398.88 72.1992 397.569 76.0199 394.962 79.1861L395.734 79.8219ZM399.88 67.696C399.88 62.7937 398.455 58.8197 395.563 55.8285L394.844 56.5235C397.521 59.2923 398.88 62.9983 398.88 67.696H399.88ZM395.569 55.8348C392.773 52.8384 389.032 51.356 384.404 51.356V52.356C388.799 52.356 392.259 53.7536 394.838 56.5172L395.569 55.8348ZM384.404 51.356C379.206 51.356 374.748 54.0673 371.035 59.3442L371.853 59.9197C375.435 54.8287 379.618 52.356 384.404 52.356V51.356ZM370.944 59.632V72.736H371.944V59.632H370.944ZM370.982 72.9264C372.354 76.2593 374.366 79.1063 377.016 81.4617L377.68 80.7143C375.146 78.4617 373.222 75.7407 371.906 72.5456L370.982 72.9264ZM377.024 81.4686C379.689 83.7389 382.536 84.9 385.556 84.9V83.9C382.816 83.9 380.191 82.8531 377.672 80.7074L377.024 81.4686ZM437.318 23.92H436.818V24.42H437.318V23.92ZM437.318 0.879997V0.379997H436.818V0.879997H437.318ZM464.678 0.879997H465.178V0.379997H464.678V0.879997ZM464.678 23.92V24.42H465.178V23.92H464.678ZM437.318 106H436.818V106.5H437.318V106ZM437.318 30.256V29.756H436.818V30.256H437.318ZM464.678 30.256H465.178V29.756H464.678V30.256ZM464.678 106V106.5H465.178V106H464.678ZM437.818 23.92V0.879997H436.818V23.92H437.818ZM437.318 1.38H464.678V0.379997H437.318V1.38ZM464.178 0.879997V23.92H465.178V0.879997H464.178ZM464.678 23.42H437.318V24.42H464.678V23.42ZM437.818 106V30.256H436.818V106H437.818ZM437.318 30.756H464.678V29.756H437.318V30.756ZM464.178 30.256V106H465.178V30.256H464.178ZM464.678 105.5H437.318V106.5H464.678V105.5ZM478.809 106H478.309V106.5H478.809V106ZM478.809 30.256V29.756H478.309V30.256H478.809ZM539.001 32.848L538.783 33.2977L538.793 33.3023L539.001 32.848ZM546.633 39.472L546.196 39.7135L546.201 39.7226L546.206 39.7315L546.633 39.472ZM546.201 59.632L545.777 59.3669L545.771 59.3767L546.201 59.632ZM537.273 66.976L537.071 66.5187L535.802 67.0797L537.137 67.4572L537.273 66.976ZM548.217 73.024L547.87 73.3835L548.217 73.024ZM544.329 101.536L544.091 101.097L544.329 101.536ZM504.729 59.488H504.229V59.988H504.729V59.488ZM504.729 48.4V47.9H504.229V48.4H504.729ZM504.729 87.856H504.229V88.356H504.729V87.856ZM524.457 86.272L524.12 85.9034L524.457 86.272ZM524.457 77.632L524.12 78.0006L524.128 78.0086L524.137 78.0161L524.457 77.632ZM504.729 76.048V75.548H504.229V76.048H504.729ZM479.309 106V30.256H478.309V106H479.309ZM478.809 30.756H524.601V29.756H478.809V30.756ZM524.601 30.756C530.61 30.756 535.325 31.6157 538.783 33.2976L539.22 32.3984C535.573 30.6243 530.689 29.756 524.601 29.756V30.756ZM538.793 33.3023C542.27 34.9001 544.722 37.0429 546.196 39.7135L547.071 39.2305C545.473 36.3331 542.837 34.0599 539.21 32.3937L538.793 33.3023ZM546.206 39.7315C547.789 42.3382 548.581 45.2239 548.581 48.4H549.581C549.581 45.0481 548.742 41.9818 547.061 39.2125L546.206 39.7315ZM548.581 48.4C548.581 52.7429 547.638 56.3903 545.777 59.367L546.625 59.897C548.605 56.7297 549.581 52.8891 549.581 48.4H548.581ZM545.771 59.3767C544.013 62.3383 541.129 64.7256 537.071 66.5187L537.475 67.4333C541.673 65.5784 544.742 63.0697 546.631 59.8873L545.771 59.3767ZM537.137 67.4572C541.486 68.686 545.057 70.6648 547.87 73.3835L548.565 72.6645C545.617 69.8152 541.893 67.762 537.409 66.4948L537.137 67.4572ZM547.87 73.3835C550.624 76.046 552.037 79.9306 552.037 85.12H553.037C553.037 79.7494 551.571 75.57 548.565 72.6645L547.87 73.3835ZM552.037 85.12C552.037 92.9646 549.355 98.2336 544.091 101.097L544.568 101.975C550.248 98.8865 553.037 93.2114 553.037 85.12H552.037ZM544.091 101.097C538.724 104.016 531.044 105.5 521.001 105.5V106.5C531.119 106.5 538.991 105.008 544.568 101.975L544.091 101.097ZM521.001 105.5H478.809V106.5H521.001V105.5ZM504.729 59.988H517.833V58.988H504.729V59.988ZM517.833 59.988C519.786 59.988 521.341 59.4866 522.403 58.397C523.463 57.3098 523.949 55.7219 523.949 53.728H522.949C522.949 55.5741 522.499 56.8662 521.687 57.699C520.878 58.5294 519.625 58.988 517.833 58.988V59.988ZM523.949 53.728C523.949 51.868 523.458 50.3829 522.39 49.3693C521.326 48.3603 519.776 47.9 517.833 47.9V48.9C519.635 48.9 520.893 49.3277 521.701 50.0947C522.505 50.8571 522.949 52.036 522.949 53.728H523.949ZM517.833 47.9H504.729V48.9H517.833V47.9ZM504.229 48.4V59.488H505.229V48.4H504.229ZM504.729 88.356H520.137V87.356H504.729V88.356ZM520.137 88.356C521.976 88.356 523.541 87.7903 524.795 86.6406L524.12 85.9034C523.07 86.8657 521.755 87.356 520.137 87.356V88.356ZM524.795 86.6406C526.068 85.4738 526.685 83.8905 526.685 81.952H525.685C525.685 83.6615 525.151 84.9582 524.12 85.9034L524.795 86.6406ZM526.685 81.952C526.685 79.9285 526.074 78.3283 524.777 77.2479L524.137 78.0161C525.145 78.8557 525.685 80.1355 525.685 81.952H526.685ZM524.795 77.2634C523.541 76.1137 521.976 75.548 520.137 75.548V76.548C521.755 76.548 523.07 77.0383 524.12 78.0006L524.795 77.2634ZM520.137 75.548H504.729V76.548H520.137V75.548ZM504.229 76.048V87.856H505.229V76.048H504.229ZM578.569 102.112L578.318 102.545L578.321 102.547L578.569 102.112ZM564.457 88L564.017 88.2379L564.02 88.2434L564.457 88ZM564.457 49.12L564.9 49.352L564.901 49.3491L564.457 49.12ZM578.425 34.432L578.68 34.862L578.685 34.859L578.425 34.432ZM623.929 34.288L624.184 33.8581L623.929 34.288ZM637.897 48.688L638.338 48.4531L637.897 48.688ZM641.929 76.48V76.98H642.345L642.42 76.571L641.929 76.48ZM588.793 76.48V75.98H588.256L588.294 76.5156L588.793 76.48ZM593.257 85.264L592.976 85.6779L592.986 85.6846L593.257 85.264ZM610.393 85.84L610.169 85.3927L610.163 85.3961L610.393 85.84ZM615.721 80.224L615.858 79.7432L615.409 79.6148L615.25 80.0546L615.721 80.224ZM638.905 86.848L639.351 87.0744L639.625 86.5338L639.042 86.3672L638.905 86.848ZM624.649 101.68L624.905 102.109L624.649 101.68ZM588.217 60.064L587.721 59.9988L587.647 60.564H588.217V60.064ZM613.273 60.064V60.564H613.828L613.77 60.0117L613.273 60.064ZM609.241 51.424L608.895 51.7854L608.903 51.7926L609.241 51.424ZM592.249 51.424L592.594 51.7853L592.249 51.424ZM601.177 106.94C592.412 106.94 584.965 105.178 578.816 101.677L578.321 102.547C584.652 106.15 592.278 107.94 601.177 107.94V106.94ZM578.819 101.679C572.748 98.1695 568.111 93.5291 564.893 87.7566L564.02 88.2434C567.331 94.1829 572.101 98.9505 578.318 102.545L578.819 101.679ZM564.897 87.7621C561.768 81.9799 560.205 75.7737 560.205 69.136H559.205C559.205 75.9383 560.809 82.3081 564.017 88.2379L564.897 87.7621ZM560.205 69.136C560.205 61.9151 561.772 55.3235 564.9 49.352L564.014 48.888C560.806 55.0125 559.205 61.7649 559.205 69.136H560.205ZM564.901 49.3491C568.025 43.2914 572.614 38.4638 578.68 34.8619L578.169 34.0021C571.948 37.6962 567.225 42.6606 564.012 48.8909L564.901 49.3491ZM578.685 34.859C584.733 31.1735 592.221 29.316 601.177 29.316V28.316C592.084 28.316 584.405 30.2025 578.165 34.005L578.685 34.859ZM601.177 29.316C610.134 29.316 617.625 31.1264 623.673 34.7179L624.184 33.8581C617.945 30.1536 610.267 28.316 601.177 28.316V29.316ZM623.673 34.7179C629.744 38.3221 634.333 43.0566 637.455 48.9229L638.338 48.4531C635.125 42.4154 630.402 37.5499 624.184 33.8581L623.673 34.7179ZM637.455 48.9229C640.583 54.7997 642.149 61.1986 642.149 68.128H643.149C643.149 61.0414 641.546 54.4803 638.338 48.4531L637.455 48.9229ZM642.149 68.128C642.149 71.0773 641.911 73.8305 641.437 76.389L642.42 76.571C642.907 73.9455 643.149 71.1307 643.149 68.128H642.149ZM641.929 75.98H588.793V76.98H641.929V75.98ZM588.294 76.5156C588.59 80.6593 590.131 83.747 592.976 85.6777L593.537 84.8503C591.007 83.133 589.572 80.3647 589.292 76.4444L588.294 76.5156ZM592.986 85.6846C595.754 87.464 598.776 88.356 602.041 88.356V87.356C598.969 87.356 596.135 86.52 593.527 84.8434L592.986 85.6846ZM602.041 88.356C605.095 88.356 607.958 87.6655 610.623 86.2839L610.163 85.3961C607.643 86.7025 604.938 87.356 602.041 87.356V88.356ZM610.616 86.2872C613.397 84.8967 615.276 82.9355 616.191 80.3934L615.25 80.0546C614.437 82.3125 612.764 84.0953 610.169 85.3928L610.616 86.2872ZM615.583 80.7048L638.767 87.3288L639.042 86.3672L615.858 79.7432L615.583 80.7048ZM638.459 86.6216C635.434 92.5768 630.752 97.4538 624.392 101.251L624.905 102.109C631.409 98.2262 636.231 93.2152 639.351 87.0744L638.459 86.6216ZM624.392 101.251C618.054 105.035 610.323 106.94 601.177 106.94V107.94C610.462 107.94 618.38 106.005 624.905 102.109L624.392 101.251ZM588.217 60.564H613.273V59.564H588.217V60.564ZM613.77 60.0117C613.376 56.2646 611.988 53.2638 609.579 51.0554L608.903 51.7926C611.102 53.8082 612.402 56.5674 612.776 60.1163L613.77 60.0117ZM609.586 51.0627C607.273 48.8498 604.311 47.756 600.745 47.756V48.756C604.09 48.756 606.793 49.7742 608.895 51.7853L609.586 51.0627ZM600.745 47.756C597.178 47.756 594.217 48.8498 591.903 51.0627L592.594 51.7853C594.697 49.7742 597.399 48.756 600.745 48.756V47.756ZM591.903 51.0627C589.597 53.2686 588.213 56.2617 587.721 59.9988L588.712 60.1292C589.181 56.5702 590.485 53.8034 592.594 51.7853L591.903 51.0627ZM651.919 106H651.419V106.5H651.919V106ZM651.919 30.256V29.756H651.419V30.256H651.919ZM679.279 30.256H679.779V29.756H679.279V30.256ZM679.279 56.032H678.779V56.532H679.279V56.032ZM699.439 56.032V56.532H699.939V56.032H699.439ZM699.439 30.256V29.756H698.939V30.256H699.439ZM726.799 30.256H727.299V29.756H726.799V30.256ZM726.799 106V106.5H727.299V106H726.799ZM699.439 106H698.939V106.5H699.439V106ZM699.439 78.352H699.939V77.852H699.439V78.352ZM679.279 78.352V77.852H678.779V78.352H679.279ZM679.279 106V106.5H679.779V106H679.279ZM652.419 106V30.256H651.419V106H652.419ZM651.919 30.756H679.279V29.756H651.919V30.756ZM678.779 30.256V56.032H679.779V30.256H678.779ZM679.279 56.532H699.439V55.532H679.279V56.532ZM699.939 56.032V30.256H698.939V56.032H699.939ZM699.439 30.756H726.799V29.756H699.439V30.756ZM726.299 30.256V106H727.299V30.256H726.299ZM726.799 105.5H699.439V106.5H726.799V105.5ZM699.939 106V78.352H698.939V106H699.939ZM699.439 77.852H679.279V78.852H699.439V77.852ZM678.779 78.352V106H679.779V78.352H678.779ZM679.279 105.5H651.919V106.5H679.279V105.5ZM741.216 106H740.716V106.5H741.216V106ZM741.216 30.256V29.756H740.716V30.256H741.216ZM768.576 30.256H769.076V29.756H768.576V30.256ZM768.576 51.568H768.076V52.068H768.576V51.568ZM805.44 58.912L805.093 59.2723L805.096 59.2757L805.44 58.912ZM805.872 98.368L805.508 98.0249L805.505 98.0286L805.872 98.368ZM768.576 85.408H768.076V85.908H768.576V85.408ZM786.144 72.736L785.764 73.0614L785.77 73.0689L785.777 73.0762L786.144 72.736ZM768.576 70.72V70.22H768.076V70.72H768.576ZM741.716 106V30.256H740.716V106H741.716ZM741.216 30.756H768.576V29.756H741.216V30.756ZM768.076 30.256V51.568H769.076V30.256H768.076ZM768.576 52.068H783.84V51.068H768.576V52.068ZM783.84 52.068C793.065 52.068 800.125 54.4916 805.093 59.2723L805.786 58.5517C800.578 53.5404 793.238 51.068 783.84 51.068V52.068ZM805.096 59.2757C810.07 63.9677 812.572 70.2126 812.572 78.064H813.572C813.572 69.9794 810.985 63.4563 805.783 58.5483L805.096 59.2757ZM812.572 78.064C812.572 86.4125 810.203 93.0483 805.508 98.0249L806.235 98.7111C811.14 93.5117 813.572 86.6115 813.572 78.064H812.572ZM805.505 98.0286C800.92 102.988 794.301 105.5 785.568 105.5V106.5C794.498 106.5 801.416 103.924 806.239 98.7074L805.505 98.0286ZM785.568 105.5H741.216V106.5H785.568V105.5ZM768.576 85.908H780.96V84.908H768.576V85.908ZM780.96 85.908C783.394 85.908 785.31 85.2735 786.612 83.9184C787.911 82.567 788.516 80.5842 788.516 78.064H787.516C787.516 80.4398 786.945 82.129 785.891 83.2256C784.841 84.3185 783.229 84.908 780.96 84.908V85.908ZM788.516 78.064C788.516 75.757 787.861 73.8504 786.51 72.3958L785.777 73.0762C786.922 74.3096 787.516 75.955 787.516 78.064H788.516ZM786.523 72.4106C785.249 70.9245 783.363 70.22 780.96 70.22V71.22C783.165 71.22 784.734 71.8595 785.764 73.0614L786.523 72.4106ZM780.96 70.22H768.576V71.22H780.96V70.22ZM768.076 70.72V85.408H769.076V70.72H768.076Z" fill="white"/>
</g>
<path d="M330.366 261.968L330.105 262.395L330.113 262.4L330.366 261.968ZM316.254 247.424L315.812 247.659L315.815 247.664L316.254 247.424ZM316.254 208.832L315.814 208.595L315.812 208.597L316.254 208.832ZM330.366 194.288L330.113 193.856L330.11 193.858L330.366 194.288ZM376.158 194.576L375.896 195.002L376.158 194.576ZM390.126 209.408L390.27 209.887L390.842 209.714L390.571 209.182L390.126 209.408ZM363.486 217.472L363.075 217.757L363.282 218.056L363.63 217.951L363.486 217.472ZM363.486 238.784L363.63 238.305L363.282 238.2L363.075 238.499L363.486 238.784ZM390.126 246.848L390.571 247.074L390.842 246.542L390.27 246.369L390.126 246.848ZM376.158 261.68L375.896 261.254L376.158 261.68ZM353.118 266.94C344.258 266.94 336.765 265.13 330.618 261.536L330.113 262.4C336.446 266.102 344.122 267.94 353.118 267.94V266.94ZM330.626 261.541C324.552 257.84 319.911 253.054 316.692 247.184L315.815 247.664C319.124 253.698 323.891 258.608 330.105 262.395L330.626 261.541ZM316.695 247.189C313.566 241.311 312.002 234.96 312.002 228.128H311.002C311.002 235.12 312.605 241.633 315.812 247.659L316.695 247.189ZM312.002 228.128C312.002 221.296 313.566 214.945 316.695 209.067L315.812 208.597C312.605 214.623 311.002 221.136 311.002 228.128H312.002ZM316.694 209.069C319.913 203.104 324.552 198.322 330.621 194.718L330.11 193.858C323.892 197.55 319.122 202.464 315.814 208.595L316.694 209.069ZM330.618 194.72C336.765 191.126 344.258 189.316 353.118 189.316V188.316C344.122 188.316 336.446 190.154 330.113 193.856L330.618 194.72ZM353.118 189.316C362.168 189.316 369.752 191.221 375.896 195.002L376.42 194.15C370.084 190.251 362.308 188.316 353.118 188.316V189.316ZM375.896 195.002C382.064 198.798 386.653 203.675 389.68 209.634L390.571 209.182C387.454 203.045 382.732 198.034 376.42 194.15L375.896 195.002ZM389.981 208.929L363.341 216.993L363.63 217.951L390.27 209.887L389.981 208.929ZM363.897 217.187C361.215 213.314 357.56 211.356 352.974 211.356V212.356C357.22 212.356 360.572 214.142 363.075 217.757L363.897 217.187ZM352.974 211.356C349.082 211.356 345.781 212.86 343.098 215.842L343.841 216.51C346.342 213.732 349.377 212.356 352.974 212.356V211.356ZM343.098 215.842C340.4 218.839 339.082 222.956 339.082 228.128H340.082C340.082 223.124 341.355 219.273 343.841 216.51L343.098 215.842ZM339.082 228.128C339.082 233.3 340.4 237.417 343.098 240.414L343.841 239.746C341.355 236.983 340.082 233.132 340.082 228.128H339.082ZM343.098 240.414C345.781 243.396 349.082 244.9 352.974 244.9V243.9C349.377 243.9 346.342 242.524 343.841 239.746L343.098 240.414ZM352.974 244.9C357.56 244.9 361.215 242.942 363.897 239.069L363.075 238.499C360.572 242.114 357.22 243.9 352.974 243.9V244.9ZM363.341 239.263L389.981 247.327L390.27 246.369L363.63 238.305L363.341 239.263ZM389.68 246.622C386.653 252.581 382.064 257.458 375.896 261.254L376.42 262.106C382.732 258.222 387.454 253.211 390.571 247.074L389.68 246.622ZM375.896 261.254C369.752 265.035 362.168 266.94 353.118 266.94V267.94C362.308 267.94 370.084 266.005 376.42 262.106L375.896 261.254ZM399.075 266H398.575V266.5H399.075V266ZM399.075 190.256V189.756H398.575V190.256H399.075ZM473.235 190.256H473.735V189.756H473.235V190.256ZM473.235 266V266.5H473.735V266H473.235ZM445.875 266H445.375V266.5H445.875V266ZM445.875 214.016H446.375V213.516H445.875V214.016ZM426.435 214.016V213.516H425.935V214.016H426.435ZM426.435 266V266.5H426.935V266H426.435ZM399.575 266V190.256H398.575V266H399.575ZM399.075 190.756H473.235V189.756H399.075V190.756ZM472.735 190.256V266H473.735V190.256H472.735ZM473.235 265.5H445.875V266.5H473.235V265.5ZM446.375 266V214.016H445.375V266H446.375ZM445.875 213.516H426.435V214.516H445.875V213.516ZM425.935 214.016V266H426.935V214.016H425.935ZM426.435 265.5H399.075V266.5H426.435V265.5ZM501.925 261.968L501.665 262.395L501.669 262.398L501.925 261.968ZM487.957 208.688L487.515 208.453L487.957 208.688ZM501.925 194.288L501.669 193.858L501.925 194.288ZM547.429 194.288L547.684 193.858L547.429 194.288ZM561.397 208.688L561.838 208.453L561.397 208.688ZM547.429 261.968L547.684 262.398L547.689 262.395L547.429 261.968ZM515.029 240.08L514.646 240.401L514.651 240.408L514.657 240.414L515.029 240.08ZM534.325 240.08L534.703 240.408L534.708 240.401L534.325 240.08ZM515.029 216.176L514.657 215.841L514.651 215.849L515.029 216.176ZM524.677 266.94C515.719 266.94 508.229 265.13 502.18 261.538L501.669 262.398C507.909 266.102 515.586 267.94 524.677 267.94V266.94ZM502.185 261.541C496.112 257.84 491.521 253.057 488.398 247.189L487.515 247.659C490.728 253.695 495.449 258.608 501.665 262.395L502.185 261.541ZM488.398 247.189C485.27 241.311 483.705 234.96 483.705 228.128H482.705C482.705 235.12 484.308 241.633 487.515 247.659L488.398 247.189ZM483.705 228.128C483.705 221.199 485.27 214.8 488.398 208.923L487.515 208.453C484.307 214.48 482.705 221.041 482.705 228.128H483.705ZM488.398 208.923C491.521 203.057 496.11 198.322 502.18 194.718L501.669 193.858C495.452 197.55 490.729 202.415 487.515 208.453L488.398 208.923ZM502.18 194.718C508.229 191.126 515.719 189.316 524.677 189.316V188.316C515.586 188.316 507.909 190.154 501.669 193.858L502.18 194.718ZM524.677 189.316C533.634 189.316 541.125 191.126 547.173 194.718L547.684 193.858C541.445 190.154 533.767 188.316 524.677 188.316V189.316ZM547.173 194.718C553.244 198.322 557.833 203.057 560.955 208.923L561.838 208.453C558.625 202.415 553.902 197.55 547.684 193.858L547.173 194.718ZM560.955 208.923C564.083 214.8 565.649 221.199 565.649 228.128H566.649C566.649 221.041 565.046 214.48 561.838 208.453L560.955 208.923ZM565.649 228.128C565.649 234.96 564.084 241.311 560.955 247.189L561.838 247.659C565.046 241.633 566.649 235.12 566.649 228.128H565.649ZM560.955 247.189C557.832 253.057 553.241 257.84 547.169 261.541L547.689 262.395C553.904 258.608 558.625 253.695 561.838 247.659L560.955 247.189ZM547.173 261.538C541.125 265.13 533.634 266.94 524.677 266.94V267.94C533.767 267.94 541.445 266.102 547.684 262.398L547.173 261.538ZM510.785 228.128C510.785 233.203 512.055 237.312 514.646 240.401L515.412 239.759C513.011 236.896 511.785 233.037 511.785 228.128H510.785ZM514.657 240.414C517.343 243.399 520.694 244.9 524.677 244.9V243.9C520.98 243.9 517.899 242.521 515.4 239.746L514.657 240.414ZM524.677 244.9C528.752 244.9 532.108 243.401 534.703 240.407L533.947 239.753C531.549 242.519 528.473 243.9 524.677 243.9V244.9ZM534.708 240.401C537.299 237.312 538.569 233.203 538.569 228.128H537.569C537.569 233.037 536.343 236.896 533.942 239.759L534.708 240.401ZM538.569 228.128C538.569 222.96 537.3 218.846 534.703 215.849L533.947 216.503C536.341 219.266 537.569 223.12 537.569 228.128H538.569ZM534.703 215.849C532.108 212.855 528.752 211.356 524.677 211.356V212.356C528.473 212.356 531.549 213.737 533.947 216.503L534.703 215.849ZM524.677 211.356C520.694 211.356 517.343 212.857 514.657 215.842L515.4 216.51C517.899 213.735 520.98 212.356 524.677 212.356V211.356ZM514.651 215.849C512.053 218.846 510.785 222.96 510.785 228.128H511.785C511.785 223.12 513.013 219.266 515.407 216.503L514.651 215.849ZM603.194 254.768L603.637 254.536L602.694 254.768H603.194ZM603.194 296.672V297.172H603.694V296.672H603.194ZM575.834 296.672H575.334V297.172H575.834V296.672ZM575.834 190.256V189.756H575.334V190.256H575.834ZM599.594 190.256H600.094V189.756H599.594V190.256ZM599.594 201.632H599.094V203.316L600.013 201.905L599.594 201.632ZM609.53 192.128L609.29 191.689L609.285 191.692L609.53 192.128ZM642.074 194L641.8 194.418L641.805 194.422L642.074 194ZM654.458 207.824L654.012 208.051L654.015 208.056L654.458 207.824ZM654.89 248.144L654.437 247.932L654.89 248.144ZM643.37 262.256L643.082 261.848L643.078 261.85L643.37 262.256ZM627.098 239.504L626.712 239.186L626.706 239.193L627.098 239.504ZM626.954 216.176L626.588 216.517L626.594 216.524L626.954 216.176ZM603.194 219.632L602.785 219.344L602.694 219.474V219.632H603.194ZM603.194 232.736H602.694V232.835L602.732 232.926L603.194 232.736ZM609.098 241.088L608.766 241.462L608.774 241.469L609.098 241.088ZM626.81 266.94C615.626 266.94 607.949 262.785 603.637 254.536L602.751 255C607.271 263.647 615.338 267.94 626.81 267.94V266.94ZM602.694 254.768V296.672H603.694V254.768H602.694ZM603.194 296.172H575.834V297.172H603.194V296.172ZM576.334 296.672V190.256H575.334V296.672H576.334ZM575.834 190.756H599.594V189.756H575.834V190.756ZM599.094 190.256V201.632H600.094V190.256H599.094ZM600.013 201.905C602.661 197.838 605.915 194.729 609.774 192.564L609.285 191.692C605.272 193.943 601.903 197.17 599.175 201.359L600.013 201.905ZM609.77 192.567C613.713 190.407 618.475 189.316 624.074 189.316V188.316C618.345 188.316 613.411 189.433 609.29 191.689L609.77 192.567ZM624.074 189.316C630.703 189.316 636.607 191.019 641.8 194.418L642.348 193.582C636.981 190.069 630.885 188.316 624.074 188.316V189.316ZM641.805 194.422C647.006 197.731 651.075 202.27 654.012 208.051L654.904 207.597C651.889 201.666 647.702 196.989 642.342 193.578L641.805 194.422ZM654.015 208.056C657.045 213.832 658.566 220.422 658.566 227.84H659.566C659.566 220.282 658.015 213.528 654.901 207.592L654.015 208.056ZM658.566 227.84C658.566 235.362 657.186 242.056 654.437 247.932L655.343 248.356C658.162 242.328 659.566 235.486 659.566 227.84H658.566ZM654.437 247.932C651.686 253.813 647.9 258.446 643.082 261.848L643.658 262.664C648.632 259.154 652.526 254.379 655.343 248.356L654.437 247.932ZM643.078 261.85C638.368 265.241 632.951 266.94 626.81 266.94V267.94C633.149 267.94 638.772 266.183 643.662 262.662L643.078 261.85ZM617.306 244.9C621.404 244.9 624.809 243.19 627.489 239.815L626.706 239.193C624.203 242.346 621.079 243.9 617.306 243.9V244.9ZM627.484 239.822C630.252 236.46 631.63 232.409 631.63 227.696H630.63C630.63 232.199 629.319 236.02 626.712 239.186L627.484 239.822ZM631.63 227.696C631.63 222.794 630.205 218.82 627.313 215.828L626.594 216.524C629.271 219.292 630.63 222.998 630.63 227.696H631.63ZM627.319 215.835C624.523 212.838 620.782 211.356 616.154 211.356V212.356C620.549 212.356 624.009 213.754 626.588 216.517L627.319 215.835ZM616.154 211.356C610.956 211.356 606.498 214.067 602.785 219.344L603.603 219.92C607.185 214.829 611.368 212.356 616.154 212.356V211.356ZM602.694 219.632V232.736H603.694V219.632H602.694ZM602.732 232.926C604.104 236.259 606.116 239.106 608.766 241.462L609.43 240.714C606.896 238.462 604.972 235.741 603.656 232.546L602.732 232.926ZM608.774 241.469C611.439 243.739 614.286 244.9 617.306 244.9V243.9C614.566 243.9 611.941 242.853 609.422 240.707L608.774 241.469ZM685.628 266H685.128V266.5H685.628V266ZM685.628 214.016H686.128V213.516H685.628V214.016ZM664.028 214.016H663.528V214.516H664.028V214.016ZM664.028 190.256V189.756H663.528V190.256H664.028ZM734.588 190.256H735.088V189.756H734.588V190.256ZM734.588 214.016V214.516H735.088V214.016H734.588ZM712.988 214.016V213.516H712.488V214.016H712.988ZM712.988 266V266.5H713.488V266H712.988ZM686.128 266V214.016H685.128V266H686.128ZM685.628 213.516H664.028V214.516H685.628V213.516ZM664.528 214.016V190.256H663.528V214.016H664.528ZM664.028 190.756H734.588V189.756H664.028V190.756ZM734.088 190.256V214.016H735.088V190.256H734.088ZM734.588 213.516H712.988V214.516H734.588V213.516ZM712.488 214.016V266H713.488V214.016H712.488ZM712.988 265.5H685.628V266.5H712.988V265.5ZM749.085 298.976L749.176 298.484L749.167 298.483L749.158 298.481L749.085 298.976ZM739.581 296.96L739.085 296.899L739.031 297.335L739.457 297.444L739.581 296.96ZM742.461 273.632L742.634 273.163L742.042 272.944L741.965 273.571L742.461 273.632ZM759.885 274.208L760.189 274.605L759.885 274.208ZM762.909 268.736L763.403 268.815L763.403 268.814L762.909 268.736ZM763.341 266L763.835 266.078L763.855 265.951L763.811 265.829L763.341 266ZM735.837 190.256V189.756H735.123L735.367 190.427L735.837 190.256ZM763.917 190.256L764.396 190.111L764.288 189.756H763.917V190.256ZM778.317 237.92L777.838 238.065L778.368 239.817L778.803 238.039L778.317 237.92ZM789.981 190.256V189.756H789.589L789.495 190.137L789.981 190.256ZM815.469 190.256L815.948 190.401L816.142 189.756H815.469V190.256ZM789.837 275.072L789.358 274.927L789.357 274.931L789.837 275.072ZM782.781 287.888L782.408 287.555L782.404 287.559L782.781 287.888ZM771.117 296.528L770.913 296.071L770.905 296.075L771.117 296.528ZM756.573 299.196C754.206 299.196 751.741 298.959 749.176 298.484L748.994 299.468C751.613 299.953 754.14 300.196 756.573 300.196V299.196ZM749.158 298.481C746.589 298.101 743.439 297.433 739.705 296.476L739.457 297.444C743.211 298.407 746.397 299.083 749.012 299.471L749.158 298.481ZM740.077 297.021L742.957 273.693L741.965 273.571L739.085 296.899L740.077 297.021ZM742.288 274.101C746.733 275.744 750.539 276.58 753.693 276.58V275.58C750.703 275.58 747.021 274.784 742.634 273.163L742.288 274.101ZM753.693 276.58C756.275 276.58 758.452 275.933 760.189 274.605L759.581 273.811C758.054 274.979 756.103 275.58 753.693 275.58V276.58ZM760.189 274.605C761.941 273.265 763.002 271.317 763.403 268.815L762.415 268.657C762.048 270.955 761.093 272.655 759.581 273.811L760.189 274.605ZM763.403 268.814L763.835 266.078L762.847 265.922L762.415 268.658L763.403 268.814ZM763.811 265.829L736.307 190.085L735.367 190.427L762.871 266.171L763.811 265.829ZM735.837 190.756H763.917V189.756H735.837V190.756ZM763.438 190.401L777.838 238.065L778.796 237.775L764.396 190.111L763.438 190.401ZM778.803 238.039L790.467 190.375L789.495 190.137L777.831 237.801L778.803 238.039ZM789.981 190.756H815.469V189.756H789.981V190.756ZM814.99 190.111L789.358 274.927L790.316 275.217L815.948 190.401L814.99 190.111ZM789.357 274.931C787.937 279.759 785.621 283.964 782.408 287.555L783.154 288.221C786.469 284.516 788.857 280.177 790.317 275.213L789.357 274.931ZM782.404 287.559C779.188 291.249 775.358 294.085 770.913 296.072L771.321 296.985C775.9 294.939 779.846 292.015 783.158 288.217L782.404 287.559ZM770.905 296.075C766.462 298.155 761.687 299.196 756.573 299.196V300.196C761.827 300.196 766.748 299.125 771.329 296.981L770.905 296.075Z" fill="#916C58"/>
</svg>