<svg width="24" height="24" viewBox="0 0 24 24" fill="none" xmlns="http://www.w3.org/2000/svg">
<path d="M20 10C20 16.2222 12 21.5556 12 21.5556C12 21.5556 4 16.2222 4 10C4 7.87827 4.84285 5.84344 6.34315 4.34315C7.84344 2.84285 9.87827 2 12 2C14.1217 2 16.1566 2.84285 17.6569 4.34315C19.1571 5.84344 20 7.87827 20 10Z" stroke="#916C58" stroke-linecap="round" stroke-linejoin="round"/>
<path d="M12 12.6667C13.4727 12.6667 14.6666 11.4728 14.6666 9.99999C14.6666 8.52724 13.4727 7.33333 12 7.33333C10.5272 7.33333 9.33331 8.52724 9.33331 9.99999C9.33331 11.4728 10.5272 12.6667 12 12.6667Z" stroke="#916C58" stroke-linecap="round" stroke-linejoin="round"/>
</svg>
