<svg width="20" height="21" viewBox="0 0 20 21" fill="none" xmlns="http://www.w3.org/2000/svg">
<path d="M1 2.5V4.50658C1 12.5147 7.49187 19.0066 15.5 19.0066H17.5C18.3284 19.0066 19 18.335 19 17.5066V14.9415C19 14.2959 18.5869 13.7227 17.9743 13.5185L14.7911 12.4574C14.1494 12.2435 13.4439 12.4856 13.0687 13.0484L12.3397 14.1418C11.9645 14.7047 11.259 14.9467 10.6173 14.7328L9.09189 14.2243C7.52761 13.7029 6.32743 12.4342 5.89358 10.8434L5.26652 8.54421C5.05706 7.77616 5.48408 6.97826 6.23933 6.72651L6.84189 6.52566C7.47227 6.31553 7.85611 5.67802 7.74687 5.02257L7.28534 2.2534C7.16479 1.53012 6.539 1 5.80575 1H2.5C1.67157 1 1 1.67157 1 2.5ZM0 2.5C0 1.11929 1.11929 0 2.5 0H5.80575C7.02784 0 8.07082 0.883533 8.27173 2.089L8.73326 4.85817C8.9234 5.999 8.25532 7.1086 7.15811 7.47434L6.55556 7.67519C6.30381 7.75911 6.16146 8.02508 6.23129 8.28109L6.85834 10.5803C7.20422 11.8485 8.16104 12.86 9.40811 13.2757L10.9335 13.7841C11.1474 13.8554 11.3826 13.7747 11.5077 13.5871L12.2366 12.4937C12.862 11.5556 14.0378 11.1522 15.1073 11.5087L18.2906 12.5698C19.3114 12.9101 20 13.8654 20 14.9415V17.5066C20 18.8873 18.8807 20.0066 17.5 20.0066H15.5C6.93959 20.0066 0 13.067 0 4.50658V2.5Z" fill="#916C58"/>
</svg>
