<svg width="50" height="23" viewBox="0 0 50 23" fill="none" xmlns="http://www.w3.org/2000/svg">
<g opacity="0.55">
<g style="mix-blend-mode:difference">
<path d="M8.562 2.55571C8.562 1.14403 7.24015 0 5.60904 0L2.95296 0C1.32185 0 0 1.14403 0 2.55571L0 6.77853C0 7.67479 0.272146 8.55728 0.791698 9.33424L4.70247 15.1982C4.90923 15.5086 5.0188 15.8619 5.0188 16.2198V20.4426C5.0188 20.6537 4.68833 20.8265 4.28012 20.8265C3.8719 20.8265 3.54143 20.6552 3.54143 20.4442L3.54143 15.6738H0L0 20.4442C0 21.8559 1.32185 22.9999 2.95296 22.9999H5.6108C7.24191 22.9999 8.56376 21.8559 8.56376 20.4442V16.2214C8.56376 15.3251 8.29162 14.4426 7.77207 13.6656L3.85953 7.8002C3.65277 7.48972 3.5432 7.13642 3.5432 6.77853L3.5432 2.55571C3.5432 2.34465 3.87366 2.17182 4.28188 2.17182C4.6901 2.17182 5.02056 2.34312 5.02056 2.55418L5.02056 7.31384H8.56376V2.55571H8.562Z" fill="white"/>
</g>
<path d="M17.9478 0L17.9478 22.9998H24.4136L24.4136 20.8277H21.5569L21.5569 12.5859H24.4136V10.4138H21.5569V2.1721H24.4136V0L17.9478 0Z" fill="#916C58"/>
<path d="M36.0151 0V22.9998H42.481V20.8277H39.6243V12.5859H42.481V10.4138H39.6243V2.1721H42.481V0L36.0151 0Z" fill="#916C58"/>
<path d="M14.038 0.000244141L10.4307 0.000244141L10.4307 23H16.8965L16.8965 20.8279H14.038L14.038 0.000244141Z" fill="#916C58"/>
<path d="M47.1428 20.8277V0L43.5337 0V22.9998H49.9995V20.8277H47.1428Z" fill="#916C58"/>
<path d="M30.1794 16.2571L28.5215 0L25.4668 0L28.3109 22.9998H32.0479L34.8938 0L31.8372 0L30.1794 16.2571Z" fill="#916C58"/>
</g>
</svg>
