<svg width="21" height="40" viewBox="0 0 21 40" fill="none" xmlns="http://www.w3.org/2000/svg">
<g opacity="0.55">
<g style="mix-blend-mode:difference">
<path d="M2.33349 33.1504C1.04455 33.1504 0 34.2079 0 35.5128L0 37.6376C0 38.9425 1.04455 40 2.33349 40H6.18912C7.00745 40 7.81321 39.7823 8.52261 39.3666L13.8766 36.238C14.1601 36.0726 14.4827 35.985 14.8095 35.985H18.6651C18.8578 35.985 19.0156 36.2493 19.0156 36.5759C19.0156 36.9025 18.8592 37.1669 18.6665 37.1669H14.3109V40H18.6665C19.9554 40 21 38.9425 21 37.6376V35.5114C21 34.2065 19.9554 33.149 18.6665 33.149H14.8109C13.9926 33.149 13.1868 33.3667 12.4774 33.7823L7.12196 36.9124C6.83848 37.0778 6.51589 37.1654 6.18912 37.1654H2.33349C2.14078 37.1654 1.98298 36.9011 1.98298 36.5745C1.98298 36.2479 2.13938 35.9835 2.33209 35.9835H6.67788V33.149H2.33349V33.1504Z" fill="#737374"/>
</g>
<path d="M0 25.6416H20.9999V20.4689H19.0167V22.7543H11.4916V20.4689H9.50834V22.7543H1.98323L1.98323 20.4689H0L0 25.6416Z" fill="#916C58"/>
<path d="M0 11.1877H20.9999V6.01506H19.0167V8.30043H11.4916V6.01506H9.50834V8.30043H1.98323L1.98323 6.01506H0L0 11.1877Z" fill="#916C58"/>
<path d="M0.000183105 28.7694L0.000183105 31.6553H21.0001V26.4826H19.0169V28.7694H0.000183105Z" fill="#916C58"/>
<path d="M19.0167 2.28541L0 2.28541L0 5.17273L20.9999 5.17273V4.52995e-05H19.0167V2.28541Z" fill="#916C58"/>
<path d="M14.8435 15.8564L0 17.1827L0 19.6265L20.9999 17.3512V14.3616L0 12.0849L0 14.5301L14.8435 15.8564Z" fill="#916C58"/>
</g>
</svg>
