<svg width="64" height="64" viewBox="0 0 64 64" fill="none" xmlns="http://www.w3.org/2000/svg">
<path fill-rule="evenodd" clip-rule="evenodd" d="M41.5688 0.97618L39.6943 6.61534L39.0562 6.26946C36.5528 4.91237 33.7473 4.07643 30.7307 4.07643C21.6669 4.07643 14.2551 10.996 13.2652 19.839L13.2043 20.3822H12.4525C10.551 20.3822 9 21.9387 9 23.8471V27.9236C9 29.832 10.551 31.3885 12.4525 31.3885H13.2301L17.1352 62.7502C17.2232 63.4626 17.8287 64 18.5453 64H42.9161C43.6326 64 44.2381 63.4631 44.3261 62.7507L48.2313 31.3885H49.0088C50.9104 31.3885 52.4614 29.832 52.4614 27.9236V23.8471C52.4614 21.9387 50.9104 20.3822 49.0088 20.3822H48.257L48.1962 19.8389C47.6975 15.3817 45.5858 11.4467 42.4136 8.61374L42.1136 8.34579L43.9393 2.8535H53.5784C54.3629 2.8535 55 2.21414 55 1.42675C55 0.639359 54.3629 0 53.5784 0H42.9161C42.3058 0 41.7623 0.393619 41.5688 0.97618ZM41.6628 61.1465H19.7987L16.0923 31.3885H45.365L41.6628 61.1465ZM49.6181 23.2357V28.535H11.8433V23.2357H49.6181ZM45.448 20.3862H16.0177L16.1185 19.6871C17.1557 12.4981 23.2782 6.92994 30.7307 6.92994C33.5382 6.92994 36.1321 7.76163 38.3618 9.11784L38.7775 9.37072L37.5066 13.2067C37.2569 13.9527 37.6594 14.7596 38.4045 15.008L38.4085 15.0093C38.5576 15.0601 38.7064 15.0828 38.8543 15.0828C39.4491 15.0828 40.0028 14.7054 40.2016 14.1068L41.1477 11.2646L41.8474 12.0672C43.6855 14.1754 44.9274 16.7869 45.3469 19.6869L45.448 20.3862Z" fill="black"/>
</svg>
