<svg width="178" height="48" viewBox="0 0 178 48" fill="none" xmlns="http://www.w3.org/2000/svg">
<g clip-path="url(#clip0)">
<path d="M67.1883 47.9892L58.7833 39.6071H31.2738V41.9726H16.7842L10.1582 35.3646V25.4399H7.24479L0 18.1377V0.0108032H132.469L140.874 8.39288H161.525C162.17 7.08157 163.562 5.74455 165.779 5.69313C166.888 5.69313 168.461 6.23308 169.286 7.26156L176.788 14.7437C177.613 15.6693 178 16.7492 178 18.112V18.2148C177.82 19.6547 177.098 20.8889 175.937 21.7116V39.6071H145.643L141.054 48.0149H67.1883V47.9892Z" fill="black"/>
<path d="M175.009 38.6815H145.102L140.513 47.0893H67.575L59.17 38.6815H30.3456V41.047H17.1451L11.0863 34.979V24.5143H7.63152L0.928162 17.7777V0.936462H132.108L140.513 9.31853H162.17C162.17 9.31853 162.866 6.67021 165.805 6.61879C166.759 6.61879 168.022 7.13302 168.59 7.87867L176.118 15.4122C176.84 16.2093 177.046 17.1092 177.046 18.1377C176.866 19.5261 176.118 20.606 174.983 21.2488L175.009 38.6815Z" fill="#916C58"/>
<path d="M5.15643 7.49298V11.1184H17.6608V32.0735H21.3734V11.1184H111.456V7.49298H5.15643Z" fill="black"/>
<path d="M24.3899 15.8751V29.7338H38.5443V26.0055H28.0767V24.3857H34.5481V21.0689L28.051 21.0946V19.5261H38.3123V15.8751H24.3899ZM58.9895 15.8751V29.7338H62.6506V24.3857H70.1016V29.7338H73.7885V15.8751H70.1016V21.0689H62.6506V15.8751H58.9895ZM76.4956 15.8751V29.7338H80.1567V19.9118L87.9171 29.7338H92.9446V15.8751H89.2836V25.6713L81.5231 15.8751H76.4956Z" fill="black"/>
<path fill-rule="evenodd" clip-rule="evenodd" d="M99.7769 15.8751H107.305C109.6 15.8751 111.456 17.7263 111.456 20.0147V25.5684C111.456 27.8568 109.6 29.708 107.305 29.708H99.7769C97.4823 29.708 95.626 27.8568 95.626 25.5684V20.0147C95.626 17.7263 97.5081 15.8751 99.7769 15.8751ZM100.37 19.5261H106.764C107.331 19.5261 107.795 19.989 107.795 20.5546V24.9514C107.795 25.517 107.331 25.9798 106.764 25.9798H100.37C99.8027 25.9798 99.3386 25.517 99.3386 24.9514V20.5289C99.3128 19.989 99.7769 19.5261 100.37 19.5261Z" fill="black"/>
<path d="M52.6472 24.4885V24.977C52.6472 25.5426 52.1831 26.0055 51.6159 26.0055H45.2219C44.6547 26.0055 44.1906 25.5426 44.1906 24.977V20.5803C44.1906 20.0146 44.6547 19.5518 45.2219 19.5518H51.6159C52.1831 19.5518 52.6472 20.0146 52.6472 20.5803V21.0688H56.334V20.0146C56.334 17.7262 54.4777 15.875 52.1831 15.875H44.6805C42.3859 15.875 40.5038 17.7262 40.5038 20.0146V25.5684C40.5038 27.8567 42.3601 29.708 44.6547 29.708H52.1831C54.4777 29.708 56.334 27.8567 56.334 25.5684V24.4627L52.6472 24.4885ZM130.612 11.0154V14.6922H118.985C118.366 14.6922 117.85 15.2579 117.85 15.9778V24.7199C117.85 25.4398 118.34 26.0055 118.959 26.0055H127.622V23.2286H124.012V19.5518H131.308V29.7337H118.675C116.174 29.7337 114.163 27.4196 114.163 24.5913V16.1835C114.163 13.3295 116.174 11.0412 118.675 11.0412L130.612 11.0154ZM160.597 29.7337H157.374L153.223 21.2745V29.7337H149.562V15.875H154.744L158.999 24.4885L163.227 15.875H168.409V29.7337H164.748V21.2745L160.597 29.7337Z" fill="black"/>
<path d="M135.614 38.1673H70.1017V34.439H133.242L137.857 25.9798L132.366 15.8751H136.542L139.971 22.1745L143.375 15.8751H147.577L135.614 38.1673ZM162.892 10.4499C162.892 8.85574 164.181 7.54443 165.805 7.54443C167.404 7.54443 168.718 8.83003 168.718 10.4499C168.718 12.044 167.429 13.3553 165.805 13.3553C164.181 13.3553 162.892 12.044 162.892 10.4499ZM163.304 10.4499C163.304 11.8383 164.413 12.9439 165.805 12.9439C167.197 12.9439 168.306 11.8383 168.306 10.4499C168.306 9.06143 167.197 7.95582 165.805 7.95582C164.413 7.95582 163.304 9.06143 163.304 10.4499Z" fill="black"/>
<path fill-rule="evenodd" clip-rule="evenodd" d="M166.063 10.9641C166.346 10.9641 166.45 11.1441 166.45 11.4012V11.9668H167.017V11.4012C167.017 10.9898 166.914 10.7584 166.527 10.7327V10.7069C167.017 10.6298 167.043 10.3213 167.043 9.88417C167.043 9.21566 166.785 9.00996 166.14 8.98425H164.619V11.9411H165.186V10.9641H166.063ZM165.186 10.4755V9.47278H165.985C166.398 9.47278 166.475 9.54991 166.475 9.96131C166.475 10.3984 166.372 10.4755 165.96 10.4755H165.186Z" fill="black"/>
<path d="M166.063 10.9641C166.346 10.9641 166.45 11.1441 166.45 11.4012V11.9668H167.017V11.4012C167.017 10.9898 166.914 10.7584 166.527 10.7327V10.7069C167.017 10.6298 167.043 10.3213 167.043 9.88417C167.043 9.21566 166.785 9.00996 166.14 8.98425H164.619V11.9411H165.186V10.9641H166.063ZM165.186 10.4755V9.47278H165.986C166.398 9.47278 166.475 9.54991 166.475 9.9613C166.475 10.3984 166.372 10.4755 165.96 10.4755H165.186ZM107.305 15.875H99.7769C97.4823 15.875 95.626 17.7263 95.626 20.0147V25.5941C95.626 27.8825 97.4823 29.7337 99.7769 29.7337H107.305C109.6 29.7337 111.456 27.8825 111.456 25.5941V20.0147C111.456 17.752 109.6 15.875 107.305 15.875ZM107.795 24.977C107.795 25.5427 107.331 26.0055 106.764 26.0055H100.37C99.8027 26.0055 99.3386 25.5427 99.3386 24.977V20.5546C99.3386 19.9889 99.8027 19.5261 100.37 19.5261H106.764C107.331 19.5261 107.795 19.9889 107.795 20.5546V24.977Z" fill="black"/>
</g>
<defs>
<clipPath id="clip0">
<rect width="178" height="48" fill="white"/>
</clipPath>
</defs>
</svg>
