<svg width="19" height="18" viewBox="0 0 19 18" fill="none" xmlns="http://www.w3.org/2000/svg">
<path d="M10 10.5C10 10.7761 9.77616 11 9.50001 11C9.22387 11 9.00001 10.7761 9.00001 10.5V6.5C9.00001 6.22386 9.22387 6 9.50001 6C9.77616 6 10 6.22386 10 6.5V10.5ZM9.00001 13H10V14H9.00001V13ZM9.05812 0.266056C9.24592 -0.0886854 9.7541 -0.0886854 9.94191 0.266056L18.9419 17.2661C19.1182 17.5991 18.8768 18 18.5 18H0.500014C0.123227 18 -0.118174 17.5991 0.05812 17.2661L9.05812 0.266056ZM1.33047 17H17.6696L9.50001 1.56863L1.33047 17Z" fill="#916C58"/>
</svg>
