<svg width="16" height="16" viewBox="0 0 16 16" fill="none" xmlns="http://www.w3.org/2000/svg">
<path d="M13.0707 4.66335C13.02 4.46469 12.876 4.31469 12.7113 4.26869C12.42 4.18669 11 4.00002 8.00001 4.00002C5.00001 4.00002 3.58134 4.18669 3.28734 4.26869C3.12468 4.31402 2.98068 4.46402 2.92934 4.66335C2.85668 4.94602 2.66668 6.13069 2.66668 8.00002C2.66668 9.86935 2.85668 11.0534 2.92934 11.3374C2.98001 11.5354 3.12401 11.6854 3.28801 11.7307C3.58134 11.8134 5.00001 12 8.00001 12C11 12 12.4193 11.8134 12.7127 11.7314C12.8753 11.686 13.0193 11.536 13.0707 11.3367C13.1433 11.054 13.3333 9.86669 13.3333 8.00002C13.3333 6.13335 13.1433 4.94669 13.0707 4.66335ZM14.362 4.33202C14.6667 5.52002 14.6667 8.00002 14.6667 8.00002C14.6667 8.00002 14.6667 10.48 14.362 11.668C14.1927 12.3247 13.6973 12.8414 13.07 13.016C11.9307 13.3334 8.00001 13.3334 8.00001 13.3334C8.00001 13.3334 4.07134 13.3334 2.93001 13.016C2.30001 12.8387 1.80534 12.3227 1.63801 11.668C1.33334 10.48 1.33334 8.00002 1.33334 8.00002C1.33334 8.00002 1.33334 5.52002 1.63801 4.33202C1.80734 3.67535 2.30268 3.15869 2.93001 2.98402C4.07134 2.66669 8.00001 2.66669 8.00001 2.66669C8.00001 2.66669 11.9307 2.66669 13.07 2.98402C13.7 3.16135 14.1947 3.67735 14.362 4.33202ZM6.66668 10.3334V5.66669L10.6667 8.00002L6.66668 10.3334Z" fill="white"/>
</svg>
